<?xml version="1.0" encoding="utf-8"?>
<!-- Generator: Adobe Illustrator 22.1.0, SVG Export Plug-In . SVG Version: 6.00 Build 0)  -->
<svg version="1.1" id="Layer_1" xmlns="http://www.w3.org/2000/svg" xmlns:xlink="http://www.w3.org/1999/xlink" x="0px" y="0px"
	 viewBox="0 0 1225.4 453.1" style="enable-background:new 0 0 1225.4 453.1;" xml:space="preserve">
<style type="text/css">
	.st0{fill:#FFFFFF;}
	.st1{fill:none;}
</style>
<g>
	<path class="st0" d="M549.2,71.8c-6.4-7.8-16.1-12.5-26-12.5c-22,0-34.7,20.3-34.7,40.7c0,19.9,13.1,39.7,34.6,39.7
		c9.8,0,19.7-5.2,26.1-12.5v27.4c-8.6,4.1-17.2,7-26.7,7c-33.1,0-57.7-28.6-57.7-61.1c0-33.5,23.6-63,58.2-63
		c9.2,0,18.3,2.5,26.3,6.9L549.2,71.8L549.2,71.8z"/>
	<path class="st0" d="M640.5,161.5c-36,0-58.3-27.5-58.3-62.2c0-35,23.1-61.9,58.3-61.9s58.3,26.9,58.3,61.9
		C698.8,134,676.5,161.5,640.5,161.5z M640.5,60.1c-21.7,0-34.6,19.2-34.6,38.3c0,18.1,9.1,40.5,34.6,40.5s34.6-22.3,34.6-40.5
		C675.1,79.3,662.2,60.1,640.5,60.1z"/>
	<path class="st0" d="M733.5,40.5h32.8c34.1,0,56.9,25.5,56.9,59.1c0,33.1-23.5,58.8-57.1,58.8h-32.7L733.5,40.5L733.5,40.5z
		 M756.5,138.4h3.7c28.3,0,39.2-15.6,39.2-38.9c0-25.6-13.1-38.9-39.2-38.9h-3.7V138.4z"/>
	<polygon class="st0" points="881,60.5 881,86.5 917.6,86.5 917.6,106.5 881,106.5 881,138.4 919,138.4 919,158.4 858,158.4
		858,40.5 919,40.5 919,60.5 	"/>
	<path class="st0" d="M486.8,295l-11.9,26.2h-14l50-109.1l50,109.1h-14L534.8,295H486.8z M510.8,240.7l-18.6,42.4h37.2L510.8,240.7z
		"/>
	<polygon class="st0" points="608.2,252.1 607.9,252.1 595.7,321.3 582.2,321.3 603.6,212.1 639.6,294.6 675.5,212.1 696.9,321.3
		683.4,321.3 671.2,252.1 670.9,252.1 639.6,323.5 	"/>
	<polygon class="st0" points="729.4,216.6 785.7,216.6 785.7,228.5 742.5,228.5 742.5,257.8 784.4,257.8 784.4,269.8 742.5,269.8
		742.5,309.3 785.7,309.3 785.7,321.3 729.4,321.3 	"/>
	<path class="st0" d="M887.8,321.3H872L841.1,277h-5.4v44.3h-13.1V216.6h15.8c9.3,0,19.3,0.1,27.6,4.9c8.8,5.1,13.7,15,13.7,25
		c0,15-10,27.5-25.1,29.3L887.8,321.3z M835.7,266.2h4.2c13.3,0,27.8-2.5,27.8-19.2c0-16.4-15.6-18.8-28.5-18.8h-3.5V266.2z"/>
	<rect x="918.5" y="216.6" class="st0" width="13" height="104.7"/>
	<path class="st0" d="M1048.2,236.6c-7.5-6.7-17.8-10.3-27.6-10.3c-23.5,0-41.4,19.6-41.4,42.8c0,22.9,17.8,42.5,41.1,42.5
		c10.3,0,20.1-3.9,27.9-10.8v15.4c-8.1,4.7-18.3,7.4-27.5,7.4c-29.9,0-54.6-23.7-54.6-54c0-31,24.9-55.1,55.7-55.1
		c9.2,0,18.5,2.2,26.4,7.1V236.6z"/>
	<path class="st0" d="M1099.4,295l-11.9,26.2h-14l50-109.1l50,109.1h-14l-11.9-26.2H1099.4z M1123.4,240.7l-18.6,42.4h37.2
		L1123.4,240.7z"/>
	<path class="st0" d="M1014.4,113.1c-3.6,5.8-7.2,12.1-10.8,18.8s-7.4,13.4-11.4,20s-8.3,13-12.9,19.1c-4.6,6.1-9.6,11.5-15.2,16.2
		c-5.6,4.7-11.7,8.4-18.4,11.2s-14.2,4.2-22.4,4.2c-2.8,0-5.7-0.3-8.9-0.9c-3.1-0.6-6-1.6-8.6-3s-4.7-3.3-6.5-5.6
		c-1.7-2.3-2.6-5.2-2.6-8.7c0-2.7,0.6-5.1,1.7-7.1c1.2-2,2.7-3.8,4.6-5.1c1.9-1.4,4.1-2.4,6.5-3.2c2.4-0.7,4.9-1.1,7.4-1.1
		c1.3,0,2.5,0,3.5,0.1c1.1,0.1,2,0.2,2.9,0.4v1.1c-4.5,0.3-8,1.8-10.8,4.7c-2.7,2.9-4.1,6.5-4.1,11c0,4.8,1.3,8.6,4,11.4
		c2.7,2.8,7,4.2,13.1,4.2c5.5,0,10.7-1.5,15.7-4.5s9.8-7,14.4-11.9c4.6-4.9,8.9-10.5,13.1-16.7c4.1-6.2,8.1-12.6,11.8-19.2
		c3.7-6.5,7.3-12.9,10.8-19.1c3.4-6.2,6.7-11.7,9.7-16.4h-13.3l1.4-2.5h13.6c2.7-4.6,5.9-9.7,9.5-15.3c3.7-5.6,7.8-10.7,12.4-15.6
		c4.6-4.8,9.6-8.8,15.1-12.1c5.5-3.2,11.3-4.9,17.5-4.9c1.9,0,3.8,0.2,5.6,0.7c1.8,0.5,3.4,1.2,4.9,2.1c1.4,0.9,2.6,2.1,3.5,3.5
		s1.3,3.1,1.3,5.1c0,3.3-1.2,5.8-3.6,7.5s-5.2,2.5-8.5,2.5c-0.7,0-1.6-0.1-2.5-0.3c0.8-1.7,1.5-3.4,2.1-5.3c0.6-1.8,0.8-3.8,0.8-6
		c0-2.7-0.6-4.7-1.7-6.1s-2.6-2.1-4.4-2.1c-2.3,0-4.8,0.9-7.4,2.7c-2.6,1.8-5.1,4.1-7.6,7s-5,6.1-7.4,9.6c-2.5,3.5-4.7,7-6.7,10.4
		s-3.9,6.6-5.5,9.5s-2.9,5.2-4,6.9h35.8l-1.5,2.5h-36V113.1z"/>
	<path class="st0" d="M1104.3,123.5c-1.9,2.4-4.1,4.6-6.6,6.5c-2.6,2-5.4,2.9-8.4,2.9c-2.1,0-4-0.5-5.6-1.4s-3-2.2-4.3-3.9
		c-1.1,4.6-2.9,9-5.5,13.1c-2.5,4.1-5.6,7.7-9.2,10.8s-7.6,5.6-12.1,7.4c-4.4,1.8-9.1,2.7-13.9,2.7c-5.1,0-9.2-1.5-12.2-4.4
		c-3.1-2.9-4.6-6.9-4.6-12c0-4.9,1.2-9.6,3.8-14.1c2.5-4.5,5.7-8.4,9.7-11.8s8.4-6.1,13.2-8.1c4.8-2,9.5-3,14.2-3
		c5,0,8.9,1.3,11.8,4s4.6,5.9,5.3,9.7c0.5,2.8,1.5,5,3.1,6.7c1.6,1.7,3.7,2.5,6.3,2.5c2.5,0,4.9-0.7,7.1-2.2s4.6-3.7,7.1-6.7
		L1104.3,123.5z M1046.7,157.7c2.3-1.6,4.5-3.6,6.7-6.1c2.1-2.5,4.1-5.3,5.9-8.5c1.8-3.1,3.4-6.3,4.7-9.4c1.3-3.2,2.4-6.2,3.1-9
		c0.7-2.9,1.1-5.3,1.1-7.2c0-2.3-0.5-4.1-1.5-5.4s-2.5-1.9-4.6-1.9c-2.3,0-4.6,0.8-6.9,2.4s-4.5,3.6-6.7,6.1
		c-2.1,2.5-4.1,5.3-5.9,8.5c-1.8,3.1-3.4,6.3-4.7,9.4c-1.3,3.2-2.4,6.2-3.1,9c-0.7,2.9-1.1,5.3-1.1,7.2c0,2.3,0.5,4.1,1.5,5.4
		c1,1.3,2.5,1.9,4.6,1.9C1042,160,1044.3,159.2,1046.7,157.7z"/>
	<path class="st0" d="M1076.8,159.5c4.7-8.2,9.5-16.2,14.4-24.3c4.9-8,9.7-16.2,14.5-24.6l15.8-0.6l-18.3,25.8l0.3,0.3
		c3.5-4.3,6.7-7.9,9.4-10.5c2.7-2.6,5.1-4.8,7.2-6.5c2-1.7,3.7-2.9,5.1-3.8s2.4-1.6,3.1-2.3c1-1,2-1.8,2.8-2.4
		c0.9-0.6,1.9-1.1,3.1-1.4s2.7-0.5,4.4-0.6c1.7-0.1,3.9-0.2,6.5-0.3c-1.8,2.5-3.4,5.1-4.9,7.8c-1.5,2.7-2.2,5.7-2.2,8.8c0,4,2,6,6,6
		c1.3,0,2.6-0.3,3.8-0.8c1.2-0.6,2.4-1.3,3.5-2.1c1.1-0.8,2.2-1.7,3.2-2.7s1.9-1.9,2.8-2.7l0.6,0.7c-2.6,3.2-5.6,5.9-9.2,7.9
		c-3.5,2-7.4,3-11.5,3c-3.7,0-6.6-1-8.7-2.9s-3.2-4.8-3.2-8.6c0-2.4,0.7-4.7,2.1-6.8l-0.3-0.3c-3.9,2.6-7.6,5.6-11.1,9
		s-6.8,7-9.8,10.8c-3,3.8-5.8,7.7-8.3,11.7c-2.6,4-4.8,7.9-6.9,11.7L1076.8,159.5z"/>
</g>
<g>
	<g>
		<path class="st0" d="M464.6,368.5h21.8c8.1,0,12.6,5.1,12.6,11.3c0,5.6-3.6,9.3-7.7,10.2c4.7,0.7,8.6,5.5,8.6,10.9
			c0,6.9-4.6,12-12.9,12h-22.4V368.5z M484.8,386.9c4,0,6.3-2.4,6.3-5.7s-2.3-5.8-6.3-5.8h-12.4v11.5H484.8z M485.1,406.1
			c4.3,0,6.8-2.3,6.8-6.2c0-3.3-2.3-6.1-6.8-6.1h-12.8v12.3L485.1,406.1L485.1,406.1z"/>
		<path class="st0" d="M594.7,396.3H587v16.6h-7.8v-44.4h19.5c8.8,0,14.5,5.7,14.5,13.9c0,7.9-5.2,12.2-10.5,13l10.8,17.4h-9
			L594.7,396.3z M597.6,375.4H587v14.1h10.6c4.4,0,7.6-2.8,7.6-7.1S602,375.4,597.6,375.4z"/>
		<path class="st0" d="M692.5,368.5h7.8v44.4h-7.8V368.5z"/>
		<path class="st0" d="M802.6,367.8c8.7,0,14.3,4.1,17.9,9.2l-6.4,3.6c-2.3-3.3-6.5-5.9-11.5-5.9c-8.8,0-15.3,6.7-15.3,16
			s6.5,16.1,15.3,16.1c4.5,0,8.5-2.1,10.5-4v-6.9h-13.2V389h21v16.6c-4.4,4.9-10.6,8.1-18.3,8.1c-12.8,0-23.3-9.1-23.3-23
			C779.3,376.8,789.8,367.8,802.6,367.8z"/>
		<path class="st0" d="M928.4,404.4h-21l-3.3,8.5h-8.5l17.4-44.4h9.7l17.4,44.4h-8.5L928.4,404.4z M909.6,397.5h16.6l-8.3-22.4
			L909.6,397.5z"/>
		<path class="st0" d="M1016.6,368.5h16.5c13.8,0,23.2,9.2,23.2,22.2s-9.4,22.2-23.2,22.2h-16.5V368.5z M1033.1,406.1
			c9.6,0,15.2-6.9,15.2-15.3c0-8.6-5.3-15.4-15.2-15.4h-8.7v30.7L1033.1,406.1L1033.1,406.1z"/>
		<path class="st0" d="M1135.4,368.5h30.4v6.9h-22.6v11.5h22.2v6.9h-22.2v12.3h22.6v6.9h-30.4V368.5z"/>
	</g>
</g>
<g>
	<path class="st0" d="M212.8,212.7c1.9-4.2,4.3-8.5,4.8-9.3h-70.9l0.2,10.2c4.3-0.5,11.4-1.2,19.3-1.3c12.6-0.2,17.7,3.3,29.6,3.4
		c10.2,0.1,15.5-1.8,16.7-2.4C212.6,213.1,212.7,212.9,212.8,212.7z"/>
	<g>
		<path class="st1" d="M360.5,230.1c-10.8-6-9-5-16.8-17.3c-7.8-12.4-10.5-21.2-19.8-32.7s-20-12.8-20-12.8v-4
			c0,0-13.9-10-22.7-21.7c-6.8-9.1-7-10.2-7-10.3c-0.1,0.2-3.9,6.2-8.5,13.6c-4.7,7.5-8,9.5-8,9.5s-7.7-10.6-17-22.8
			c-9.4-12.1-18.7-11.8-18.7-11.8V115c0,0-14-11.5-18.8-16s-11-15.7-11-15.7S187,94.1,180,102.6s-15,15-15,15v6
			c0,0-14.3,7.3-25.1,25c-9.9,16.1-10.6,19.4-15.3,30.9c-2.4,5.8-3.1,1.8-19.6,11c-14.1,9.5-4.1,26.1,10.7,50.3
			c14.9,24.1,43.8,32.8,43.8,32.8s-0.6-1.1-1.6-2.9c0,0,0,0,0,0c-1.4-2.7-3.4-6.8-5.3-11.2c-0.2-0.5-0.4-1-0.6-1.4
			c-0.3-0.8-0.5-1.5-0.7-2.3c-1-3.6-1.7-6.3-2.2-8.4c-0.4-2.3-0.9-4.5-1.3-6.8c0,0,0,1.1-4.2,0.8c-4.1-0.3-4-1.3-7.8-5.5
			c-3.8-4.2-3-14.5-1-18.2s8.1-3.1,8.1-3.1v6.6c0,0,3.3-0.4,3.5,2.8s0.7,11.1,2.4,14.1s6.7,7.9,11.1,8.4c4.4,0.5,14.7,0.9,20.4-3.6
			c5.7-4.5,7.8-8,8.9-12.4c1.1-4.4,2.5-9.4,4.6-9.4c2.1,0,4.3,4.4,5.1,6.8c0.5,1.7,1.2,3.4,1.5,4.3c-2.2,0.8-4.9,1.9-7.6,2.8
			c-4.1,1.4-7.9,3.8-10.3,7.5c-0.4,0.6-0.6,0.9-0.6,0.9c-0.9,1.7-1.6,3.5-2,5.6c-1.3,7.5,5.2,20,14.2,34.5c2.1,3.2,4.5,6.4,7.1,9.3
			c0,0,0.1,0,0.1,0c8.8,9.9,19.1,17.2,19.1,17.2c1.5,13.7,5.3,28.9,12.8,36.6c9.6,10,25.7,6.4,25.9,6.3c-0.4-0.6-6.6-9.5-10.7-18.3
			c-0.9-2-1.9-4.8-2.7-7.8c0.1,0.1,0.2,0.1,0.2,0.2c-0.1-0.1-0.2-0.2-0.2-0.3c-2.6-8.9-4.4-19.9-4.4-19.9s2.8,2.2,7,2.6
			c7.2,0.7,11.5,0.2,15.4-1.6c8.7-4,9.1-11.4,12.1-15.6s5.4,5,9.4,10.9c4,5.9,9.7,6.2,19.6,6.1c9.9-0.1,10.6-6.1,10.6-6.1
			s0,0-0.2,19.4c0,0.1-0.1,0.1-0.1,0.2c0,0,0.1-0.1,0.1-0.1c0,0.4,0,0.7,0,1.1c-0.3,20.4-8.4,25.9-9.4,28.2s0.8,3.1,5,2.4
			c4.4-0.8,7-1.2,18-9.6s8.7-16.5,8.2-37.9c0,0,13.2-12,27.7-31.8S371.4,236.2,360.5,230.1z"/>
		<path class="st1" d="M337.2,310.5c0,0.1,0,0.2,0,0.3C337.2,310.7,337.2,310.6,337.2,310.5z"/>
		<path class="st0" d="M234.6,26.8c-105.9,0-191.7,85.8-191.7,191.7s85.8,191.7,191.7,191.7s191.7-85.8,191.7-191.7
			S340.4,26.8,234.6,26.8z M364.7,275c-14.5,19.8-27.7,31.8-27.7,31.8c0.5,21.4,2.8,29.5-8.2,37.9s-13.6,8.8-18,9.6
			c-4.2,0.7-6-0.1-5-2.4s9.1-7.8,9.4-28.2c0-0.4,0-0.7,0-1.1c0,0-0.1,0.1-0.1,0.1c0-0.1,0.1-0.1,0.1-0.2c0.2-19.4,0.2-19.4,0.2-19.4
			s-0.7,6-10.6,6.1c-9.9,0.1-15.6-0.2-19.6-6.1c-4-5.9-6.4-15.1-9.4-10.9s-3.4,11.6-12.1,15.6c-3.9,1.8-8.2,2.3-15.4,1.6
			c-4.2-0.4-7-2.6-7-2.6s1.8,11,4.4,19.9c0.1,0.1,0.2,0.2,0.2,0.3c-0.1-0.1-0.2-0.1-0.2-0.2c0.8,3,1.8,5.8,2.7,7.8
			c4.1,8.8,10.3,17.7,10.7,18.3c-0.2,0.1-16.3,3.7-25.9-6.3c-7.5-7.7-11.3-22.9-12.8-36.6c0,0-10.3-7.3-19.1-17.2c0,0-0.1,0-0.1,0
			c-2.6-2.9-5.1-6.1-7.1-9.3c-9-14.5-15.5-27-14.2-34.5c0.4-2.1,1.1-3.9,2-5.6c0,0,0.2-0.3,0.6-0.9c2.4-3.7,6.2-6.1,10.3-7.5
			c2.7-0.9,5.4-2,7.6-2.8c-0.3-0.9-1-2.6-1.5-4.3c-0.8-2.4-3-6.8-5.1-6.8c-2.1,0-3.5,5-4.6,9.4c-1.1,4.4-3.2,7.9-8.9,12.4
			c-5.7,4.5-16,4.1-20.4,3.6c-4.4-0.5-9.4-5.4-11.1-8.4s-2.2-10.9-2.4-14.1s-3.5-2.8-3.5-2.8v-6.6c0,0-6.1-0.6-8.1,3.1
			s-2.8,14,1,18.2c3.8,4.2,3.7,5.2,7.8,5.5c4.2,0.3,4.2-0.8,4.2-0.8c0.4,2.3,0.9,4.5,1.3,6.8c0.5,2.1,1.2,4.8,2.2,8.4
			c0.2,0.8,0.4,1.5,0.7,2.3c0.2,0.4,0.4,0.9,0.6,1.4c1.9,4.4,3.9,8.5,5.3,11.2c0,0,0,0,0,0c0.9,1.8,1.6,2.9,1.6,2.9
			s-28.9-8.7-43.8-32.8c-14.8-24.2-24.8-40.8-10.7-50.3c16.5-9.2,17.2-5.2,19.6-11c4.7-11.5,5.4-14.8,15.3-30.9
			c10.8-17.7,25.1-25,25.1-25v-6c0,0,8-6.5,15-15s12.2-19.3,12.2-19.3s6.2,11.2,11,15.7s18.8,16,18.8,16v4.8c0,0,9.3-0.3,18.7,11.8
			c9.3,12.2,17,22.8,17,22.8s3.3-2,8-9.5c4.6-7.4,8.4-13.4,8.5-13.6c0,0.1,0.2,1.2,7,10.3c8.8,11.7,22.7,21.7,22.7,21.7v4
			c0,0,10.7,1.3,20,12.8s12,20.3,19.8,32.7c7.8,12.3,6,11.3,16.8,17.3C371.4,236.2,379.2,255.2,364.7,275z M337.2,310.8
			c0-0.1,0-0.2,0-0.3C337.2,310.6,337.2,310.7,337.2,310.8z"/>
	</g>
	<path class="st0" d="M176.7,216.6c-9.2-1.4-15.5-1.6-18.3-1.1c-2.8,0.5-9.2,1.7-8,16.5c1.5,17.6,22.3,12.4,27.5,8.7
		c3.8-2.6,6.6-9.9,7.9-15.6S182.3,217.4,176.7,216.6z"/>
	<path class="st0" d="M208,217.5c-0.1,0-0.2,0.1-0.3,0.1c-0.7,0.3-1.3,0.6-1.8,0.9c-0.3,0.1-0.5,0.3-0.8,0.4
		c-4.9,2.7-1.1,11.3-1,11.5c0.4-0.2,0.8-0.5,1.3-0.8c0.1-0.2,0.2-0.6,0.3-1.1c0.7-1.5,3.2-7.4,4.5-10.4c0.3-0.6,0.6-1.2,0.9-1.8
		c-0.2,0.2-0.2,0.2-0.3,0.2c0,0,0,0-0.1,0C210.2,216.6,209.4,216.8,208,217.5z"/>
	<path class="st0" d="M252,308.3c10.2,0.4,17.9-5.1,18-11.8c0-6.6-2.5-7.6-2.5-7.6s-4.6,3.5-14.1,6.1c-9.5,2.6-12.4,2.8-12.4,2.8
		v5.3C241,303.1,241.9,307.9,252,308.3z"/>
	<path class="st0" d="M312.7,261.8c0,0-1.5,1.2-16.9,11.4c-15.4,10.2-23.5,13.3-23.5,13.3s3.2,0.8,10.4,0.8c7.2,0,7.7-1.2,14.9-2
		c7.2-0.8,17.8,0.7,17.8,0.7s-0.2-13.3-0.5-17.3S312.7,261.8,312.7,261.8z"/>
	<path class="st0" d="M303.5,307.8c6.2-0.3,11-2.6,11.5-9c0.5-6.4-0.8-8.8-3-10.3s-7.8-0.9-12.1-0.9c-5.3,0-7.9,0.5-11.1,2.1
		c-3.2,1.6-4.5,2.4-4.2,5.9C284.9,299.2,288.8,308.4,303.5,307.8z"/>
	<polygon class="st0" points="194.8,168.5 194.8,168.5 194.8,168.6 	"/>
	<path class="st0" d="M194.8,168.5l-2.5-77c0,0-0.9,2.1-3.5,5.5c-2.2,3-3.3,3.8-3.3,3.8l2,67.7H194.8z"/>
	<polygon class="st0" points="207,168.6 206,105.7 199.2,99.5 200.2,168.6 	"/>
	<path class="st0" d="M226,160.9c1.5,3.6,2.5,7.7,2.5,7.7h2.7c0,0,0-7.5-3.6-13.5c-3.6-6-6.2-7.9-6.2-7.9v7.7
		C221.3,154.8,224.5,157.3,226,160.9z"/>
	<path class="st0" d="M231.1,151.7c3.8,7.7,5.9,17.8,5.9,17.8l4.3,0.6c0,0-3.2-14.7-7.3-24.5c-4.1-9.8-11.8-15.5-11.8-15.5V141
		C222.2,141,227.2,143.7,231.1,151.7z"/>
	<polygon class="st0" points="179.4,166.5 178.2,110.5 173.3,115.4 174.4,158.7 	"/>
	<path class="st0" d="M154.9,173.8l3.3-1.2c0,0,0.1-5.8,2.7-10.4c2.6-4.7,5-7.2,5-7.2v-3.7c0,0-3.8,3.3-7.2,9.7
		C155.3,167.4,154.9,173.8,154.9,173.8z"/>
	<path class="st0" d="M177.3,170.4c0,0-2.1-3.2-4-6.3c-1.9-3.1-4.8-5.1-4.8-5.1s-0.8,1.1-1.8,3.6s-2.9,9-2.9,9L177.3,170.4z"/>
	<path class="st0" d="M204.1,185.5c17.4,0.5,25.5,0.5,25.5,0.5l5-5.7c0,0-41.7-2.3-74.2,1c-41.1,4.2-57.3,17.7-57.3,19.8
		c0,2.2,2.2,2.3,4,1.7c1.8-0.6,11.8-9,33.3-13S186.7,185,204.1,185.5z"/>
	<path class="st0" d="M269.1,216.3h6.7l-0.4-14.5l-1.9-61.6c0,0-1.9,3-2.9,4.7s-2.9,3.7-2.9,3.7l1.2,54.3L269.1,216.3z"/>
	<polygon class="st0" points="281.7,216.3 288.2,216.3 288,202.8 287.4,153.7 280.9,147.2 281.6,201.8 	"/>
	<path class="st0" d="M304.2,211.7c-1-2.6-4-3.9-4-3.9l-5.8,9.2l11.8-0.7C306.2,216.3,305.2,214.3,304.2,211.7z"/>
	<path class="st0" d="M313.1,200c5.2,7.8,4.8,17.6,4.8,17.6l5.7,1.1c0,0,0-8-6.4-21.5c-6-12.7-13.7-19.7-13.7-19.7v11.1
		C303.6,188.6,306.2,189.4,313.1,200z"/>
	<path class="st0" d="M306.2,206.5c1,1.7,2.1,4.6,3,6.9c0.7,1.8,1.1,3.3,1.1,3.3l2.7,0.2l1.1,0.1c0,0,0-4.3-3.5-11.3
		s-8.5-12.5-8.5-12.5v9C302.1,202.2,304.4,203.3,306.2,206.5z"/>
	<polygon class="st0" points="256.4,207.4 261.4,215 261.1,205.2 259.7,157.9 254.2,162.8 255.8,206.5 	"/>
	<path class="st0" d="M226.2,223.2h4.2c0,0-1-0.9,4.2-14.7c5.4-14.4,12-16.5,12-16.5v-6.7c0,0-9.2,9.2-13,16.5
		C229.8,209.1,226.2,223.2,226.2,223.2z"/>
	<path class="st0" d="M239.4,208.8c-3.5,6.4-3.3,12.8-3.3,12.8l3.5-0.8c0,0-0.4-3,2.2-9c3.6-8.2,5.7-8.8,5.7-8.8v-5
		C247.6,198,244,200.4,239.4,208.8z"/>
	<path class="st0" d="M245.8,215c-0.7,2.7-0.7,4.9-0.7,4.9l13.6-1.3c0,0-0.5-2.2-3.5-6.7c-0.6-0.9-1.3-1.8-2-2.6
		c-1.3-1.5-2.6-2.6-2.6-2.6s-2.9,2.8-4.1,6.1C246.2,213.5,246,214.3,245.8,215z"/>
	<path class="st0" d="M358.8,233.7c-6.7-1.6-20.2-3.8-36.8-5.5c-26.1-2.6-59.9-3.7-87.7,0.9c-5,0.8-9.8,1.9-14.3,3.1
		c-16.4,4.5-28.1,9.4-32.5,12.9c-1.2,1-1.8,1.8-1.9,2.5c-0.2,3.2-2,4.2,2,2.8c1.2-0.4,3.1-1.5,5.8-2.8c6.4-3.1,16.8-7.9,30.2-10.2
		c2.2-0.4,4.5-0.7,6.9-1.1c17.6-2.6,38.3-4.1,58.9-3.4c14.9,0.5,26,0.4,35.8,0.8c5.5,0.3,10.7,0.7,15.8,1.5
		c14.2,2.2,19.9,2.7,20.5,2.7C363.6,237.8,364.1,235,358.8,233.7z"/>
	<path class="st0" d="M222.7,163.1c-1.4-2.8-3.6-3.3-3.6-3.3s-1.3,1.5-2.8,3.3c-1.4,1.8-2.9,5.5-2.9,5.5h11.1
		C224.5,168.6,224.1,166,222.7,163.1z"/>
	<path class="st0" d="M145.1,175.9c1.1-0.2,3.5-0.3,3.5-0.3c0.8-2.8,1.3-5,1.7-6.5c1-4,2.1-8,3.9-11.7c2-4.2,4.7-8.1,7.9-11.4
		c0.8-0.9,2.1-1.8,3.1-2.9v-5.7c-0.6,0.3-1.3,0.6-1.5,0.9c-6.9,7.9-12.6,17-16.5,26.8c-0.8,2.1-1.1,2.5-2.1,6.5
		C144.4,173.9,144.8,176,145.1,175.9z"/>
</g>
</svg>
