<?xml version="1.0" encoding="UTF-8"?>
<svg width="1040px" height="665px" viewBox="0 0 1040 665" version="1.1" xmlns="http://www.w3.org/2000/svg" xmlns:xlink="http://www.w3.org/1999/xlink">
    <!-- Generator: Sketch 52.2 (67145) - http://www.bohemiancoding.com/sketch -->
    <title>brigade-regions-2018</title>
    <desc>Created with Sketch.</desc>
    <g id="brigade-regions-2018" stroke="none" stroke-width="1" fill="none" fill-rule="evenodd">
        <g id="Blank_USA,_w_territories" transform="translate(49.000000, 42.000000)">
            <g id="outlines">
                <g id="West" fill="#DECBE4">
                    <path d="M152.1,447.7 L151.8,533.1 L153.4,534.1 L156.5,534.3 L158,533.2 L160.6,533.2 L160.8,536.1 L167.8,542.9 L168.3,545.5 L171.7,543.6 L172.3,543.4 L172.6,540.3 L174.1,538.7 L175.2,538.5 L177.1,537 L180.2,539.1 L180.8,542 L182.7,543.1 L183.8,545.5 L187.7,547.3 L191.1,553.3 L193.8,557.2 L196.1,559.9 L197.6,563.6 L202.6,565.4 L207.8,567.5 L208.8,571.9 L209.3,575 L208.3,578.4 L206.5,580.7 L204.9,579.9 L203.4,576.8 L200.7,575.3 L198.9,574.2 L198.1,575 L199.6,577.7 L199.8,581.4 L198.7,581.9 L196.8,580 L194.7,578.7 L195.2,580.3 L196.5,582.1 L195.7,582.9 C195.7,582.9 194.9,582.6 194.4,581.9 C193.9,581.3 192.3,578.5 192.3,578.5 L191.3,576.2 C191.3,576.2 191,577.5 190.3,577.2 C189.7,576.9 189,575.7 189,575.7 L190.8,573.8 L189.3,572.3 L189.3,567.3 L188.5,567.3 L187.7,570.7 L186.6,571.2 L185.6,567.5 L185,563.8 L184.2,563.3 L184.5,569 L184.5,570.1 L183,568.8 L179.4,562.8 L177.3,562.3 L176.7,558.6 L175.1,555.7 L173.5,554.6 L173.5,552.3 L175.6,551 L175.1,550.7 L172.5,551.3 L169.1,548.9 L166.5,546 L161.7,543.4 L157.7,540.8 L159,537.6 L159,536 L157.2,537.6 L154.3,538.7 L150.6,537.6 L144.9,535.2 L139.4,535.2 L138.8,535.7 L132.3,531.8 L130.2,531.5 L127.5,525.7 L123.9,526 L120.3,527.5 L120.8,532 L121.9,529.1 L122.9,529.4 L121.4,533.8 L124.6,531.1 L125.2,532.7 L121.3,537.1 L120,536.8 L119.5,534.9 L118.2,534.1 L116.9,535.2 L114.2,533.4 L111.1,535.5 L109.3,537.6 L105.9,539.7 L101.2,539.5 L100.7,537.4 L104.4,536.8 L104.4,535.5 L102.1,534.9 L103.1,532.5 L105.4,528.6 L105.4,526.8 L105.6,526 L110,523.7 L111,525 L113.7,525 L112.4,522.4 L108.7,522.1 L103.7,524.8 L101.3,528.2 L99.5,530.8 L98.4,533.1 L94.2,534.6 L91.1,537.2 L90.8,538.8 L93.1,539.8 L93.9,541.9 L91.2,545.1 L84.7,549.3 L76.9,553.5 L74.8,554.6 L69.5,555.7 L64.2,558 L66,559.3 L64.5,560.8 L64,561.9 L61.3,560.9 L58.1,561.1 L57.3,563.4 L56.3,563.4 L56.6,561 L53,562.3 L50.1,563.3 L46.7,562 L43.8,563.9 L40.6,563.9 L38.5,565.2 L36.9,566 L34.8,565.7 L32.2,564.6 L29.9,565.2 L28.9,566.2 L27.3,565.1 L27.3,563.2 L30.4,561.9 L36.7,562.5 L41.1,560.9 L43.2,558.8 L46.1,558.2 L47.9,557.4 L50.6,557.6 L52.2,558.9 L53.2,558.6 L55.5,555.9 L58.6,554.9 L62,554.3 L63.3,554 L63.9,554.5 L64.7,554.5 L66,550.8 L70,549.3 L71.9,545.6 L74.2,541.1 L75.8,539.6 L76.1,537 L74.5,538.3 L71.1,538.9 L70.5,536.5 L69.2,536.2 L68.2,537.2 L68,540.1 L66.5,539.9 L65,534.1 L63.7,535.4 L62.6,534.9 L62.3,533 L58.3,533.2 L56.2,534.3 L53.6,534 L55.1,532.5 L55.6,529.9 L55,528 L56.5,527 L57.8,526.8 L57.2,525 L57.2,520.6 L56.2,519.6 L55.4,521.1 L49.3,521.1 L47.8,519.8 L47.2,515.9 L45.1,512.3 L45.1,511.3 L47.2,510.5 L47.4,508.4 L48.5,507.3 L47.7,506.8 L46.4,507.3 L45.3,504.6 L46.3,499.6 L50.8,496.4 L53.4,494.8 L55.3,491.1 L58,489.8 L60.6,490.9 L60.9,493.3 L63.3,493 L66.5,490.6 L68.1,491.2 L69.1,491.8 L70.7,491.8 L73,490.5 L73.8,486.1 C73.8,486.1 74.1,483.2 74.8,482.7 C75.4,482.2 75.8,481.7 75.8,481.7 L74.7,479.8 L72.1,480.6 L68.9,481.4 L67,480.9 L63.4,479.1 L58.4,478.9 L54.8,475.2 L55.3,471.3 L55.9,468.9 L53.8,467.1 L51.9,463.4 L52.4,462.6 L59.2,462.1 L61.3,462.1 L62.3,463.1 L62.9,463.1 L62.7,461.5 L66.6,460.9 L69.2,461.2 L70.7,462.3 L69.2,464.4 L68.7,465.9 L71.4,467.5 L76.4,469.3 L78.2,468.3 L75.9,463.9 L74.9,460.7 L75.9,459.9 L72.5,458 L72,456.9 L72.5,455.3 L71.7,451.4 L68.8,446.7 L66.4,442.5 L69.3,440.6 L72.5,440.6 L74.3,441.2 L78.5,441 L82.2,437.4 L83.3,434.3 L87,431.9 L88.6,432.9 L91.3,432.3 L95,430.2 L96.1,430 L97.1,430.8 L101.6,430.6 L104.3,427.5 L105.4,427.5 L109,429.9 L110.9,432 L110.4,433.1 L111,434.2 L112.6,432.6 L116.5,432.9 L116.8,436.6 L118.7,438.1 L125.8,438.7 L132.1,442.9 L133.6,441.9 L138.8,444.5 L140.9,443.9 L142.8,443.1 L147.6,445 L152.1,447.7 Z M37,476.6 L39.1,481.9 L38.9,482.9 L36,482.6 L34.2,478.6 L32.4,477.1 L30,477.1 L29.8,474.5 L31.6,472.1 L32.7,474.5 L34.2,476 L37,476.6 Z M34.4,510.1 L38.1,510.9 L41.8,511.9 L42.6,512.9 L41,516.6 L37.9,516.4 L34.5,512.8 L34.4,510.1 Z M13.7,496 L14.8,498.6 L15.9,500.2 L14.8,501 L12.7,497.9 L12.7,496 L13.7,496 Z M0,569.1 L3.4,566.8 L6.8,565.8 L9.4,566.1 L9.9,567.7 L11.8,568.2 L13.7,566.3 L13.4,564.7 L16.1,564.1 L19,566.7 L17.9,568.5 L13.5,569.6 L10.8,569.1 L7.1,568 L2.7,569.5 L1.1,569.8 L0,569.1 Z M48.9,564.6 L50.5,566.5 L52.6,564.9 L51.1,563.6 L48.9,564.6 Z M51.8,567.6 L52.9,565.3 L55,565.6 L54.2,567.5 L51.8,567.5 L51.8,567.6 Z M75.4,565.7 L76.9,567.5 L77.9,566.4 L77.1,564.5 L75.4,565.7 Z M84.2,553.2 L85.3,559 L88.2,559.8 L93.2,556.9 L97.6,554.3 L96,551.9 L96.5,549.5 L94.4,550.8 L91.5,550 L93.1,548.9 L95,549.7 L98.9,547.9 L99.4,546.4 L97,545.6 L97.8,543.7 L95.1,545.6 L90.4,549.2 L85.6,552.1 L84.2,553.2 Z M126.5,533.4 L128.9,531.9 L127.9,530.1 L126.1,531.1 L126.5,533.4 Z" id="AK" fill-rule="nonzero"></path>
                    <path d="M224.1,513.3 L226,509.7 L228.3,509.4 L228.6,510.2 L226.5,513.3 L224.1,513.3 Z M234.3,509.6 L240.4,512.2 L242.5,511.9 L244.1,508 L243.5,504.6 L239.3,504.1 L235.3,505.9 L234.3,509.6 Z M265,519.6 L268.7,525.1 L271.1,524.8 L272.2,524.3 L273.7,525.6 L277.4,525.4 L278.4,523.9 L275.5,522.1 L273.6,518.4 L271.5,514.8 L265.7,517.7 L265,519.6 Z M285.2,528.5 L286.5,526.6 L291.2,527.6 L291.8,527.1 L297.9,527.7 L297.6,529 L295,530.5 L290.6,530.2 L285.2,528.5 Z M290.5,533.7 L292.4,537.6 L295.5,536.5 L295.8,534.9 L294.2,532.8 L290.5,532.5 L290.5,533.7 Z M297.5,532.5 L299.8,529.6 L304.5,532 L308.9,533.1 L313.3,535.8 L313.3,537.7 L309.7,539.5 L304.9,540.5 L302.5,539 L297.5,532.5 Z M314.1,548.1 L315.7,546.8 L319.1,548.4 L326.7,552 L330.1,554.1 L331.7,556.5 L333.6,560.9 L337.6,563.5 L337.3,564.8 L333.4,568 L329.2,569.5 L327.7,568.9 L324.6,570.7 L322.2,573.9 L319.9,576.8 L318.1,576.6 L314.5,574 L314.2,569.5 L314.8,567.1 L313.2,561.4 L311.1,559.6 L310.9,557 L313.2,556 L315.3,552.9 L315.8,551.9 L314.2,550.1 L314.1,548.1 Z" id="HI" fill-rule="nonzero"></path>
                    <polygon id="AZ" points="126.1 383.7 125.8 385.2 126.3 386.2 145.2 396.9 157.3 404.5 172 413.1 188.8 423.1 201.1 425.5 226.5 428.2 232.5 388.6 239.5 335.5 243.9 304.5 219.3 300.9 158.6 289.9 158.4 291 155.8 307.5 153.7 311.3 150.9 311.1 149.7 308.5 147.1 308.1 145.9 307 144.8 307.1 142.7 308.8 142.4 315.6 142.1 317.1 141.6 329.6 140.1 332 139.7 335.3 142.5 340.3 143.6 345.8 144.3 346.9 145.4 347.8 145 350.2 143.3 351.4 139.9 353 138.3 354.8 136.7 358.4 136.2 363.3 133.2 366.2 131.3 367.1 131.2 372.9 130.6 374.5 131.1 375.3 135 375.7 134.1 378.7 132.4 381.1 128.7 381.5"></polygon>
                    <path d="M113.7,379.9 L94,377.2 L84,375.7 L83.5,373.9 L83.5,364.5 L83.2,361.3 L80.6,357.1 L79.8,354.8 L75.9,350.6 L73,345.9 L70.3,345.7 L67.1,344.9 L66.8,343.9 L68.3,343.3 L67.7,340.1 L66.2,338 L61.4,337.2 L57.5,335.1 L56.4,332.8 L53.8,328 L50.9,324.9 L48,324.9 L44.1,322.8 L39.6,321 L35.4,320.5 L33,317.8 L33.5,315.9 L35.3,308.8 L36.1,306.9 L36.1,304.5 L34.5,303.5 L34,300.6 L32.5,298 L29.1,292.2 L27.8,289.1 L26.3,284.4 L24.7,279.1 L21.5,274.7 L21,271.8 L21.8,267.9 L22.9,267.9 L25,266.3 L26.1,262.7 L25.1,260 L22.4,259.5 L20.5,256.9 L18.4,253.2 L18.2,245 L18.8,243.1 L19.4,240.8 L19.9,238.4 L14.2,232.1 L14.2,230 L14.5,229.5 L14.8,226.3 L13.5,222.3 L11.2,217.5 L8.5,213 L6.7,209.1 L7.7,205.4 L8.3,199.6 L10.1,196.5 L10.4,190 L9.3,186.4 L7.7,182.2 L5,178 L5.8,174.8 L7.3,170.6 L9.1,169.8 L9.4,168.7 L12.5,166.1 L17.7,154.3 L17.9,146.9 L19.59,142 L58.28,153.8 L83.88,160.4 L75.88,191.7 L67.21,224.8 L79.84,244 L122,306.3 L139.1,332.4 L138.7,335.5 L141.5,340.7 L142.6,346.1 L143.6,347.6 L144.3,348.2 L144.1,349.6 L142.7,350.6 L139.3,352.2 L137.4,354.3 L135.7,358.2 L135.2,362.9 L132.6,365.4 L130.3,366.5 L130.2,372.7 L129.6,374.6 L130.6,376.3 L133.6,376.6 L133.2,378.2 L131.8,380.2 L127.9,380.8 L113.7,379.9 Z M39.8,331 L41.1,332.5 L40.9,333.8 L37.7,333.7 L37.1,332.5 L36.5,331 L39.8,331 Z M41.7,331 L42.9,330.4 L46.5,332.5 L49.6,333.7 L48.7,334.3 L44.2,334.1 L42.6,332.5 L41.7,331 Z M62.4,350.8 L64.2,353.1 L65,354.1 L66.5,354.7 L67.1,353.2 L66.1,351.4 L63.4,349.4 L62.3,349.6 L62.3,350.8 L62.4,350.8 Z M61,359.5 L62.8,362.7 L64,364.6 L62.5,364.8 L61.2,363.6 C61.2,363.6 60.5,362.1 60.5,361.7 C60.5,361.3 60.5,359.5 60.5,359.5 L61,359.5 Z" id="CA" fill-rule="nonzero"></path>
                    <polygon id="CO" points="371.2 229.5 335.2 226 256.1 217.4 253.9 239.5 246.9 289.9 245 303.6 279 307.5 316.5 311.9 351.2 314.9 365.5 315.5"></polygon>
                    <polygon id="ID" points="166.3 21.63 161.5 39.04 157 59.9 153.6 76.12 153.2 85.79 154.4 90.23 157.9 92.89 157.7 96.8 153.8 101.2 149.3 107.8 148.4 110.7 147.2 111.8 145.4 112.6 141.1 117.9 140.7 121 140.3 122.1 140.9 123.1 143.5 123 144.6 125.3 142.2 131.1 141 135.3 132.2 170.6 152.9 175.1 192.4 183 227.2 189.1 232.1 159.9 235.9 135.8 233.2 133.4 232.8 130.8 232 129.7 229.9 130.7 229.2 133.3 226 133.8 222.1 132.2 218.3 132.3 215.8 133 212.4 131.5 210 131.7 207.6 133.7 205.6 132.6 204.9 128.6 205.6 125.7 203.1 122.8 199.8 120.2 197.1 107.1 197 102.4 196.7 102.3 196.5 102.7 191.4 106.2 189.7 106 186.8 102.6 186.6 99.5 193.6 82.37 193.2 80.43 189.8 79.28 189.2 78.1 186.6 74.64 182 64.41 178.8 62.88 176.8 57.93 178.1 53.3 174.9 45.72 179.3 24.2"></polygon>
                    <polygon id="MT" points="352.1 64.77 346.8 121.9 345.5 137.1 286.4 130.5 237.4 123.4 236 134.6 234.1 132.9 233.7 130.4 232.4 128.5 229.1 130 228.4 132.5 226.1 132.8 222.3 131.2 218.2 131.3 215.8 132 212.6 130.5 209.6 130.7 207.5 132.6 206.6 132 205.9 128.6 206.6 125.4 203.9 122.2 200.6 119.7 198.1 107.1 198 101.8 196.4 101 195.8 102 191.3 105.2 190.1 105.1 187.8 102.3 187.6 99.5 194.6 82.35 194 79.68 190.5 78.56 190.1 77.65 187.4 74.15 182.8 63.74 179.6 62.16 177.8 57.9 179.1 53.27 175.9 45.7 180.3 24.41 213 31.3 231.4 34.7 263.7 40 293 44 322.2 47.5 353 50.57"></polygon>
                    <polygon id="NM" points="261.2 423.4 244.5 420.8 243.3 430.4 227.5 428.4 233.5 388.7 240.5 335.5 244.9 304.6 278.9 308.5 316.3 312.9 348.3 315.7 348 326.5 346.6 326.4 339.2 424.1 310.8 422.3 272.7 418.6 273.4 424.9"></polygon>
                    <polygon id="NV" points="114.1 167.6 152.8 176.1 178.8 181.3 168.2 234.4 162.8 264.2 159.5 279.7 157.4 290.8 154.8 307.2 153.1 310.3 151.5 310.2 150.3 307.6 147.5 307.1 146.2 306 144.4 306.1 143.5 306.9 141.7 308.2 141.4 315.5 141.1 317 140.6 329.4 139.5 331.2 122.8 305.7 80.7 243.6 68.27 224.6 76.82 192 84.83 160.7"></polygon>
                    <polygon id="OR" points="58.44 152.9 86.68 160.1 114.2 166.6 131.2 170.3 140 135.2 141.2 130.8 143.6 125.3 142.9 124 140.4 124.1 139.1 122.3 139.7 120.8 140.1 117.5 144.8 111.8 146.7 110.9 147.6 110.1 148.3 107.4 149.1 106.3 153 100.6 156.7 96.6 156.9 93.34 153.5 90.85 152.3 86.3 139.2 82.47 123.9 79 109.1 79.37 108 78.06 102.9 79.9 98.4 79.42 96 77.84 94.7 78.38 90.02 78.09 88.06 76.66 83.22 74.89 82.12 74.82 77.67 73.55 75.91 75.07 69.65 74.83 64.34 70.98 64.55 61.7 62.5 58.2 58.4 57.6 57.7 55.1 55.3 54.6 49.5 56.7 47.2 63.2 44 73.2 40.8 79.7 35.8 93.8 29.3 107.4 21.2 120 19.3 122.9 18.5 131.5 17.2 137.5 19.91 141"></polygon>
                    <polygon id="UT" points="219.4 299.9 244 303.5 245.9 289.8 252.9 239.3 255.2 217.3 223 213.8 225.2 200.7 227 190.1 192.3 184 179.8 181.5 169.2 234.4 163.8 264.4 160.5 279.8 158.8 289"></polygon>
                    <path d="M65.5,61.7 L63.2,57.4 L59.1,56.7 L58.7,54.3 L56.2,53.7 L53.3,53.2 L51.5,54.2 L49.2,51.3 L49.5,48.4 L52.2,48.1 L53.8,44.1 L51.2,43 L51.4,39.3 L55.8,38.7 L53.1,36 L51.6,28.9 L52.2,26 L52.2,18.1 L50.4,14.9 L52.7,5.5 L54.8,6 L57.2,8.9 L59.9,11.5 L63.1,13.4 L67.6,15.5 L70.7,16.1 L73.6,17.6 L77,18.6 L79.3,18.4 L79.3,16 L80.6,14.9 L82.7,13.6 L83,14.7 L83.3,16.5 L81,17 L80.7,19.1 L82.5,20.6 L83.6,23 L84.2,24.9 L85.7,24.7 L85.9,23.4 L84.9,22.1 L84.4,18.9 L85.2,17.1 L84.6,15.6 L84.6,13 L86.4,9.4 L85.3,6.8 L82.9,2 L83.2,1.2 L84.6,0.4 L89,1.9 L98.7,4.6 L107.3,6.5 L127.3,12.2 L150.3,17.9 L165.3,21.39 L160.5,38.95 L156,59.78 L152.6,76.03 L152.2,85.21 L139.3,81.49 L124,78.02 L109.5,78.34 L108.4,76.81 L102.7,78.9 L98.8,78.48 L96.2,76.69 L94.5,77.34 L90.35,77.09 L88.63,75.77 L83.47,73.95 L82.29,73.79 L77.49,72.4 L75.57,74.05 L69.92,73.8 L65.31,70.45 L65.5,61.7 Z M75.1,6.3 L77.1,6.1 L77.6,7.5 L79.1,5.9 L81.4,5.9 L82.2,7.4 L80.7,9.1 L81.3,9.9 L80.6,11.9 L79.2,12.3 C79.2,12.3 78.3,12.4 78.3,12.1 C78.3,11.8 79.8,9.5 79.8,9.5 L78.1,8.9 L77.8,10.4 L77.1,11 L75.6,8.7 L75.1,6.3 Z" id="WA" fill-rule="nonzero"></path>
                    <polygon id="WY" points="344 155.9 342.5 181.3 338.1 225.3 335.4 225 252.1 215.9 224.2 212.9 226.2 200.9 233.1 159.9 236.9 135.7 238.2 124.5 286.4 131.5 345.5 138"></polygon>
                    <path d="M575.9,554.6 C575.9,554.6 576,554.6 576,554.6 C576.4,554.6 576.8,554.7 577.3,554.8 C577.9,554.9 578.1,555.6 578.6,555.7 C579.1,555.9 579.2,556.3 579.6,556.6 C579.7,556.7 579.8,556.9 579.9,556.9 C580.6,557.5 579.1,558.1 580.8,557.7 C580.8,557.7 582.1,558.2 582.3,558.2 C582.9,558.3 583.6,558.3 584.1,558.4 C584.7,558.5 583.5,559.3 583.2,559.8 C582.9,560.2 583.1,560.9 583.1,561.4 C583.1,562 583,562.4 582.8,562.8 C582.7,563.3 582.3,563.6 582,563.8 C581.7,564.1 581.1,564.3 580.6,564.4 C580,564.5 580,564.9 579.1,564.9 C578.7,564.9 578.6,565.9 578.5,566.2 C578.1,566.8 577.4,566.2 577.1,567 C576.9,567.5 576.6,567.5 576.2,567.8 C575.8,568.1 575.3,568.3 574.9,568.4 C574.3,568.7 573.9,568.9 573.1,568.9 C572.8,568.9 572.2,569.8 572.1,569.9 C571.7,570.3 571.6,570.6 571.2,570.8 C571,570.9 570,570.7 569.6,570.8 C569.5,570.8 569.6,572.2 569.6,572.4 C569.6,572.6 568.8,573 568.7,573.1 C568.6,573.3 569,574.3 569,574.7 C569,575.2 569,575.8 568.9,576.2 C568.8,576.7 568.8,577.2 568.1,577.2 C567.4,577.2 568.5,578 568.6,578.1 C568.8,578.3 568.8,579.2 568.9,579.5 C569.1,580.2 568.5,580.4 568.5,581 C568.5,581 567.5,581.6 567.4,581.6 C567,581.8 566.7,582.2 566.4,582.4 C565.9,582.8 565.8,583 565.4,583.3 C565,583.6 564.4,583.6 563.8,583.7 C563.2,583.8 562.7,583.9 562,583.9 C561.6,583.9 561.1,583.3 560.9,583.1 C560.4,582.6 560.2,583.3 559.9,582.4 C559.9,582.3 559.5,581.6 559.4,581.2 C559.2,580.6 559.3,580.3 559.1,579.8 C559,579.4 558.6,579.2 558.5,578.8 C558.3,578.3 558.4,577.7 558.1,577.2 C557.8,576.7 557.2,576.9 557.2,576 C557.2,575.3 557.5,575.2 557.8,574.7 C558,574.4 558.2,573.8 558.3,573.4 C558.4,573 558.9,572.5 559.1,572.1 C559.1,572 559,571.7 559,571.5 L555.9,569.1 C556.5,568.2 556.6,568.5 557.5,569.1 C558,569.4 558.4,569.4 559,569.3 C559.5,569.2 559.4,568 559.4,569 C559.4,569.7 559.2,568.9 559.9,568.7 C561.1,568.3 561,568.4 560,569 C559.8,569.1 561.1,569.5 560.8,568.5 C560.6,568 559.8,568.5 560,567.7 C560.1,567.4 561.9,567.8 562,567.8 C562.5,567.9 562.9,567.2 563.5,567.2 C564,567.2 564.7,567 565.4,567 C565.9,567 566.8,566.8 567.2,566.7 C568,566.5 568.3,566.5 568.8,566.2 C569.2,566 568.6,564.8 568.5,564.7 C568.3,564.2 570.2,564.7 570.3,564.7 C571.1,564.8 571.2,564 571.3,563.7 C571.5,563 571.6,562.8 572.3,562.5 C573.1,562.2 573.3,561.7 573.3,561 C573.3,560 573.7,559.7 573.9,558.9 C574,558.3 573.8,558.1 574.3,557.5 C574.9,556.9 575.2,556.7 575.6,556.1 C575.9,555.6 575.9,555.2 575.9,554.6 C575.9,554 576.1,554 575.5,553.6" id="GU"></path>
                    <path d="M636.5,552.7 L637.6,552 L638.5,551.4 L636.5,552.7 Z M636.6,558.3 L638.6,560.3 L638.4,558.4 L636.6,558.3 Z M641.2,564.2 L642.5,567.5 L643.8,564.2 L641.2,564.2 Z M646.4,570.8 L646.4,574.1 L648.4,574.8 L649.1,571.5 L646.4,570.8 Z M655.1,579.2 L653.4,582.3 L654,584.2 L656.9,585.4 L658.1,583.5 L658.1,580.4 L655.1,579.2 Z" id="MP" fill-rule="nonzero"></path>
                    <path d="M600.5,576.5 C600.7,576.4 601,575.9 601.2,575.6 C601.5,575.1 600.9,575 601.6,574.9 C601.9,574.8 602.3,575.3 602.4,575.4 C602.6,575.6 602.8,575.8 602.9,575.3 C603,575.1 603.6,574.4 603.8,574.2 C604.1,574 604.4,574 604.7,573.7 C604.9,573.5 605.2,573.3 605.4,573.1 C605.7,572.8 605.8,572.7 606,572.4 C606.2,572.1 606.4,571.9 606.6,571.7 C607,571.3 605.6,571.5 605,571.5 C604.8,571.5 605.3,570.9 605.3,570.7 C605.4,570.3 605.5,570.3 605.9,570.2 C606.5,570.1 606.5,570.3 606.5,570.8 C606.5,571.1 607,570.4 607,570.1 C607.1,569.7 607.4,569.5 607.7,569.4 C608,569.2 608.4,569.2 608.6,569 C609,568.8 609,568.8 608.9,568.5 C608.8,568.3 609,567.9 608.9,567.6 C608.8,567.1 609.4,567.5 609.1,567 C609,566.8 608.3,566.6 608.2,566.6 C607.8,566.4 607.5,566.5 607.1,566.3 C606.7,566.1 606.8,566 607,565.7 C607.1,565.6 608,565.7 608.1,565.8 C608.5,565.9 608.9,565.9 609.3,565.9 C609.8,565.9 610.1,565.9 610.5,566.1 C610.8,566.2 610.7,566.5 610.7,567 C610.7,567.5 610.6,567.7 611,567.8 C611.5,567.9 611.7,567.8 612,567.6 C612.1,567.5 613.1,567.4 613.2,567.4 C613.6,567.3 613.9,567.2 614.1,567 C614.4,566.7 614.8,566.5 615,566.4 C615.3,566.1 615.6,566.1 615.9,566 C616.4,565.9 616.6,566.2 616.8,566.4 C617,566.6 616.9,567.1 616.9,567.4 C616.9,567.6 618.3,567.1 618.4,567 C618.8,566.8 619.1,566.9 619.3,566.6 C619.7,566.3 619.4,566 620,566.2 C620.4,566.3 620.7,566.1 621.1,566 C621.5,565.9 621.4,565.7 621.4,565.2 C621.4,564.8 621.4,564.5 621.4,564.1 C621.4,563.6 621.1,563.7 620.7,563.6 C620.4,563.5 619.9,563.7 619.8,563.9 C619.5,564.2 619.4,564.1 619.3,564.5 C619.2,564.9 619.1,565 618.8,565.1 C618.6,565.2 618.3,564.7 617.9,564.7 C617.5,564.7 617.3,564.5 617,564.3 C616.7,564.1 616.4,564.1 615.9,564.1 C615.7,564.1 615.5,564.5 615.1,564.6 C614.8,564.7 614.2,564.6 614.1,564.6 C613.8,564.6 614.5,563.8 614.5,563.8 C614.9,563.6 615.5,563.8 614.6,563.5 C614.3,563.4 613.8,563.6 613.4,563.6 C612.8,563.6 612.8,563.7 612.8,564.2 C612.8,564.7 612.5,564.6 612,564.6 C611.7,564.6 611.8,564 611.5,563.9 C611,563.8 611.1,564.2 610.9,563.5 C610.8,563.2 610.3,563.5 610,563.7 C609.8,563.9 609.3,563.6 609.8,563.5 C610.3,563.4 609.6,562.9 609.3,562.9 C608.8,562.9 608.9,563.2 608.6,563.5 C608.3,563.8 608,563.6 607.8,564.1 C607.7,564.3 607.2,564.4 606.9,564.5 C606.5,564.7 606.2,564.8 605.9,565 C605.4,565.2 604.8,565.1 604.3,565.1 C604,565.1 604.5,565.6 604.5,565.9 C604.5,566.3 604.5,566.6 604.5,567 C604.5,567.6 604.4,567.4 603.9,567.6 C603.6,567.7 603.4,567.3 603,567.3 C602.5,567.3 602.4,567.5 602.4,567.9 C602.4,568.4 602,568.1 601.6,568.3 C601.2,568.5 600.8,568.6 600.8,568.1 C600.8,567.7 600.4,567.7 600,567.6 C599.5,567.5 599.5,567.9 599.1,568.1 C598.7,568.3 598.3,568.2 597.9,568.4 C597.8,568.4 597.6,567.9 597.4,567.8 C597,567.7 596.4,567.9 596.1,567.9 C595.6,568 595.9,568.3 595.3,568.3 C594.9,568.3 594.5,568.4 594.3,568.5 C594.1,568.6 594.7,568.9 593.8,568.9 C593.2,568.9 593.1,569 592.9,569.3 C592.7,569.7 592.9,569.9 592.2,570 C592,570 591.6,570.5 591.6,570.6 C591.5,570.9 590.6,570.9 591.3,571 C591.7,571.1 592,571.1 592.5,571.2 C592.9,571.3 593.3,571.4 593.6,571.6 C593.9,571.7 594.5,571.6 594.7,571.5 C595.1,571.4 595.1,571.3 595.6,571.5 C595.9,571.6 595.9,572 596.1,572.1 C596.4,572.2 597.2,572.2 597.5,572.2 C597.6,572.2 597.6,573.1 597.7,573.2 C597.8,573.4 597.9,573.8 597.9,574.1 C597.9,574.2 598.6,574.5 598.8,574.6 C599,574.8 599.3,574.9 599.6,575 C600,575.1 600.2,575.1 600.5,575.3 C600.7,575.8 600.4,576.2 600.5,576.5 Z" id="AS"></path>
                </g>
                <g id="South" transform="translate(273.000000, 218.000000)" fill="#CCEBC5">
                    <polygon id="AL" points="346.5 242.4 347.1 242.6 348.4 239.9 349.9 235.5 352.2 236.1 355.3 242.1 355.3 243.1 352.6 245 355.3 245.3 360.5 242.8 360.2 235.2 357.7 233.4 355.7 231.4 356.1 227.4 366.6 225.9 392.3 223 399 222.4 404.6 222.5 404.1 220.3 402.6 219.5 401.7 218.4 402.7 215.8 402.3 210.6 400.7 206.1 401.5 201 403.2 196.2 403 194.5 401.2 193.8 400.7 190.2 398 186.8 396 180.3 394.6 173.6 392.8 168.6 389 152.6 385.5 144.7 384.7 139.1 384.8 136.9 375.8 137.7 352.4 139.9 340.2 140.7 340 147.1 340.2 163.8 339.5 194.8 339.2 208.9 342 227.7 343.6 242.4"></polygon>
                    <polygon id="AR" points="305.3 122.1 298.9 121.4 299.8 118.3 302.9 115.7 303.5 113.4 301.7 110.5 269.8 111.7 246.5 112.4 222.9 112.7 224.4 119.6 224.5 128.1 225.9 139 226.2 177.2 228.3 178.8 231.3 177.6 234.2 178.8 234.6 188.9 259.8 188.7 286.6 187.9 287.5 186 287.2 182.2 285.5 179.1 287 177.7 285.6 175.5 286.3 173.1 287.4 167.2 290.1 164.9 289.3 162.7 293.3 157.1 295.8 156 295.7 154.3 295.2 152.6 298.1 146.8 300.6 145.7 300.8 142.4 302.9 141 303.8 136.9 302.4 132.9 306.6 130.5 306.9 128.4 308.1 124.2 309 121.1"></polygon>
                    <path d="M468.2,221.2 L463,220.5 L462.3,221.3 L463.8,225.7 L463.4,230.9 L459.3,229.9 L459.1,227.1 L455,227.1 L449.7,227.8 L417.3,229.7 L409.1,229.4 L407.4,227.7 L404.9,223.5 L399,223.5 L392.4,224 L357,228.2 L356.7,231 L358.3,232.6 L361.2,234.6 L361.5,243 L364.8,242.4 L370.8,240.3 L376.8,239.8 L381.2,239.2 L388.8,241 L396.9,244.9 L398.5,246.4 L401.4,247.5 L403,249.4 L403.3,252.1 L406.5,250.8 L410.4,250.8 L414,248.9 L417.7,245.3 L420.8,245.5 L421.3,244.4 L420.5,243.4 L420.7,241.5 L424.7,240.7 L427.3,240.7 L430.2,242.2 L434.4,243.7 L436.8,247.4 L439.5,248.4 L440.6,251.8 L444,253.4 L445.6,256 L447.5,256.6 L452.7,257.9 L454,261 L457,264.7 L457,274.2 L455.5,278.9 L455.8,281.6 L457.1,286.4 L458.9,290.4 L459.7,289.9 L461.2,285.4 L458.6,284.4 L458.3,283.8 L459.9,283.2 L464.4,284.2 L464.6,285.8 L461.4,291.3 L459.3,293.7 L462.9,297.4 L465.5,300.5 L468.4,305.8 L471.3,309.7 L473.4,314.7 L475.2,315 L476.8,312.9 L478.6,314 L481.2,318 L481.8,321.6 L484.9,326 L485.7,324.7 L489.6,325 L493.2,327.3 L496.6,332.5 L497.4,335.9 L497.7,338.8 L498.8,339.8 L500.1,340.3 L502.5,339.3 L504,337.7 L507.9,337.5 L511,336 L513.7,332.8 L513.2,330.9 L512.9,328.5 L513.5,326.6 L513.2,324.7 L515.6,323.4 L515.9,320 L515.3,318.2 L514.8,306.2 L513.5,298.6 L509,290.4 L505.4,284.6 L502.8,279.3 L499.9,276.4 L497,269 L497.7,267.6 L498.8,266.3 L497.2,263.4 L493.2,259.7 L488.4,254.2 L484.7,247.9 L479.4,238.5 L475.7,228.8 L473.4,221.5 L468.2,221.2 Z M485.9,353.9 L488.3,353.3 L489.6,353.1 L491.1,350.8 L493.4,349.2 L494.7,349.7 L496.4,350 L496.8,351.1 L493.3,352.3 L489.1,353.8 L486.8,355 L485.9,353.9 Z M499.4,348.9 L500.6,350 L503.3,347.9 L508.6,343.7 L512.3,339.8 L514.8,333.2 L515.8,331.5 L516,328.1 L515.3,328.6 L514.3,331.4 L512.8,336 L509.6,341.3 L505.2,345.5 L501.8,347.4 L499.4,348.9 Z" id="FL" fill-rule="nonzero"></path>
                    <polygon id="GA" points="468.2 220.2 462.6 219.5 461.2 221.1 462.8 225.8 462.5 229.7 460.3 229.1 460.1 226.1 454.9 226.1 449.6 226.8 417.3 228.7 409.6 228.4 408.2 227.2 405.7 222.9 404.9 219.6 403.3 218.7 402.8 218.2 403.7 216 403.3 210.5 401.7 206 402.5 201.1 404.2 196.3 404 193.8 402.1 193.1 401.7 189.9 398.9 186.4 397 180.2 395.5 173.2 393.8 168.4 390 152.4 386.5 144.4 385.7 139.1 385.8 136.8 389.1 136.5 402.7 134.9 421.3 132.9 427.6 131.8 428.1 133.2 425.9 134.1 425 136.3 425.4 138.3 426.8 139.9 431.1 142.6 434.3 142.5 437.5 147.2 438.1 148.8 440.4 151.6 440.9 153.3 445.6 155.1 448.6 157.3 450.9 160.3 453.2 161.6 455.2 163.4 456.6 166.1 458.7 168 462.8 169.8 465.5 175.8 467.2 180.9 470 181.6 472.1 183.5 474.1 189.2 477 190.8 478.7 190 479.1 191.2 475.8 197.4 476.3 200 474.8 204.2 472.5 214.2 473.3 220.5"></polygon>
                    <polygon id="LA" points="244.9 261.9 253 261.6 263.3 265.2 269.8 266.3 273.5 264.8 276.7 265.9 279.9 266.9 280.7 264.8 277.5 263.7 274.9 264.2 272.2 262.6 273 261.1 276.1 260.1 277.9 261.6 279.7 260.6 282.9 261.2 284.4 263.6 284.7 265.9 289.2 266.2 291 268 290.2 269.6 288.9 270.4 290.5 272 298.9 275.6 302.5 274.3 303.5 271.9 306.1 271.3 307.9 269.8 309.2 270.8 310 273.7 307.7 274.5 308.3 275.1 311.7 273.8 314 270.4 314.8 269.9 312.7 269.6 313.5 268 313.3 266.5 315.4 266 316.5 264.7 317.1 265.5 317.7 268.6 321.9 269.2 325.9 271.1 326.9 272.6 329.8 272.6 330.9 273.6 333.2 270.5 333.2 269 331.9 269 328.5 266.3 322.7 265.5 319.5 263.2 320.6 260.5 322.9 260.8 323.1 260.2 321.3 259.2 321.3 258.7 324.5 258.7 326.3 255.6 325 253.7 324.7 251 323.2 251.2 321.3 253.3 320.7 255.9 317.6 255.3 316.6 253.5 318.4 251.6 320.3 249.9 318.1 243.4 314.7 240 315.7 232.7 315.5 232.2 314.2 232.4 281.1 233.8 280.3 231.4 281.1 222.9 289.7 208.1 288.8 205.5 290.2 205.1 290.6 203.1 288.4 201.1 288.5 199.2 286.5 194.7 286.1 189.6 286.2 188.9 259.8 189.7 234.6 189.8 235 199.5 235.7 209 236.2 212.7 238.8 217.2 239.7 221.6 244 227.6 244.3 230.7 244.9 231.5 244.2 239.8 241.4 244.4 242.6 246.8 242.1 249.4 241.3 256.7 240 259.7 240.2 263.4"></polygon>
                    <polygon id="MS" points="322.3 248.5 324.9 244.3 326.7 245.1 333.5 243.2 335.6 243.5 337.1 244.3 342.3 244.3 342.7 242.7 341 227.9 338.2 208.9 339.2 163.8 339 147.1 339.2 140.8 334.4 141.1 314.8 142.7 301.8 143.1 301.6 146.3 298.8 147.6 296.2 152.7 296.7 154.3 296.8 156.7 293.9 157.8 290.4 162.9 291.2 165.2 288.2 167.7 287.2 173.4 286.6 175.3 288.2 177.8 286.7 179.2 288.2 182 288.5 186.2 287.3 188.7 287.1 189.6 287.5 194.6 289.5 199.1 289.4 200.8 291.7 202.8 291 205.9 290.1 206.2 290.7 208.1 282.1 223.1 281.3 231.3 281.8 232.8 306 232.1 314.2 231.4 316.1 231.1 316.7 232.5 315.7 239.6 319 242.9 321.2 249.3"></polygon>
                    <path d="M504.7,133.7 L492,126 L488.9,125.2 L472.3,127.3 L470.7,124.3 L467.9,122.1 L451.2,122.6 L443.8,123.5 L434.6,128 L427.8,130.7 L421.3,131.9 L407.9,133.3 L408,129.2 L409.7,127.9 L412.4,127.2 L413.1,123.4 L417,120.9 L420.9,119.4 L425.4,115.7 L429.8,113.4 L430.5,110.2 L434.6,106.4 L435.3,107.4 L437.8,107.6 L440.2,104 L441.9,103.6 L444.5,103.9 L446.3,99.9 L448.8,97.5 L449.3,95.7 L449.4,92.2 L453.8,92.3 L492.3,86.7 L549.8,74.4 L551.8,79.2 L555.4,85.7 L557.8,88.1 L558.4,90.4 L556,90.6 L556.8,91.2 L556.5,95.4 L553.9,96.7 L553.3,98.8 L552,101.7 L548.3,103.3 L545.9,103 L544.4,102.8 L542.8,101.5 L543.1,102.8 L543.1,103.8 L545,103.8 L545.8,105.1 L543.9,111.4 L548.1,111.4 L548.7,113 L551,110.7 L552.3,110.2 L550.4,113.8 L547.3,118.6 L546,118.6 L544.9,118.1 L542.2,118.7 L537,121.1 L530.5,126.4 L527.1,131.1 L525.2,137.6 L524.7,140 L520,140.5 L514.9,142 L504.7,133.7 Z M554,107.5 L556.6,105 L559.8,102.4 L561.3,101.8 L561.5,99.8 L560.9,93.7 L559.4,91.4 L558.8,89.5 L559.5,89.3 L562.2,94.8 L562.6,99.2 L562.4,102.6 L559,104.1 L556.2,106.5 L555.1,107.7 L554,107.5 Z" id="NC" fill-rule="nonzero"></path>
                    <polygon id="OK" points="129.9 110.9 128.1 135.2 127.2 153.2 127.4 154.8 131.4 158.4 133.1 159.3 134 159.3 134.9 157.2 136.4 159.1 138 159.2 138.3 159 138.5 157.9 141.3 159.3 140.9 162.8 144.7 163.3 147.2 164.3 151.4 164.9 153.7 166.5 156.2 164.8 159.7 165.5 161.9 168.6 163.1 168.7 163.1 171 165.2 171.7 167.7 169.6 169.5 170.2 172.2 170.3 172.9 172.6 177.3 174.4 179 174.1 180.9 169.9 182.2 169.9 183.3 172 187.5 172.8 190.9 174.1 193.9 174.9 195.5 174.2 196.2 171.5 200.7 171.5 202.6 172.4 205.3 170.5 206.7 170.5 207.3 171.9 210.9 171.9 212.9 170.1 215.2 170.7 216.9 172.9 219.9 174.6 223.3 175.5 225.2 176.7 224.9 139.1 223.5 128.2 223.4 119.6 221.9 113 221.3 106.2 221.4 101.9 208.8 102.2 162.5 101.7 117.8 99.6 76.3 97.8 75.9 108.5"></polygon>
                    <polygon id="SC" points="477 189.6 474.9 188.6 473 183 470.5 180.7 468 180.2 466.5 175.6 463.5 169.1 459.3 167.3 457.4 165.5 456.2 162.9 453.8 160.9 451.5 159.6 449.3 156.7 446.1 154.3 441.7 152.6 441.3 151.2 439 148.4 438.5 146.9 434.7 141.5 431.3 141.6 427.4 139.1 426.2 137.9 426 136.5 426.6 134.9 429.3 133.6 428.5 131.6 434.9 128.9 444.1 124.4 451.2 123.5 467.6 123 469.9 124.9 471.7 128.4 476.3 127.6 488.9 126.1 491.6 126.9 504.1 134.3 514.2 142.6 508.9 148 506.3 154.1 505.8 160.4 504.2 161.2 503.1 163.9 500.7 164.5 498.6 168.1 495.9 170.8 493.6 174.2 492 175 488.4 178.4 485.5 178.6 486.5 181.8 481.5 187.1 479.2 188.7"></polygon>
                    <polygon id="TN" points="388.8 135.6 375.7 136.8 352.4 139 314.8 141.7 303 142.1 303.9 141.5 304.8 137 303.6 133.4 307.5 131.1 307.9 128.6 309.1 124.3 312.1 114.8 312.6 109.2 312.9 109 325.2 108.8 338.8 108 338.9 104.1 342.4 104 372.8 100.7 426.8 95.5 437.1 94 444.7 93.8 447.1 91.9 448.4 92.2 448.3 95.5 447.9 97.1 445.5 99.3 443.9 102.9 441.9 102.5 439.5 103.4 437.3 106.7 435.9 106.5 435.1 105.3 434 105.7 429.7 109.7 428.9 112.8 424.7 115 420.4 118.6 416.6 120.1 412.2 122.9 411.6 126.5 409.1 127 407.1 128.7 406.9 133.5"></polygon>
                    <path d="M0.8,201.6 L37.8,205.2 L67.1,207.1 L74.5,109.4 L128.9,111.8 L127.2,135.1 L126.2,153.1 L126.4,155.1 L130.8,159.2 L132.8,160.3 L134.6,160.3 L135.1,159.1 L135.8,160 L138.2,160.2 L139.3,159.6 L139.3,159.4 L140.3,159.9 L139.9,163.6 L144.4,164.3 L146.8,165.2 L151,165.9 L153.6,167.7 L156.4,165.8 L159.1,166.4 L161.3,169.5 L162.1,169.6 L162.1,171.7 L165.4,172.8 L167.9,170.7 L169.4,171.2 L171.5,171.3 L172.1,173.4 L177.3,175.4 L179.6,174.9 L181.5,170.9 L181.6,170.9 L182.7,172.8 L187.3,173.7 L190.7,175 L193.9,176 L196.3,174.8 L197,172.5 L200.6,172.5 L202.7,173.5 L205.7,171.5 L206.1,171.5 L206.6,172.9 L211.3,172.9 L213.2,171.1 L214.5,171.5 L216.2,173.6 L219.5,175.5 L222.9,176.5 L225.4,177.9 L228.1,179.9 L231.2,178.7 L233.3,179.5 L234,199.5 L234.7,209 L235.3,213.1 L237.9,217.5 L238.8,222 L243,227.9 L243.3,231 L243.9,231.8 L243.2,239.5 L240.3,244.3 L241.6,246.9 L241.1,249.3 L240.3,256.5 L239,259.5 L239.3,263.7 L233.7,265.3 L223.8,269.8 L222.8,271.7 L220.2,273.6 L218.1,275.1 L216.8,275.9 L211.1,281.2 L208.4,283.3 L203.1,286.5 L197.4,288.9 L191.1,292.3 L189.3,293.8 L183.5,297.4 L180.1,298 L176.2,303.5 L172.2,303.8 L171.2,305.7 L173.5,307.6 L172,313.1 L170.7,317.6 L169.6,321.5 L168.8,326 L169.6,328.4 L171.4,335.4 L172.4,341.5 L174.2,344.2 L173.2,345.7 L170.1,347.6 L164.4,343.7 L158.9,342.6 L157.6,343.1 L154.4,342.5 L150.2,339.4 L145,338.3 L137.4,334.9 L135.3,331 L134,324.5 L130.8,322.6 L130.2,320.3 L130.8,319.7 L131.1,316.3 L129.8,315.7 L129.2,314.7 L130.5,310.3 L128.9,308 L125.7,306.7 L122.3,302.3 L118.7,295.7 L114.5,293.1 L114.7,291.2 L109.4,278.9 L108.6,274.7 L106.8,272.8 L106.6,271.3 L100.6,266 L98,262.9 L98,261.8 L95.4,259.7 L88.6,258.6 L81.2,258 L78.1,255.7 L73.6,257.5 L70,259 L67.7,262.2 L66.7,265.9 L62.3,272 L59.9,274.4 L57.3,273.4 L55.5,272.3 L53.6,271.7 L49.7,269.4 L49.7,268.8 L47.9,266.9 L42.7,264.8 L35.3,257 L33,252.3 L33,244.2 L29.8,237.7 L29.3,235 L27.7,234 L26.6,231.9 L21.6,229.8 L20.3,228.2 L13.2,220.3 L11.9,217.1 L7.2,214.8 L5.7,210.4 L3.1,207.5 L1.4,207 L0.8,201.6 Z M175.2,343.3 L174.6,336.2 L171.9,329 L171.3,322 L172.8,313.8 L176.1,306.9 L179.6,301.5 L182.8,297.9 L183.4,298.1 L178.6,304.7 L174.2,311.2 L172.2,317.8 L171.9,323 L172.8,329.1 L175.4,336.3 L175.9,341.5 L176.1,343 L175.2,343.3 Z" id="TX" fill-rule="nonzero"></path>
                    <path d="M552.7,41.2 L552.5,44 L549.6,47.8 L549.2,52.4 L549.7,55.8 L547.9,60.8 L545.7,62.7 L544.2,58.1 L544.6,52.7 L546.2,48.5 L546.9,45.2 L546.8,43.5 L552.7,41.2 Z M492.4,85.8 L453.8,91.4 L449,91.3 L446.8,91 L444.3,92.9 L437,93 L426.7,94.6 L420,95.2 L424.1,92.6 L428.2,90.3 L428.2,88.2 L433.9,80.9 L438,77.2 L440.2,74.7 L443.8,79 L447.6,79.9 L450.3,78.9 L452.3,77.4 L454.7,78.6 L459.3,77.3 L461,72.9 L463.4,73.6 L466.6,71.3 L468.2,71.7 L471,68.5 L471.2,65.8 L470.4,64.6 L475.2,54.1 L477,48.9 L477.5,44.2 L478.2,44 L479.3,45.7 L480.8,46.9 L484.7,46.7 L486.4,38.6 L489.4,38 L490.2,35.4 L493,33.2 L494.1,31.1 L495.9,26.8 L496,22.2 L499.6,23.6 L506.2,26.7 L506.5,21.5 L509.9,22.7 L509.3,25.6 L517.9,28.7 L519.3,30.5 L518.5,33.8 L517.2,35.1 L516.7,36.8 L517.2,39.2 L519.2,40.5 L523.1,41.9 L526,42.9 L530.9,43.8 L533.1,45.9 L536.3,46.3 L537.2,47.5 L536.8,52.2 L538.2,53.3 L537.7,55.2 L538.9,56 L538.7,57.4 L536,57.3 L536.1,58.9 L538.4,60.4 L538.5,61.8 L540.3,63.6 L540.8,66.1 L538.2,67.5 L539.8,69 L545.6,67.3 L549.3,73.5 L492.4,85.8 Z" id="VA" fill-rule="nonzero"></path>
                    <polygon id="WV" points="476.9 30.3 482.7 24.3 485.3 23.5 486.9 22 488.4 19.8 489.5 20.1 492.6 19.9 497.2 16.3 498.7 15.8 500 16.8 502.6 18 505.6 21 505.2 25.3 499.8 22.7 495 20.9 494.9 26.8 492.3 32.5 489.4 34.9 488.6 37.2 485.6 37.7 483.9 45.8 481.1 46 480 45 478.8 43 476.6 43.5 476.1 48.6 474.3 53.7 469.3 64.7 470.2 66.1 470.1 68.1 467.9 70.6 466.3 70.2 463.2 72.5 460.4 71.7 458.6 76.6 454.8 77.6 452.3 76.3 449.8 78.2 447.5 78.9 444.3 78.1 440.5 73.6 437 71.4 434.5 68.9 431.6 65.2 431.1 62.9 428.3 61.2 427.7 59.9 427.5 54.3 427.8 54.4 430.2 54.2 432 53.2 432 51 433.7 49.5 433.8 44.3 434.7 40.7 435.8 40 436.2 40.3 437.2 41.4 438.9 41.9 440 40.6 439 37.5 439 35.9 442.1 31.3 443.3 30 445.3 30.5 447.9 28.7 451 25.3 453.4 21.2 453.6 15.6 454.1 10.8 454.1 5.9 453 2.9 453.9 1.6 454.7 0.9 459 20.2 463.3 19.4 474.5 18.1"></polygon>
                    <path d="M287.2,306.2 L288.1,304.1 L289.8,304.5 L291.5,305.8 L298.8,306.7 L306.1,306.3 L309.1,306.3 L311.7,307.2 L313.4,305.9 L315.5,305.9 L320.6,306.3 L325.7,307.6 L327.4,309.3 L330.4,309.3 L330.8,311.9 L330.4,313.6 L327,314 L324.9,314.9 L324,317 L322.7,319.1 L320.1,320.4 L315,320.4 L310.7,320.4 L308.6,319.5 L304.3,319.5 L302.2,318.6 L298.8,319.5 L294.5,319.5 L292.4,317.8 L289.8,318.7 L286.4,319.1 L286,317 L286.9,315.7 L287.8,313.6 L286.9,311 L283.5,308.4 L284.8,307.5 L287.2,306.2 Z M333.9,317.8 L332,318.4 L335.7,319.6 L340.7,318.4 L341.9,316.5 L338.8,317.1 L333.9,317.8 Z M342.6,313.5 L341.1,312.6 L343.3,311.1 L343.9,312.6 L342.6,313.5 Z" id="PR" fill-rule="nonzero"></path>
                    <path d="M364.4,300.1 L362.9,301.2 L361.1,302.3 L361.5,303.8 L363.3,304.5 L365.9,304.1 L367,305.9 L368.8,305.9 L369.9,304.8 L373.9,304.1 L375.7,303.7 L377.2,302.6 L376.5,301.1 L374.3,301.1 L369.2,300 L364.4,300 L364.4,300.1 Z M378.8,301.5 L378.5,302.5 L379.4,303 L381.4,302.8 L382.8,303.5 L383.9,303.3 L384.2,302.1 L385.6,301.1 L385.9,300.1 L384.8,299.6 L383.1,300.1 L381.1,299.4 L380.2,300.1 L379.9,301.1 L378.8,301.5 Z M373.5,321.9 L376.1,321.2 L377.7,321.5 L380,320.2 L381,320.5 L381.6,321.5 L382.6,323.1 L384.6,322.1 L385.6,322.8 L389.9,322.2 L390.4,324.6 L388.6,325.4 L385.3,325.4 L379.8,327 L377.5,326.7 L373.6,327.3 L372.3,326.7 L371.3,327.3 L368.7,327.6 C368.7,327.6 367.2,327.1 368.4,326.3 C370.4,325 369.4,322.7 369.4,322.7 L373.5,321.9 Z" id="VI" fill-rule="nonzero"></path>
                </g>
                <g id="Northeast" transform="translate(723.000000, 30.000000)" fill="#B3CDE3">
                    <polygon id="CT" points="120 154.9 123.6 151.7 125.5 149.6 126.3 150.2 129 148.7 134.2 147.6 141.2 144.1 140.6 139.9 139.8 135.5 138.2 129.5 133.9 130.6 112.1 135.3 112.7 138.4 114.2 145.7 114.2 154 113.3 156.1 115 158.3"></polygon>
                    <path d="M155.5,136.5 L155,134.2 L155.8,132.7 L158.7,131.2 L159.5,134.3 L159,136.1 L156.6,137.6 L156.6,138.6 L158.5,137.1 L162.4,132.6 L166.3,130.7 L170.5,129.2 L170.2,126.8 L169.2,123.9 L167.3,121.5 L165.5,120.7 L163.4,120.9 L162.9,121.4 L163.9,122.7 L165.4,121.9 L167.5,123.5 L168.3,126.2 L166.5,128 L164.2,129 L160.6,128.5 L156.7,122.5 L154.4,119.9 L152.6,119.9 L151.5,120.7 L149.6,118.1 L149.9,116.6 L152.3,111.4 L149.4,107 L145.7,108.8 L143.9,111.7 L125.6,116.4 L111.8,118.9 L111.2,129.5 L111.9,134.4 L133.9,129.6 L145.1,126.8 L147.1,128.4 L150.5,132.7 L153.4,137.4 L155.5,136.5 Z M168,137.9 L170.2,137.2 L170.7,135.5 L171.7,135.6 L172.7,137.9 L171.4,138.4 L167.5,138.5 L168,137.9 Z M158.6,138.7 L160.9,136.1 L162.5,136.1 L164.3,137.6 L161.9,138.6 L159.7,139.6 L158.6,138.7 Z" id="MA" fill-rule="nonzero"></path>
                    <path d="M102.8,228.1 L104.5,224.3 L105,219.5 L98.7,220.6 L92.9,220.9 L89.1,204.1 L86.8,198.6 L85.3,194 L63.1,198.3 L25.5,205.9 L27.5,216.3 L32.3,211.4 L34.8,210.7 L36.2,209.2 L38,206.5 L39.6,207.2 L42.2,207 L44.8,204.9 L46.8,203.4 L48.9,202.8 L50.4,203.9 L53.1,205.3 L55,207.1 L56.3,208.5 L61.1,210.1 L60.5,213 L66.3,215.1 L68.4,212.5 L72.1,215 L70,218.3 L69.3,221.6 L67.5,224.2 L67.5,226.3 L67.8,227.1 L69.8,228.4 L73.2,229.5 L77.5,229.4 L80.6,230.4 L82.7,230.7 L83.7,228.6 L82.2,226.5 L82.2,224.7 L79.8,222.6 L77.7,217.1 L79,211.8 L78.8,209.7 L77.5,208.4 C77.5,208.4 79,206.8 79,206.1 C79,205.5 79.5,204 79.5,204 L81.4,202.7 L83.3,201.1 L83.8,202.1 L82.3,203.7 L81,207.4 L81.3,208.5 L83.1,208.8 L83.6,214.3 L81.5,215.3 L81.8,218.9 L82.3,218.7 L83.4,216.8 L85,218.6 L83.4,219.9 L83.1,223.3 L85.7,226.7 L89.6,227.2 L91.2,226.4 L94.4,230.6 L95.4,231 L102.8,228.1 Z M88.3,228.3 L89.4,230.8 L89.6,232.6 L90.7,234.5 C90.7,234.5 91.6,233.6 91.6,233.3 C91.6,233 90.9,230.2 90.9,230.2 L90.2,227.9 L88.3,228.3 Z" id="MD" fill-rule="nonzero"></path>
                    <path d="M133.8,55.9 L135.3,56.3 L135.3,53.7 L136.1,48.2 L138.7,43.5 L140.2,39.5 L138.3,37.1 L138.3,31.1 L139.1,30.1 L139.9,27.4 L139.7,25.9 L139.5,21.1 L141.3,16.3 L144.2,7.4 L146.3,3.2 L147.6,3.2 L148.9,3.4 L148.9,4.5 L150.2,6.8 L152.9,7.4 L153.7,6.6 L153.7,5.6 L157.7,2.7 L159.5,0.9 L161,1.1 L167,3.5 L168.9,4.5 L178,34.4 L184,34.4 L184.8,36.3 L185,41.1 L187.9,43.4 L188.7,43.4 L188.9,42.9 L188.4,41.8 L191.2,41.3 L193.1,43.4 L195.4,47.1 L195.4,49 L193.3,53.7 L191.4,54.3 L188,57.4 L183.2,62.9 C183.2,62.9 182.6,62.9 181.9,62.9 C181.3,62.9 180.9,60.8 180.9,60.8 L179.1,61 L178.1,62.5 L175.7,64 L174.7,65.5 L176.3,67 L175.8,67.6 L175.3,70.3 L173.4,70.1 L173.4,68.5 L173.1,67.2 L171.6,67.5 L169.8,64.3 L167.7,65.6 L169,67.1 L169.3,68.2 L168.5,69.5 L168.8,72.6 L169,74.2 L167.4,76.8 L164.5,77.3 L164.2,80.2 L158.9,83.3 L157.6,83.8 L156,82.3 L152.9,85.9 L153.9,89.1 L152.4,90.4 L152.2,94.8 L151.1,101.1 L148.9,100.2 L148.4,97.1 L144.4,96 L144.2,93.5 L132.5,56.07 L133.8,55.9 Z M170.3,71.5 L171.8,70 L173.2,71.1 L173.8,73.5 L172.1,74.4 L170.3,71.5 Z M177,65.6 L178.8,67.5 C178.8,67.5 180.1,67.6 180.1,67.3 C180.1,67 180.3,65.3 180.3,65.3 L181.2,64.5 L180.4,62.7 L178.4,63.4 L177,65.6 Z" id="ME" fill-rule="nonzero"></path>
                    <polygon id="NH" points="149.7 105.3 150.8 102.1 148.1 100.9 147.6 97.8 143.5 96.7 143.2 93.7 131.5 56.22 130.8 56.3 130.2 57.9 129.6 57.4 128.6 56.4 127.1 58.3 126.9 60.59 127.4 69 129.3 71.8 129.3 76.1 125.4 80.9 123 81.8 123 82.5 124.1 84.4 124.1 93 123.3 102.2 123.1 106.9 124.1 108.3 123.9 113 123.4 114.5 124.4 115.6 129.5 114.4 143.3 110.9 145 108 149 106.1"></polygon>
                    <polygon id="NJ" points="91.7 192.3 91.8 190.8 94.5 189.5 96.2 186.7 97.9 184.3 101.2 181.1 101.2 179.9 95.1 175.8 94.1 173.1 91.4 172.8 91.3 171.9 90.6 169.7 92.8 168.6 93 165.7 91.7 164.4 91.9 163.2 93.8 160.1 93.8 157 96.3 153.9 101.9 156.4 108.3 158.3 110.8 159.5 110.9 161.3 110.4 164 110.8 168.5 108.7 170.4 107.6 171.4 108.1 171.9 110.8 171.6 111.9 170.8 113.5 174.2 113.7 183.6 114.3 184.7 113.2 190.2 110.1 196.7 107.4 200.7 106.6 205.5 104.5 207.9 103.7 207.9 103.4 205.2 104.2 204.2 104 202.7 100 202.1 95.2 199.8 92 196.9 91 194.9"></polygon>
                    <polygon id="NY" points="111.4 164 111.9 161.3 111.7 158.9 108.7 157.4 102.2 155.4 96.2 152.8 95.6 152.4 92.9 152.1 90.9 150.6 88.8 144.7 85.5 144.2 83.1 141.8 44.7 149.9 13.1 155.9 12.6 149.4 14.2 148.2 15.5 147.1 16.5 145.5 18.3 144.4 20.2 142.6 20.7 141 22.8 138.3 23.9 137.3 23.7 136.3 22.4 133.2 20.6 133 18.7 126.9 21.6 125.1 26 123.6 30 122.3 33.2 121.8 39.5 121.6 41.4 122.9 43 123.1 45.1 121.8 47.7 120.7 52.9 120.2 55 118.4 56.8 115.2 58.4 113.3 60.5 113.3 62.4 112.2 62.6 109.9 61.1 107.8 60.8 106.3 61.9 104.2 61.9 102.7 60.1 102.7 58.3 101.9 57.5 100.8 57.3 98.2 63.1 92.7 63.7 91.9 65.2 89 68.1 84.5 70.8 80.8 72.9 78.4 75.3 76.6 78.4 75.4 83.9 74.1 87.1 74.3 91.6 72.8 99 70.6 99.7 75.5 102.1 82 102.9 87 101.9 91.2 104.5 95.7 105.3 97.7 104.4 100.9 108.1 102.6 110.8 112.8 110.8 118.6 110.2 129.5 111 134.9 111.7 138.5 113.2 145.8 113.2 153.9 112.1 156.2 114.2 158.9 114.7 159.8 112.8 161.6 113.1 162.9 114.4 162.6 115.9 161.3 118.2 158.7 119.3 158.1 120.9 158.7 123.2 158.9 131.1 155 134 152.3 135.3 150.8 139.5 152.4 136.1 156 132.2 158.9 125.1 164.2 122.5 165.2 116.7 167.1 112.7 168.2 111.7 167.8"></polygon>
                    <polygon id="PA" points="4.6 156.2 5.9 155.7 11.6 150.2 12.3 157.1 45.8 150.6 82.7 142.8 85 145.1 88.1 145.5 90.1 151.1 92.5 153 95.3 153.4 95.4 153.5 92.8 156.7 92.8 159.8 90.9 162.9 90.7 164.8 92 166.1 91.8 168 89.4 169.1 90.4 172.5 90.6 173.6 93.4 173.9 94.3 176.4 100.2 180.3 100.2 180.7 97.1 183.7 95.6 185.9 93.9 188.7 91.2 189.9 89.8 190.2 87.7 191.5 86.1 192.9 63.7 197.2 25 205 13.7 206.4 9.8 207.1 4.7 184.7 0.4 158.8"></polygon>
                    <polygon id="RI" points="141.6 139.7 140.8 135.3 139.2 129.3 144.9 127.8 146.4 129.1 149.8 133.4 152.6 137.8 149.8 139.2 148.5 139 147.4 140.8 145 142.7 142.2 143.8"></polygon>
                    <polygon id="VT" points="100.7 75.3 103.1 81.8 103.9 87.1 102.9 91 105.4 95.4 106.3 97.7 105.6 100.3 108.9 101.8 111.8 112.6 111.8 117.9 123.3 115.8 122.3 114.7 122.9 112.8 123.1 108.5 122.1 107.1 122.3 102.4 123.1 93.1 123.1 84.6 122 82.8 122 81.2 124.8 80.1 128.3 75.7 128.3 72.1 126.4 69.4 126.1 63.61 100 70.4"></polygon>
                    <g id="DC" transform="translate(64.000000, 210.000000)">
                        <polygon id="DC1" points="5.8 7.8 4.7 6.2 3.7 5.4 4.8 3.8 7 5.3"></polygon>
                        <circle id="DC2" stroke="#FFFFFF" stroke-width="1.5" cx="5.3" cy="5.8" r="5"></circle>
                    </g>
                    <polygon id="DE" points="102.4 211.2 101.4 211.7 97.8 209.3 96 204.6 94.1 201 91.8 200 89.7 196.4 90.2 194.4 90.7 192.1 90.8 191 90.2 191.1 88.5 192.1 86.5 193.8 86.3 194.1 87.7 198.2 90 203.8 93.7 219.9 98.7 219.6 104.7 218.5"></polygon>
                </g>
                <g id="Midwest" transform="translate(339.000000, 46.000000)" fill="#FBB4AE">
                    <polygon id="IA" points="208.8 131.6 210.9 133.7 211.2 134.4 209.2 137.4 209.5 141.4 212.1 145.5 215.2 147.1 217.6 147.4 218.5 149.2 218.7 151.6 221.2 152.6 222.1 153.7 222.6 155.3 226.4 158.6 227 160.5 226.3 163.5 224.6 167.2 224 169.6 221.9 171.2 220.3 171.7 214.6 173.2 213 178 213.8 179.8 215.5 181.3 215.3 184.8 213.4 186.2 212.7 188 212.7 190.4 211.3 190.8 209.6 192.2 209.1 193.9 209.5 195.6 208.2 196.6 205.9 193.9 204.5 191.1 196.2 191.9 186.2 192.5 137 193.7 135.4 189.4 135 182.7 133.6 178.5 132.9 173.3 130.7 169.6 129.7 165 127 157.2 125.9 151.6 124.5 149.7 123.2 146.8 124.9 143 126.1 136.9 123.4 134.7 123.1 132.3 123.8 129.9 125.6 129.6 186.7 129 207.9 128.3"></polygon>
                    <polygon id="IL" points="270.7 162.3 269.9 159.7 268.6 156 267 154.2 265.5 151.6 265.1 146.1 249.2 147.9 231.8 148.9 219.5 148.9 219.7 151 221.9 151.9 223 153.3 223.4 154.7 227.3 158.1 228 160.5 227.3 163.8 225.6 167.5 224.8 170.2 222.4 172.1 220.5 172.7 215.3 174 214 178.1 214.6 179.2 216.5 181 216.3 185.3 214.2 186.9 213.7 188.2 213.7 191 211.9 191.6 210.5 192.8 210.1 194 210.5 196 208.9 197.3 208 200.1 208.3 204 210.6 211 217.6 218.6 223.3 222.3 223.3 226.7 224 227.9 230.6 228.5 233.3 229.9 232.6 233.4 230.4 239.6 229.6 242.6 231.6 246.3 238 251.6 242.8 252.4 245 257.5 247 260.9 246.1 263.7 247.6 267.5 249.3 269.6 250.9 269.3 251.9 267.1 254.3 265.4 257.1 264.4 263.2 266.9 263.7 266.7 263.7 265.6 262.5 262.9 262.9 260.1 265.3 258.5 268.7 257.3 268.2 256 267.4 254 268.6 252.7 269.6 250 269.6 246 270 241.1 272.5 238.1 274.3 234.3 276.8 230.3 276.3 225 274.5 221.8 274.2 218.5 275 213.2 274.3 206 273.2 190.2 271.8 174.9 270.9 163.2"></polygon>
                    <polygon id="IN" points="274.9 164.1 276.4 165.1 277.5 164.8 279.6 162.9 282.1 161.1 296.4 160 314.8 158.2 316.4 173.7 321.3 216.3 320.7 219.2 322 220.8 322.2 222.1 319.9 223.7 316.3 225.4 313.1 225.8 312.6 230.6 307.9 234.2 305 238.2 305.2 240.6 304.7 242 301.2 242 299.8 240.3 294.6 243.3 294.8 246.4 293.9 246.6 293.4 245.7 291 244 287.4 245.5 286 248.4 284.8 247.8 283.2 246 278.8 246.5 273.1 247.5 270.6 248.8 270.6 246.2 271 241.5 273.3 238.6 275.1 234.7 277.8 230.5 277.3 224.7 275.5 221.6 275.2 218.4 276 213.1 275.3 206 274.4 193.4 271.9 163.3"></polygon>
                    <polygon id="KS" points="137.9 207.5 94.1 206.9 53.5 205.7 31.8 204.8 27.5 269.6 51.8 270.6 96.5 272.7 142.8 273.3 155.4 273 156.1 238 154.9 226.9 152.4 224.9 150 221.9 147.7 218.3 148.3 215.3 150 213.9 150 211.8 149.2 211.1 146.6 210.9 143.1 207.5"></polygon>
                    <polygon id="KY" points="259.2 279.8 271.8 279.1 271.9 275 276.2 275 306.6 271.8 351.7 267.5 357.3 263.9 361.2 261.8 361.3 259.9 367.3 252.1 371.4 248.5 373.5 246.1 370.2 244.1 367.7 241.4 364.7 237.6 364.2 235.4 361.6 234 360.7 232.1 360.5 226 357.9 224 356 222.9 355.5 220.6 354.2 220.8 352.2 222 349.7 224.7 347.8 223 345.3 222.5 342.9 223.9 340.6 223.9 338.8 221.9 333.2 221.8 331.4 217.3 328.5 215.8 326.4 216.6 322.2 216.8 321.7 218.9 322.9 220.4 323.2 222.5 320.4 224.5 316.6 226.3 314 226.7 313.5 231.2 308.6 234.8 306 238.5 306.2 240.7 305.3 243 300.8 242.9 299.5 241.6 295.6 243.8 295.8 247.1 293.4 247.7 292.6 246.3 290.9 245.1 288.2 246.2 286.4 249.7 284.2 248.7 282.8 247.1 279.1 247.5 273.5 248.5 270.7 249.8 269.5 253.2 268.5 254.2 270 257.9 265.8 259.3 263.9 260.7 263.5 262.9 264.7 265.3 264.7 267.5 263.1 267.9 257 265.4 254.7 266.3 252.7 267.7 251.9 269.5 253.6 271.9 252.7 273.7 252.6 277 250.2 278.3 248.1 280"></polygon>
                    <path d="M296.5,159 L315.6,157.1 L315.8,158.2 L325.7,156.7 L337.7,155 L337.8,154.4 L338,152.9 L340.1,149.2 L342.1,147.5 L341.9,142.4 L343.5,140.8 L344.6,140.5 L344.8,136.9 L346.3,133.9 L347.4,134.5 L347.6,135.1 L348.4,135.3 L350.3,134.3 L349.9,125.2 L346.7,117 L344.4,107.9 L342,104.7 L339.4,102.9 L337.8,104 L333.9,105.8 L332,110.8 L329.3,114.5 L328.2,115.1 L326.7,114.5 C326.7,114.5 324.1,113 324.3,112.4 C324.5,111.8 324.8,107.4 324.8,107.4 L328.2,106.1 L329,102.7 L329.6,100.1 L332,98.5 L331.7,88.5 L330.1,86.2 L328.8,85.4 L328,83.3 L328.8,82.5 L330.4,82.8 L330.6,81.2 L328,79 L326.7,76.4 L324.1,76.4 L319.6,74.9 L314.1,71.5 L311.4,71.5 L310.8,72.1 L309.8,71.6 L306.7,69.3 L303.8,71.1 L300.9,73.4 L301.2,77 L302.2,77.3 L304.3,77.8 L304.8,78.6 L302.2,79.4 L299.6,79.7 L298.1,81.5 L297.8,83.6 L298.1,85.2 L298.4,90.7 L294.8,92.8 L294.2,92.6 L294.2,88.4 L295.5,86 L296.1,83.6 L295.3,82.8 L293.4,83.6 L292.4,87.8 L289.7,88.9 L287.9,90.8 L287.7,91.8 L288.3,92.6 L287.7,95.2 L285.4,95.7 L285.4,96.8 L286.2,99.2 L285.1,105.3 L283.5,109.3 L284.1,114 L284.6,115.1 L283.8,117.5 L283.5,118.3 L283.2,121 L286.8,127 L289.7,133.5 L291.2,138.3 L290.4,143 L289.4,149 L287,154.2 L286.7,156.9 L283.5,160 L296.5,159 Z M263.2,86.6 L261.9,85.5 L260.1,75.1 L256.4,73.8 L254.7,71.5 L242.1,68.7 L239.3,67.6 L231.2,65.4 L223.4,64.4 L219.5,59.1 L220.2,58.6 L222.9,57.8 L226.5,55.5 L226.5,54.5 L227.1,53.9 L233.1,52.9 L235.5,51 L239.9,48.9 L240.1,47.6 L242,44.7 L243.8,43.9 L245.1,42.1 L247.4,39.8 L251.8,37.4 L256.5,36.9 L257.6,38 L257.3,39 L253.6,40 L252.1,43.1 L249.8,43.9 L249.3,46.3 L246.9,49.5 L246.6,52.1 L247.4,52.6 L248.4,51.5 L252,48.6 L253.3,49.9 L255.6,49.9 L258.8,50.9 L260.3,52 L261.8,55.1 L264.5,57.8 L268.4,57.6 L269.9,56.6 L271.5,57.9 L273.1,58.4 L274.4,57.6 L275.5,57.6 L277.1,56.6 L281.1,53 L284.5,51.9 L291.1,51.6 L295.6,49.7 L298.2,48.4 L299.7,48.6 L299.7,54.3 L300.2,54.6 L303.1,55.4 L305,54.9 L311.1,53.3 L312.2,52.2 L313.7,52.7 L313.7,59.7 L316.9,62.8 L318.2,63.4 L319.5,64.4 L318.2,64.7 L317.4,64.4 L313.7,63.9 L311.6,64.5 L309.3,64.3 L306.1,65.8 L304.3,65.8 L298.5,64.5 L293.3,64.7 L291.4,67.3 L284.4,67.9 L282,68.7 L280.9,71.8 L279.6,72.9 L279.1,72.7 L277.6,71.1 L273.1,73.5 L272.5,73.5 L271.4,71.9 L270.6,72.1 L268.7,76.5 L267.7,80.5 L264.5,87.4 L263.2,86.6 Z M233.6,30.1 L235.4,28 L237.6,27.2 L243,23.3 L245.3,22.7 L245.8,23.2 L240.7,28.3 L237.4,30.2 L235.3,31.1 L233.6,30.1 Z M319.8,62.2 L320.4,64.7 L323.6,64.9 L324.9,63.7 C324.9,63.7 324.8,62.2 324.5,62.1 C324.2,61.9 322.9,60.2 322.9,60.2 L320.7,60.4 L319.1,60.6 L318.8,61.7 L319.8,62.2 Z" id="MI" fill-rule="nonzero"></path>
                    <polygon id="MN" points="116.6 14.79 116 18.7 116 28.97 117.6 34 119.5 37.32 120 47.25 121.8 60.7 123.6 68 124 74.4 124 79.7 122.4 81.5 120.6 82.8 120.6 84.3 121.5 86 125.6 89.5 126.3 92.7 126.3 128.6 186.6 128 207.8 127.3 207.3 121.3 205.5 119.2 198.3 114.6 194.7 109.3 191.3 108.4 189.3 105.6 186.1 105.6 182.6 101.8 182.1 94.8 182.2 90.9 183.7 87.9 183 85.2 180.2 82.1 182.4 76 187.8 72 189 70.6 188.8 62.6 189 59.6 191.6 56.6 195.4 53.7 196.7 53.5 201.2 48.5 203 47.7 205.3 43.8 207.7 40.2 210.8 37.6 215.6 35.6 224.8 31.5 228.7 29.7 229.3 27.4 224.9 27.8 224.2 28.9 223.6 28.9 221.8 25.8 212.9 26.1 211.9 26.9 210.9 26.9 210.4 25.6 209.6 23.8 207 24.3 203.8 27.5 202.2 28.3 199.1 28.3 196.5 27.3 196.5 25.2 195.2 25 194.7 25.5 192.1 24.2 191.6 21.3 190.1 21.8 189.6 22.8 187.2 22.3 181.9 19.9 178 17.3 175.1 17.3 173.8 16.3 171.5 16.9 170.4 18 170.1 19.3 165.3 19.3 165.3 17.2 159 16.9 158.7 15.4 153.9 15.4 152.3 13.8 150.8 7.7 150 2.2 148.1 1.4 145.8 0.9 145.2 1.1 144.9 9.3 114.8 9.27"></polygon>
                    <polygon id="MO" points="245.1 286.7 245.6 280.8 249.8 277.4 251.7 276.4 251.7 273.5 252.4 271.9 251.3 270.3 248.9 270.6 246.8 268.1 245.1 263.6 246 261 244 257.8 242.2 253.2 237.6 252.5 230.8 246.9 228.6 242.7 229.4 239.4 231.6 233.4 232.2 230.4 230.3 229.4 223.4 228.8 222.3 226.9 222.3 222.8 217 219.3 209.8 211.5 207.5 204.2 207 200 207.7 197.6 205.1 194.5 203.9 192.1 196.2 192.9 186.2 193.5 137.4 194.7 138.7 197.3 138.6 199.5 140.9 203.1 143.9 207 147 210 149.6 210.2 151 211.3 151 214.2 149.2 215.8 148.7 218.1 150.8 221.3 153.2 224.3 155.8 226.4 157.1 238 156.3 278 156.8 283.7 180.5 283.5 203.8 282.8 236.3 281.5 238.5 285.2 237.7 288.3 234.6 290.8 234.1 292.6 239.3 293.1 243.4 292"></polygon>
                    <polygon id="ND" points="123 74.4 122.6 68.2 120.8 60.9 119 47.29 118.5 37.59 116.6 34.41 115 29.09 115 18.68 115.6 14.83 113.8 9.29 85.2 8.7 66.6 8.1 40.1 6.8 14.9 4.64 14 19.06 9.3 70 66.1 73.9 123 75.6"></polygon>
                    <polygon id="NE" points="122.3 152.3 121.3 150 120.8 148.4 117.9 146.8 113.1 145.3 110.9 144.1 108.3 144.2 104.6 144.6 100.4 145.8 94.4 141.7 92.2 139.7 81.5 140.3 40 137.9 4.4 135.7 0.1 179.4 33.2 182.7 31.8 203.8 53.5 204.8 94.1 206 137.9 206.6 142.4 206.6 140.2 203.6 137.6 199.7 137.7 197.4 136.3 194.7 134.4 189.5 134 182.8 132.6 178.7 132.1 173.7 129.8 170 128.8 165.3 126 157.4 125 152.1"></polygon>
                    <polygon id="OH" points="315.8 159.2 317.5 174.7 322.3 215.8 326.2 215.6 328.5 214.8 332.1 216.6 333.8 220.8 339.2 220.9 341 222.9 342.7 222.9 345.1 221.5 348.2 222 349.7 223.3 351.5 221.3 353.8 219.9 356.2 219.5 356.8 222.2 358.4 223.2 361 225.2 361.8 225.4 363.8 225.3 365 224.7 365 222.6 366.7 221.1 366.8 216.3 367.9 212.1 369.8 210.8 370.8 211.5 371.8 212.6 372.5 212.8 372.9 212.4 372 209.7 372 207.5 373.1 206.1 375.6 202.5 376.9 201 379.1 201.5 381.2 200 384.2 196.7 386.4 193 386.6 187.6 387.1 182.6 387.1 178 385.9 174.8 387.1 173 388.4 171.8 387.8 169 383.5 143.4 377.3 147.1 373.4 149.4 370 153.1 366 157 362.8 157.8 359.9 158.3 354.4 160.9 352.3 161.1 348.9 158 343.7 158.6 341.1 157.1 338.9 155.8"></polygon>
                    <polygon id="SD" points="123 129.1 122.1 132.3 122.5 135.3 125.1 137.3 123.9 142.7 122.1 146.8 123.6 150.1 124.3 151.2 123 151.3 122.3 149.7 121.7 147.7 118.4 145.9 113.6 144.4 111.1 143.1 108.2 143.2 104.3 143.6 100.5 144.8 95.2 141 92.5 138.6 81.6 139.4 40.1 137 4.5 134.8 6 110 8.8 76 9.2 71 66.1 74.9 123 76.6 123 79.3 121.7 80.8 119.7 82.3 119.6 84.5 120.7 86.7 124.8 90.1 125.3 92.8 125.3 128.7"></polygon>
                    <polygon id="WI" points="193.4 57.9 196.3 58.4 199.2 57.8 206.6 54.6 209.5 52.7 211.6 51.9 213.5 53.4 212.4 54.5 210.5 57.6 209.9 59.5 210.9 60.1 212.7 59.1 213.8 58.9 216.5 59.7 217.1 60.8 218.2 61 218.8 59.9 222.8 65.2 231 66.4 239.2 68.6 241.8 69.7 254.1 72.3 255.7 74.6 259.3 75.8 261 86 262.6 87.4 264.1 88.3 263 90.6 261.2 92.2 259.1 96.9 257.8 99.3 258 101.1 259.5 101.4 260.6 99.5 262.1 98.7 262.9 96.4 264.8 94.6 267.5 90.6 271.7 84.3 272.5 83.8 272.8 84.8 272.6 87.1 269.7 93.9 267 99.6 266.5 102.8 265.9 105.4 266.7 106.7 266.5 109.4 264.6 111.8 264.1 113.6 264.7 117.2 265.3 120.6 263.8 123.2 263 126.1 262 129.2 263.1 131.6 263.7 137.7 265.3 142.2 265.1 145.2 249.2 147 231.7 148 219 148 218.3 146.5 215.4 146.1 212.8 144.8 210.5 141.1 210.2 137.5 212.2 134.6 211.7 133.2 209.6 131 208.8 127.7 208.2 120.9 206.1 118.4 199.1 113.9 195.3 108.5 191.9 107.5 189.7 104.7 186.5 104.7 183.6 101.4 183.1 94.9 183.2 91.1 184.7 88 183.9 84.8 181.4 82 183.2 76.6 188.4 72.8 190 70.9 189.8 62.8 190 60 192.4 57.2"></polygon>
                </g>
            </g>
            <path d="M551,587 L551,509 L673,509 L673,587 M626,509 L626,587 M551,550 L673,550 M551,588 L673,588 M589,550 L589,587" id="frames" stroke="#A9A9A9" stroke-width="2"></path>
        </g>
        <path d="M213.538574,267 L204.92041,267 L200.086426,248.25 C199.907388,247.582679 199.602216,246.203298 199.170898,244.111816 C198.739581,242.020335 198.491374,240.61654 198.42627,239.900391 C198.328613,240.779301 198.084475,242.191234 197.693848,244.13623 C197.303221,246.081227 197.002117,247.468746 196.790527,248.298828 L191.980957,267 L183.387207,267 L174.280762,231.306641 L181.727051,231.306641 L186.29248,250.789062 C187.09001,254.386086 187.667804,257.502917 188.025879,260.139648 C188.123536,259.211909 188.347329,257.775563 188.697266,255.830566 C189.047202,253.88557 189.376789,252.375982 189.686035,251.301758 L194.88623,231.306641 L202.039551,231.306641 L207.239746,251.301758 C207.467612,252.196945 207.75244,253.564118 208.094238,255.40332 C208.436037,257.242522 208.696451,258.821282 208.875488,260.139648 C209.03825,258.870111 209.298664,257.287282 209.656738,255.391113 C210.014813,253.494945 210.340331,251.960943 210.633301,250.789062 L215.174316,231.306641 L222.620605,231.306641 L213.538574,267 Z M237.830566,244.490234 C236.251782,244.490234 235.014816,244.990718 234.119629,245.991699 C233.224442,246.992681 232.711752,248.412751 232.581543,250.251953 L243.030762,250.251953 C242.998209,248.412751 242.518071,246.992681 241.590332,245.991699 C240.662593,244.990718 239.40935,244.490234 237.830566,244.490234 Z M238.880371,267.488281 C234.485818,267.488281 231.051607,266.275728 228.577637,263.850586 C226.103666,261.425444 224.866699,257.991233 224.866699,253.547852 C224.866699,248.974261 226.01008,245.438326 228.296875,242.939941 C230.58367,240.441557 233.74526,239.192383 237.781738,239.192383 C241.639179,239.192383 244.642079,240.291005 246.790527,242.488281 C248.938976,244.685558 250.013184,247.721009 250.013184,251.594727 L250.013184,255.208008 L232.410645,255.208008 C232.492025,257.323904 233.118646,258.975906 234.290527,260.164062 C235.462408,261.352219 237.106272,261.946289 239.222168,261.946289 C240.866056,261.946289 242.420403,261.775392 243.885254,261.433594 C245.350105,261.091795 246.880038,260.546553 248.475098,259.797852 L248.475098,265.55957 C247.173008,266.210615 245.78142,266.694823 244.300293,267.012207 C242.819166,267.329591 241.012543,267.488281 238.880371,267.488281 Z M275.11084,258.894531 C275.11084,261.694024 274.138356,263.826165 272.193359,265.291016 C270.248363,266.755867 267.339049,267.488281 263.465332,267.488281 C261.479645,267.488281 259.786954,267.354005 258.387207,267.085449 C256.98746,266.816893 255.677252,266.422203 254.456543,265.901367 L254.456543,259.749023 C255.840013,260.400068 257.398429,260.94531 259.131836,261.384766 C260.865243,261.824221 262.391107,262.043945 263.709473,262.043945 C266.411309,262.043945 267.762207,261.262703 267.762207,259.700195 C267.762207,259.114255 267.583172,258.638185 267.225098,258.271973 C266.867023,257.90576 266.24854,257.490725 265.369629,257.026855 C264.490718,256.562986 263.318855,256.021813 261.854004,255.40332 C259.754384,254.52441 258.212245,253.710616 257.227539,252.961914 C256.242834,252.213212 255.526695,251.35466 255.079102,250.38623 C254.631508,249.417801 254.407715,248.225593 254.407715,246.80957 C254.407715,244.384428 255.347647,242.508633 257.227539,241.182129 C259.107431,239.855625 261.772606,239.192383 265.223145,239.192383 C268.510921,239.192383 271.709132,239.908521 274.817871,241.34082 L272.571777,246.711914 C271.204583,246.125974 269.926927,245.645835 268.73877,245.271484 C267.550613,244.897134 266.33806,244.709961 265.101074,244.709961 C262.903798,244.709961 261.805176,245.304031 261.805176,246.492188 C261.805176,247.159509 262.159176,247.737302 262.867188,248.225586 C263.575199,248.71387 265.125476,249.438146 267.518066,250.398438 C269.650239,251.261072 271.212723,252.066728 272.205566,252.81543 C273.19841,253.564131 273.930824,254.426753 274.402832,255.40332 C274.87484,256.379888 275.11084,257.543613 275.11084,258.894531 Z M292.42041,261.555664 C293.7225,261.555664 295.284984,261.270836 297.10791,260.701172 L297.10791,266.243164 C295.252432,267.073246 292.973809,267.488281 290.271973,267.488281 C287.293442,267.488281 285.124681,266.735522 283.765625,265.22998 C282.406569,263.724439 281.727051,261.466161 281.727051,258.455078 L281.727051,245.295898 L278.162598,245.295898 L278.162598,242.146484 L282.26416,239.65625 L284.412598,233.894531 L289.17334,233.894531 L289.17334,239.705078 L296.814941,239.705078 L296.814941,245.295898 L289.17334,245.295898 L289.17334,258.455078 C289.17334,259.513026 289.470375,260.294268 290.064453,260.798828 C290.658532,261.303388 291.443843,261.555664 292.42041,261.555664 Z" id="West" fill="#6F3A80"></path>
        <path d="M500.634766,301 L492.041016,272.99707 L491.821289,272.99707 C492.130535,278.693713 492.285156,282.494131 492.285156,284.398438 L492.285156,301 L485.522461,301 L485.522461,265.306641 L495.825195,265.306641 L504.272461,292.601562 L504.418945,292.601562 L513.378906,265.306641 L523.681641,265.306641 L523.681641,301 L516.625977,301 L516.625977,284.105469 C516.625977,283.307939 516.638183,282.388352 516.662598,281.34668 C516.687012,280.305008 516.796874,277.538108 516.992188,273.045898 L516.772461,273.045898 L507.568359,301 L500.634766,301 Z M531.762695,266.649414 C531.762695,264.224272 533.113593,263.011719 535.81543,263.011719 C538.517266,263.011719 539.868164,264.224272 539.868164,266.649414 C539.868164,267.805019 539.53044,268.704261 538.85498,269.347168 C538.179521,269.990075 537.166348,270.311523 535.81543,270.311523 C533.113593,270.311523 531.762695,269.090833 531.762695,266.649414 Z M539.526367,301 L532.080078,301 L532.080078,273.705078 L539.526367,273.705078 L539.526367,301 Z M555.981445,301.488281 C552.775049,301.488281 550.256357,300.243177 548.425293,297.75293 C546.594229,295.262683 545.678711,291.812197 545.678711,287.401367 C545.678711,282.925433 546.610505,279.438326 548.474121,276.939941 C550.337737,274.441557 552.905257,273.192383 556.176758,273.192383 C559.61102,273.192383 562.231436,274.527005 564.038086,277.196289 L564.282227,277.196289 C563.907876,275.161774 563.720703,273.347013 563.720703,271.751953 L563.720703,263.011719 L571.191406,263.011719 L571.191406,301 L565.478516,301 L564.038086,297.459961 L563.720703,297.459961 C562.027986,300.145521 559.44826,301.488281 555.981445,301.488281 Z M558.59375,295.555664 C560.498056,295.555664 561.893713,295.002284 562.780762,293.895508 C563.66781,292.788731 564.152018,290.908867 564.233398,288.255859 L564.233398,287.450195 C564.233398,284.520493 563.781743,282.420905 562.878418,281.151367 C561.975093,279.88183 560.506195,279.24707 558.47168,279.24707 C556.811515,279.24707 555.521652,279.951002 554.602051,281.358887 C553.68245,282.766771 553.222656,284.813463 553.222656,287.499023 C553.222656,290.184584 553.686519,292.198724 554.614258,293.541504 C555.541997,294.884284 556.868481,295.555664 558.59375,295.555664 Z M601.416016,301 L599.316406,291.454102 L596.484375,279.393555 L596.313477,279.393555 L591.333008,301 L583.325195,301 L575.561523,273.705078 L582.983398,273.705078 L586.132812,285.790039 C586.637372,287.954763 587.150062,290.941387 587.670898,294.75 L587.817383,294.75 C587.882487,293.513015 588.167315,291.551771 588.671875,288.866211 L589.0625,286.791016 L592.431641,273.705078 L600.634766,273.705078 L603.833008,286.791016 C603.898112,287.14909 603.999837,287.678056 604.138184,288.37793 C604.276531,289.077803 604.410807,289.822424 604.541016,290.611816 C604.671225,291.401208 604.789225,292.174313 604.89502,292.931152 C605.000814,293.687992 605.061849,294.294269 605.078125,294.75 L605.224609,294.75 C605.371094,293.578119 605.631509,291.970876 606.005859,289.928223 C606.38021,287.885569 606.648762,286.506188 606.811523,285.790039 L610.083008,273.705078 L617.382812,273.705078 L609.521484,301 L601.416016,301 Z M633.081055,278.490234 C631.502271,278.490234 630.265304,278.990718 629.370117,279.991699 C628.47493,280.992681 627.96224,282.412751 627.832031,284.251953 L638.28125,284.251953 C638.248698,282.412751 637.768559,280.992681 636.84082,279.991699 C635.913081,278.990718 634.659839,278.490234 633.081055,278.490234 Z M634.130859,301.488281 C629.736306,301.488281 626.302096,300.275728 623.828125,297.850586 C621.354154,295.425444 620.117188,291.991233 620.117188,287.547852 C620.117188,282.974261 621.260568,279.438326 623.547363,276.939941 C625.834159,274.441557 628.995748,273.192383 633.032227,273.192383 C636.889668,273.192383 639.892567,274.291005 642.041016,276.488281 C644.189464,278.685558 645.263672,281.721009 645.263672,285.594727 L645.263672,289.208008 L627.661133,289.208008 C627.742513,291.323904 628.369135,292.975906 629.541016,294.164062 C630.712896,295.352219 632.35676,295.946289 634.472656,295.946289 C636.116545,295.946289 637.670891,295.775392 639.135742,295.433594 C640.600593,295.091795 642.130526,294.546553 643.725586,293.797852 L643.725586,299.55957 C642.423496,300.210615 641.031908,300.694823 639.550781,301.012207 C638.069654,301.329591 636.263031,301.488281 634.130859,301.488281 Z M670.361328,292.894531 C670.361328,295.694024 669.388844,297.826165 667.443848,299.291016 C665.498851,300.755867 662.589538,301.488281 658.71582,301.488281 C656.730133,301.488281 655.037442,301.354005 653.637695,301.085449 C652.237949,300.816893 650.92774,300.422203 649.707031,299.901367 L649.707031,293.749023 C651.090502,294.400068 652.648917,294.94531 654.382324,295.384766 C656.115731,295.824221 657.641595,296.043945 658.959961,296.043945 C661.661797,296.043945 663.012695,295.262703 663.012695,293.700195 C663.012695,293.114255 662.833661,292.638185 662.475586,292.271973 C662.117511,291.90576 661.499028,291.490725 660.620117,291.026855 C659.741207,290.562986 658.569343,290.021813 657.104492,289.40332 C655.004872,288.52441 653.462733,287.710616 652.478027,286.961914 C651.493322,286.213212 650.777183,285.35466 650.32959,284.38623 C649.881996,283.417801 649.658203,282.225593 649.658203,280.80957 C649.658203,278.384428 650.598135,276.508633 652.478027,275.182129 C654.35792,273.855625 657.023095,273.192383 660.473633,273.192383 C663.76141,273.192383 666.95962,273.908521 670.068359,275.34082 L667.822266,280.711914 C666.455071,280.125974 665.177415,279.645835 663.989258,279.271484 C662.801101,278.897134 661.588548,278.709961 660.351562,278.709961 C658.154286,278.709961 657.055664,279.304031 657.055664,280.492188 C657.055664,281.159509 657.409664,281.737302 658.117676,282.225586 C658.825687,282.71387 660.375965,283.438146 662.768555,284.398438 C664.900727,285.261072 666.463211,286.066728 667.456055,286.81543 C668.448898,287.564131 669.181313,288.426753 669.65332,289.40332 C670.125328,290.379888 670.361328,291.543613 670.361328,292.894531 Z M687.670898,295.555664 C688.972988,295.555664 690.535473,295.270836 692.358398,294.701172 L692.358398,300.243164 C690.50292,301.073246 688.224297,301.488281 685.522461,301.488281 C682.54393,301.488281 680.37517,300.735522 679.016113,299.22998 C677.657057,297.724439 676.977539,295.466161 676.977539,292.455078 L676.977539,279.295898 L673.413086,279.295898 L673.413086,276.146484 L677.514648,273.65625 L679.663086,267.894531 L684.423828,267.894531 L684.423828,273.705078 L692.06543,273.705078 L692.06543,279.295898 L684.423828,279.295898 L684.423828,292.455078 C684.423828,293.513026 684.720863,294.294268 685.314941,294.798828 C685.90902,295.303388 686.694331,295.555664 687.670898,295.555664 Z" id="Midwest" fill="#854742"></path>
        <path d="M792.569336,211 L782.950195,211 L767.422852,183.998047 L767.203125,183.998047 C767.512371,188.766951 767.666992,192.16861 767.666992,194.203125 L767.666992,211 L760.904297,211 L760.904297,175.306641 L770.450195,175.306641 L785.953125,202.040039 L786.124023,202.040039 C785.879882,197.401344 785.757812,194.121754 785.757812,192.201172 L785.757812,175.306641 L792.569336,175.306641 L792.569336,211 Z M806.900391,197.303711 C806.900391,200.005547 807.343908,202.04817 808.230957,203.431641 C809.118006,204.815111 810.56249,205.506836 812.564453,205.506836 C814.55014,205.506836 815.978349,204.81918 816.849121,203.443848 C817.719894,202.068515 818.155273,200.021823 818.155273,197.303711 C818.155273,194.601875 817.715825,192.575528 816.836914,191.224609 C815.958003,189.873691 814.517588,189.198242 812.515625,189.198242 C810.529938,189.198242 809.097661,189.869622 808.21875,191.212402 C807.339839,192.555182 806.900391,194.585598 806.900391,197.303711 Z M825.772461,197.303711 C825.772461,201.747093 824.600598,205.221993 822.256836,207.728516 C819.913074,210.235039 816.64976,211.488281 812.466797,211.488281 C809.846341,211.488281 807.535166,210.914557 805.533203,209.76709 C803.53124,208.619623 801.993169,206.97169 800.918945,204.823242 C799.844721,202.674794 799.307617,200.168309 799.307617,197.303711 C799.307617,192.844053 800.471343,189.377291 802.798828,186.90332 C805.126314,184.42935 808.397765,183.192383 812.613281,183.192383 C815.233737,183.192383 817.544912,183.762039 819.546875,184.901367 C821.548838,186.040696 823.086909,187.676422 824.161133,189.808594 C825.235357,191.940766 825.772461,194.439113 825.772461,197.303711 Z M847.15918,183.192383 C848.168299,183.192383 849.006507,183.265624 849.673828,183.412109 L849.112305,190.394531 C848.510088,190.23177 847.777674,190.150391 846.915039,190.150391 C844.538725,190.150391 842.687344,190.760736 841.36084,191.981445 C840.034336,193.202155 839.371094,194.911122 839.371094,197.108398 L839.371094,211 L831.924805,211 L831.924805,183.705078 L837.564453,183.705078 L838.663086,188.294922 L839.029297,188.294922 C839.875655,186.764966 841.019036,185.532068 842.459473,184.596191 C843.89991,183.660314 845.466463,183.192383 847.15918,183.192383 Z M866.128906,205.555664 C867.430996,205.555664 868.99348,205.270836 870.816406,204.701172 L870.816406,210.243164 C868.960928,211.073246 866.682305,211.488281 863.980469,211.488281 C861.001938,211.488281 858.833177,210.735522 857.474121,209.22998 C856.115065,207.724439 855.435547,205.466161 855.435547,202.455078 L855.435547,189.295898 L851.871094,189.295898 L851.871094,186.146484 L855.972656,183.65625 L858.121094,177.894531 L862.881836,177.894531 L862.881836,183.705078 L870.523438,183.705078 L870.523438,189.295898 L862.881836,189.295898 L862.881836,202.455078 C862.881836,203.513026 863.178871,204.294268 863.772949,204.798828 C864.367028,205.303388 865.152339,205.555664 866.128906,205.555664 Z M901.529297,211 L894.083008,211 L894.083008,195.057617 C894.083008,191.118795 892.618179,189.149414 889.688477,189.149414 C887.605133,189.149414 886.099614,189.857415 885.171875,191.273438 C884.244136,192.68946 883.780273,194.984359 883.780273,198.158203 L883.780273,211 L876.333984,211 L876.333984,173.011719 L883.780273,173.011719 L883.780273,180.750977 C883.780273,181.353193 883.723308,182.769195 883.609375,184.999023 L883.438477,187.196289 L883.829102,187.196289 C885.489266,184.527005 888.125958,183.192383 891.739258,183.192383 C894.945654,183.192383 897.378898,184.055004 899.039062,185.780273 C900.699227,187.505542 901.529297,189.979476 901.529297,193.202148 L901.529297,211 Z M920.499023,188.490234 C918.92024,188.490234 917.683273,188.990718 916.788086,189.991699 C915.892899,190.992681 915.380209,192.412751 915.25,194.251953 L925.699219,194.251953 C925.666667,192.412751 925.186528,190.992681 924.258789,189.991699 C923.33105,188.990718 922.077807,188.490234 920.499023,188.490234 Z M921.548828,211.488281 C917.154275,211.488281 913.720064,210.275728 911.246094,207.850586 C908.772123,205.425444 907.535156,201.991233 907.535156,197.547852 C907.535156,192.974261 908.678537,189.438326 910.965332,186.939941 C913.252127,184.441557 916.413717,183.192383 920.450195,183.192383 C924.307636,183.192383 927.310536,184.291005 929.458984,186.488281 C931.607433,188.685558 932.681641,191.721009 932.681641,195.594727 L932.681641,199.208008 L915.079102,199.208008 C915.160482,201.323904 915.787104,202.975906 916.958984,204.164062 C918.130865,205.352219 919.774729,205.946289 921.890625,205.946289 C923.534513,205.946289 925.08886,205.775392 926.553711,205.433594 C928.018562,205.091795 929.548495,204.546553 931.143555,203.797852 L931.143555,209.55957 C929.841465,210.210615 928.449877,210.694823 926.96875,211.012207 C925.487623,211.329591 923.681,211.488281 921.548828,211.488281 Z M956.070312,211 L954.629883,207.289062 L954.43457,207.289062 C953.181309,208.867846 951.891445,209.962399 950.564941,210.572754 C949.238437,211.183109 947.509125,211.488281 945.376953,211.488281 C942.756497,211.488281 940.69353,210.739591 939.187988,209.242188 C937.682447,207.744784 936.929688,205.612644 936.929688,202.845703 C936.929688,199.948553 937.942861,197.812344 939.969238,196.437012 C941.995616,195.061679 945.051412,194.300782 949.136719,194.154297 L953.873047,194.007812 L953.873047,192.811523 C953.873047,190.044583 952.457045,188.661133 949.625,188.661133 C947.444,188.661133 944.880549,189.320306 941.93457,190.638672 L939.46875,185.609375 C942.610042,183.965487 946.09308,183.143555 949.917969,183.143555 C953.580096,183.143555 956.387686,183.941073 958.34082,185.536133 C960.293955,187.131193 961.270508,189.556299 961.270508,192.811523 L961.270508,211 L956.070312,211 Z M953.873047,198.353516 L950.992188,198.451172 C948.827463,198.516276 947.216151,198.906897 946.158203,199.623047 C945.100255,200.339196 944.571289,201.42968 944.571289,202.894531 C944.571289,204.994151 945.775704,206.043945 948.18457,206.043945 C949.909839,206.043945 951.28922,205.547531 952.322754,204.554688 C953.356288,203.561844 953.873047,202.243498 953.873047,200.599609 L953.873047,198.353516 Z M987.979492,202.894531 C987.979492,205.694024 987.007008,207.826165 985.062012,209.291016 C983.117015,210.755867 980.207702,211.488281 976.333984,211.488281 C974.348297,211.488281 972.655606,211.354005 971.255859,211.085449 C969.856113,210.816893 968.545905,210.422203 967.325195,209.901367 L967.325195,203.749023 C968.708666,204.400068 970.267081,204.94531 972.000488,205.384766 C973.733895,205.824221 975.259759,206.043945 976.578125,206.043945 C979.279961,206.043945 980.630859,205.262703 980.630859,203.700195 C980.630859,203.114255 980.451825,202.638185 980.09375,202.271973 C979.735675,201.90576 979.117192,201.490725 978.238281,201.026855 C977.359371,200.562986 976.187507,200.021813 974.722656,199.40332 C972.623036,198.52441 971.080897,197.710616 970.096191,196.961914 C969.111486,196.213212 968.395347,195.35466 967.947754,194.38623 C967.500161,193.417801 967.276367,192.225593 967.276367,190.80957 C967.276367,188.384428 968.216299,186.508633 970.096191,185.182129 C971.976084,183.855625 974.641259,183.192383 978.091797,183.192383 C981.379574,183.192383 984.577784,183.908521 987.686523,185.34082 L985.44043,190.711914 C984.073235,190.125974 982.795579,189.645835 981.607422,189.271484 C980.419265,188.897134 979.206712,188.709961 977.969727,188.709961 C975.77245,188.709961 974.673828,189.304031 974.673828,190.492188 C974.673828,191.159509 975.027828,191.737302 975.73584,192.225586 C976.443851,192.71387 977.994129,193.438146 980.386719,194.398438 C982.518891,195.261072 984.081375,196.066728 985.074219,196.81543 C986.067062,197.564131 986.799477,198.426753 987.271484,199.40332 C987.743492,200.379888 987.979492,201.543613 987.979492,202.894531 Z M1005.28906,205.555664 C1006.59115,205.555664 1008.15364,205.270836 1009.97656,204.701172 L1009.97656,210.243164 C1008.12108,211.073246 1005.84246,211.488281 1003.14062,211.488281 C1000.16209,211.488281 997.993334,210.735522 996.634277,209.22998 C995.275221,207.724439 994.595703,205.466161 994.595703,202.455078 L994.595703,189.295898 L991.03125,189.295898 L991.03125,186.146484 L995.132812,183.65625 L997.28125,177.894531 L1002.04199,177.894531 L1002.04199,183.705078 L1009.68359,183.705078 L1009.68359,189.295898 L1002.04199,189.295898 L1002.04199,202.455078 C1002.04199,203.513026 1002.33903,204.294268 1002.93311,204.798828 C1003.52718,205.303388 1004.3125,205.555664 1005.28906,205.555664 Z" id="Northeast" fill="#406787"></path>
        <path d="M577.100098,445.087891 C577.100098,448.310563 575.940441,450.8496 573.621094,452.705078 C571.301746,454.560556 568.075053,455.488281 563.940918,455.488281 C560.132305,455.488281 556.763198,454.772143 553.833496,453.339844 L553.833496,446.308594 C556.242362,447.382818 558.280916,448.139646 559.949219,448.579102 C561.617521,449.018557 563.143385,449.238281 564.526855,449.238281 C566.18702,449.238281 567.460608,448.920902 568.347656,448.286133 C569.234705,447.651364 569.678223,446.707363 569.678223,445.454102 C569.678223,444.754228 569.482912,444.131676 569.092285,443.586426 C568.701658,443.041176 568.127933,442.516279 567.371094,442.011719 C566.614254,441.507159 565.072115,440.701503 562.744629,439.594727 C560.563628,438.569331 558.927903,437.58464 557.837402,436.640625 C556.746902,435.69661 555.876143,434.597988 555.225098,433.344727 C554.574053,432.091465 554.248535,430.626636 554.248535,428.950195 C554.248535,425.792627 555.318674,423.310556 557.458984,421.503906 C559.599295,419.697257 562.557436,418.793945 566.333496,418.793945 C568.188974,418.793945 569.958976,419.01367 571.643555,419.453125 C573.328133,419.89258 575.089997,420.511064 576.929199,421.308594 L574.487793,427.192383 C572.583487,426.411129 571.008795,425.865887 569.763672,425.556641 C568.518548,425.247394 567.293789,425.092773 566.089355,425.092773 C564.657057,425.092773 563.558435,425.426429 562.793457,426.09375 C562.028479,426.761071 561.645996,427.631831 561.645996,428.706055 C561.645996,429.373376 561.800617,429.955238 562.109863,430.45166 C562.41911,430.948082 562.911455,431.42822 563.586914,431.89209 C564.262373,432.355959 565.861478,433.190098 568.384277,434.394531 C571.720883,435.989591 574.007644,437.588696 575.244629,439.191895 C576.481614,440.795093 577.100098,442.760405 577.100098,445.087891 Z M588.916504,441.303711 C588.916504,444.005547 589.360022,446.04817 590.24707,447.431641 C591.134119,448.815111 592.578603,449.506836 594.580566,449.506836 C596.566253,449.506836 597.994462,448.81918 598.865234,447.443848 C599.736007,446.068515 600.171387,444.021823 600.171387,441.303711 C600.171387,438.601875 599.731938,436.575528 598.853027,435.224609 C597.974117,433.873691 596.533701,433.198242 594.531738,433.198242 C592.546051,433.198242 591.113774,433.869622 590.234863,435.212402 C589.355953,436.555182 588.916504,438.585598 588.916504,441.303711 Z M607.788574,441.303711 C607.788574,445.747093 606.616711,449.221993 604.272949,451.728516 C601.929188,454.235039 598.665874,455.488281 594.48291,455.488281 C591.862454,455.488281 589.55128,454.914557 587.549316,453.76709 C585.547353,452.619623 584.009283,450.97169 582.935059,448.823242 C581.860834,446.674794 581.32373,444.168309 581.32373,441.303711 C581.32373,436.844053 582.487456,433.377291 584.814941,430.90332 C587.142427,428.42935 590.413879,427.192383 594.629395,427.192383 C597.24985,427.192383 599.561025,427.762039 601.562988,428.901367 C603.564951,430.040696 605.103022,431.676422 606.177246,433.808594 C607.25147,435.940766 607.788574,438.439113 607.788574,441.303711 Z M633.276855,455 L632.275879,451.508789 L631.885254,451.508789 C631.087724,452.778327 629.95655,453.758948 628.491699,454.450684 C627.026848,455.142419 625.358571,455.488281 623.486816,455.488281 C620.28042,455.488281 617.863452,454.629729 616.23584,452.912598 C614.608228,451.195467 613.794434,448.725602 613.794434,445.50293 L613.794434,427.705078 L621.240723,427.705078 L621.240723,443.647461 C621.240723,445.616872 621.590654,447.093908 622.290527,448.078613 C622.990401,449.063319 624.105298,449.555664 625.635254,449.555664 C627.718598,449.555664 629.224116,448.85987 630.151855,447.468262 C631.079594,446.076653 631.543457,443.769547 631.543457,440.546875 L631.543457,427.705078 L638.989746,427.705078 L638.989746,455 L633.276855,455 Z M658.30127,449.555664 C659.603359,449.555664 661.165844,449.270836 662.98877,448.701172 L662.98877,454.243164 C661.133292,455.073246 658.854668,455.488281 656.152832,455.488281 C653.174302,455.488281 651.005541,454.735522 649.646484,453.22998 C648.287428,451.724439 647.60791,449.466161 647.60791,446.455078 L647.60791,433.295898 L644.043457,433.295898 L644.043457,430.146484 L648.14502,427.65625 L650.293457,421.894531 L655.054199,421.894531 L655.054199,427.705078 L662.695801,427.705078 L662.695801,433.295898 L655.054199,433.295898 L655.054199,446.455078 C655.054199,447.513026 655.351234,448.294268 655.945312,448.798828 C656.539391,449.303388 657.324702,449.555664 658.30127,449.555664 Z M693.70166,455 L686.255371,455 L686.255371,439.057617 C686.255371,435.118795 684.790542,433.149414 681.86084,433.149414 C679.777496,433.149414 678.271977,433.857415 677.344238,435.273438 C676.416499,436.68946 675.952637,438.984359 675.952637,442.158203 L675.952637,455 L668.506348,455 L668.506348,417.011719 L675.952637,417.011719 L675.952637,424.750977 C675.952637,425.353193 675.895671,426.769195 675.781738,428.999023 L675.61084,431.196289 L676.001465,431.196289 C677.661629,428.527005 680.298322,427.192383 683.911621,427.192383 C687.118017,427.192383 689.551261,428.055004 691.211426,429.780273 C692.87159,431.505542 693.70166,433.979476 693.70166,437.202148 L693.70166,455 Z" id="South" fill="#497F3D"></path>
    </g>
</svg>