<?xml version="1.0" encoding="UTF-8"?>
<svg width="1040px" height="665px" viewBox="0 0 1040 665" version="1.1" xmlns="http://www.w3.org/2000/svg" xmlns:xlink="http://www.w3.org/1999/xlink">
    <!-- Generator: Sketch 62 (91390) - https://sketch.com -->
    <title>brigade-regions-2020</title>
    <desc>Created with Sketch.</desc>
    <g id="brigade-regions-2020" stroke="none" stroke-width="1" fill="none" fill-rule="evenodd">
        <g id="Blank_USA,_w_territories" transform="translate(49.000000, 42.000000)">
            <g id="outlines">
                <g id="West" fill="#DECBE4">
                    <path d="M152.1,447.7 L151.8,533.1 L153.4,534.1 L156.5,534.3 L158,533.2 L160.6,533.2 L160.8,536.1 L167.8,542.9 L168.3,545.5 L171.7,543.6 L172.3,543.4 L172.6,540.3 L174.1,538.7 L175.2,538.5 L177.1,537 L180.2,539.1 L180.8,542 L182.7,543.1 L183.8,545.5 L187.7,547.3 L191.1,553.3 L193.8,557.2 L196.1,559.9 L197.6,563.6 L202.6,565.4 L207.8,567.5 L208.8,571.9 L209.3,575 L208.3,578.4 L206.5,580.7 L204.9,579.9 L203.4,576.8 L200.7,575.3 L198.9,574.2 L198.1,575 L199.6,577.7 L199.8,581.4 L198.7,581.9 L196.8,580 L194.7,578.7 L195.2,580.3 L196.5,582.1 L195.7,582.9 C195.7,582.9 194.9,582.6 194.4,581.9 C193.9,581.3 192.3,578.5 192.3,578.5 L191.3,576.2 C191.3,576.2 191,577.5 190.3,577.2 C189.7,576.9 189,575.7 189,575.7 L190.8,573.8 L189.3,572.3 L189.3,567.3 L188.5,567.3 L187.7,570.7 L186.6,571.2 L185.6,567.5 L185,563.8 L184.2,563.3 L184.5,569 L184.5,570.1 L183,568.8 L179.4,562.8 L177.3,562.3 L176.7,558.6 L175.1,555.7 L173.5,554.6 L173.5,552.3 L175.6,551 L175.1,550.7 L172.5,551.3 L169.1,548.9 L166.5,546 L161.7,543.4 L157.7,540.8 L159,537.6 L159,536 L157.2,537.6 L154.3,538.7 L150.6,537.6 L144.9,535.2 L139.4,535.2 L138.8,535.7 L132.3,531.8 L130.2,531.5 L127.5,525.7 L123.9,526 L120.3,527.5 L120.8,532 L121.9,529.1 L122.9,529.4 L121.4,533.8 L124.6,531.1 L125.2,532.7 L121.3,537.1 L120,536.8 L119.5,534.9 L118.2,534.1 L116.9,535.2 L114.2,533.4 L111.1,535.5 L109.3,537.6 L105.9,539.7 L101.2,539.5 L100.7,537.4 L104.4,536.8 L104.4,535.5 L102.1,534.9 L103.1,532.5 L105.4,528.6 L105.4,526.8 L105.6,526 L110,523.7 L111,525 L113.7,525 L112.4,522.4 L108.7,522.1 L103.7,524.8 L101.3,528.2 L99.5,530.8 L98.4,533.1 L94.2,534.6 L91.1,537.2 L90.8,538.8 L93.1,539.8 L93.9,541.9 L91.2,545.1 L84.7,549.3 L76.9,553.5 L74.8,554.6 L69.5,555.7 L64.2,558 L66,559.3 L64.5,560.8 L64,561.9 L61.3,560.9 L58.1,561.1 L57.3,563.4 L56.3,563.4 L56.6,561 L53,562.3 L50.1,563.3 L46.7,562 L43.8,563.9 L40.6,563.9 L38.5,565.2 L36.9,566 L34.8,565.7 L32.2,564.6 L29.9,565.2 L28.9,566.2 L27.3,565.1 L27.3,563.2 L30.4,561.9 L36.7,562.5 L41.1,560.9 L43.2,558.8 L46.1,558.2 L47.9,557.4 L50.6,557.6 L52.2,558.9 L53.2,558.6 L55.5,555.9 L58.6,554.9 L62,554.3 L63.3,554 L63.9,554.5 L64.7,554.5 L66,550.8 L70,549.3 L71.9,545.6 L74.2,541.1 L75.8,539.6 L76.1,537 L74.5,538.3 L71.1,538.9 L70.5,536.5 L69.2,536.2 L68.2,537.2 L68,540.1 L66.5,539.9 L65,534.1 L63.7,535.4 L62.6,534.9 L62.3,533 L58.3,533.2 L56.2,534.3 L53.6,534 L55.1,532.5 L55.6,529.9 L55,528 L56.5,527 L57.8,526.8 L57.2,525 L57.2,520.6 L56.2,519.6 L55.4,521.1 L49.3,521.1 L47.8,519.8 L47.2,515.9 L45.1,512.3 L45.1,511.3 L47.2,510.5 L47.4,508.4 L48.5,507.3 L47.7,506.8 L46.4,507.3 L45.3,504.6 L46.3,499.6 L50.8,496.4 L53.4,494.8 L55.3,491.1 L58,489.8 L60.6,490.9 L60.9,493.3 L63.3,493 L66.5,490.6 L68.1,491.2 L69.1,491.8 L70.7,491.8 L73,490.5 L73.8,486.1 C73.8,486.1 74.1,483.2 74.8,482.7 C75.4,482.2 75.8,481.7 75.8,481.7 L74.7,479.8 L72.1,480.6 L68.9,481.4 L67,480.9 L63.4,479.1 L58.4,478.9 L54.8,475.2 L55.3,471.3 L55.9,468.9 L53.8,467.1 L51.9,463.4 L52.4,462.6 L59.2,462.1 L61.3,462.1 L62.3,463.1 L62.9,463.1 L62.7,461.5 L66.6,460.9 L69.2,461.2 L70.7,462.3 L69.2,464.4 L68.7,465.9 L71.4,467.5 L76.4,469.3 L78.2,468.3 L75.9,463.9 L74.9,460.7 L75.9,459.9 L72.5,458 L72,456.9 L72.5,455.3 L71.7,451.4 L68.8,446.7 L66.4,442.5 L69.3,440.6 L72.5,440.6 L74.3,441.2 L78.5,441 L82.2,437.4 L83.3,434.3 L87,431.9 L88.6,432.9 L91.3,432.3 L95,430.2 L96.1,430 L97.1,430.8 L101.6,430.6 L104.3,427.5 L105.4,427.5 L109,429.9 L110.9,432 L110.4,433.1 L111,434.2 L112.6,432.6 L116.5,432.9 L116.8,436.6 L118.7,438.1 L125.8,438.7 L132.1,442.9 L133.6,441.9 L138.8,444.5 L140.9,443.9 L142.8,443.1 L147.6,445 L152.1,447.7 Z M37,476.6 L39.1,481.9 L38.9,482.9 L36,482.6 L34.2,478.6 L32.4,477.1 L30,477.1 L29.8,474.5 L31.6,472.1 L32.7,474.5 L34.2,476 L37,476.6 Z M34.4,510.1 L38.1,510.9 L41.8,511.9 L42.6,512.9 L41,516.6 L37.9,516.4 L34.5,512.8 L34.4,510.1 Z M13.7,496 L14.8,498.6 L15.9,500.2 L14.8,501 L12.7,497.9 L12.7,496 L13.7,496 Z M0,569.1 L3.4,566.8 L6.8,565.8 L9.4,566.1 L9.9,567.7 L11.8,568.2 L13.7,566.3 L13.4,564.7 L16.1,564.1 L19,566.7 L17.9,568.5 L13.5,569.6 L10.8,569.1 L7.1,568 L2.7,569.5 L1.1,569.8 L0,569.1 Z M48.9,564.6 L50.5,566.5 L52.6,564.9 L51.1,563.6 L48.9,564.6 Z M51.8,567.6 L52.9,565.3 L55,565.6 L54.2,567.5 L51.8,567.5 L51.8,567.6 Z M75.4,565.7 L76.9,567.5 L77.9,566.4 L77.1,564.5 L75.4,565.7 Z M84.2,553.2 L85.3,559 L88.2,559.8 L93.2,556.9 L97.6,554.3 L96,551.9 L96.5,549.5 L94.4,550.8 L91.5,550 L93.1,548.9 L95,549.7 L98.9,547.9 L99.4,546.4 L97,545.6 L97.8,543.7 L95.1,545.6 L90.4,549.2 L85.6,552.1 L84.2,553.2 Z M126.5,533.4 L128.9,531.9 L127.9,530.1 L126.1,531.1 L126.5,533.4 Z" id="AK" fill-rule="nonzero"></path>
                    <path d="M224.1,513.3 L226,509.7 L228.3,509.4 L228.6,510.2 L226.5,513.3 L224.1,513.3 Z M234.3,509.6 L240.4,512.2 L242.5,511.9 L244.1,508 L243.5,504.6 L239.3,504.1 L235.3,505.9 L234.3,509.6 Z M265,519.6 L268.7,525.1 L271.1,524.8 L272.2,524.3 L273.7,525.6 L277.4,525.4 L278.4,523.9 L275.5,522.1 L273.6,518.4 L271.5,514.8 L265.7,517.7 L265,519.6 Z M285.2,528.5 L286.5,526.6 L291.2,527.6 L291.8,527.1 L297.9,527.7 L297.6,529 L295,530.5 L290.6,530.2 L285.2,528.5 Z M290.5,533.7 L292.4,537.6 L295.5,536.5 L295.8,534.9 L294.2,532.8 L290.5,532.5 L290.5,533.7 Z M297.5,532.5 L299.8,529.6 L304.5,532 L308.9,533.1 L313.3,535.8 L313.3,537.7 L309.7,539.5 L304.9,540.5 L302.5,539 L297.5,532.5 Z M314.1,548.1 L315.7,546.8 L319.1,548.4 L326.7,552 L330.1,554.1 L331.7,556.5 L333.6,560.9 L337.6,563.5 L337.3,564.8 L333.4,568 L329.2,569.5 L327.7,568.9 L324.6,570.7 L322.2,573.9 L319.9,576.8 L318.1,576.6 L314.5,574 L314.2,569.5 L314.8,567.1 L313.2,561.4 L311.1,559.6 L310.9,557 L313.2,556 L315.3,552.9 L315.8,551.9 L314.2,550.1 L314.1,548.1 Z" id="HI" fill-rule="nonzero"></path>
                    <polygon id="AZ" points="126.1 383.7 125.8 385.2 126.3 386.2 145.2 396.9 157.3 404.5 172 413.1 188.8 423.1 201.1 425.5 226.5 428.2 232.5 388.6 239.5 335.5 243.9 304.5 219.3 300.9 158.6 289.9 158.4 291 155.8 307.5 153.7 311.3 150.9 311.1 149.7 308.5 147.1 308.1 145.9 307 144.8 307.1 142.7 308.8 142.4 315.6 142.1 317.1 141.6 329.6 140.1 332 139.7 335.3 142.5 340.3 143.6 345.8 144.3 346.9 145.4 347.8 145 350.2 143.3 351.4 139.9 353 138.3 354.8 136.7 358.4 136.2 363.3 133.2 366.2 131.3 367.1 131.2 372.9 130.6 374.5 131.1 375.3 135 375.7 134.1 378.7 132.4 381.1 128.7 381.5"></polygon>
                    <path d="M113.7,379.9 L94,377.2 L84,375.7 L83.5,373.9 L83.5,364.5 L83.2,361.3 L80.6,357.1 L79.8,354.8 L75.9,350.6 L73,345.9 L70.3,345.7 L67.1,344.9 L66.8,343.9 L68.3,343.3 L67.7,340.1 L66.2,338 L61.4,337.2 L57.5,335.1 L56.4,332.8 L53.8,328 L50.9,324.9 L48,324.9 L44.1,322.8 L39.6,321 L35.4,320.5 L33,317.8 L33.5,315.9 L35.3,308.8 L36.1,306.9 L36.1,304.5 L34.5,303.5 L34,300.6 L32.5,298 L29.1,292.2 L27.8,289.1 L26.3,284.4 L24.7,279.1 L21.5,274.7 L21,271.8 L21.8,267.9 L22.9,267.9 L25,266.3 L26.1,262.7 L25.1,260 L22.4,259.5 L20.5,256.9 L18.4,253.2 L18.2,245 L18.8,243.1 L19.4,240.8 L19.9,238.4 L14.2,232.1 L14.2,230 L14.5,229.5 L14.8,226.3 L13.5,222.3 L11.2,217.5 L8.5,213 L6.7,209.1 L7.7,205.4 L8.3,199.6 L10.1,196.5 L10.4,190 L9.3,186.4 L7.7,182.2 L5,178 L5.8,174.8 L7.3,170.6 L9.1,169.8 L9.4,168.7 L12.5,166.1 L17.7,154.3 L17.9,146.9 L19.59,142 L58.28,153.8 L83.88,160.4 L75.88,191.7 L67.21,224.8 L79.84,244 L122,306.3 L139.1,332.4 L138.7,335.5 L141.5,340.7 L142.6,346.1 L143.6,347.6 L144.3,348.2 L144.1,349.6 L142.7,350.6 L139.3,352.2 L137.4,354.3 L135.7,358.2 L135.2,362.9 L132.6,365.4 L130.3,366.5 L130.2,372.7 L129.6,374.6 L130.6,376.3 L133.6,376.6 L133.2,378.2 L131.8,380.2 L127.9,380.8 L113.7,379.9 Z M39.8,331 L41.1,332.5 L40.9,333.8 L37.7,333.7 L37.1,332.5 L36.5,331 L39.8,331 Z M41.7,331 L42.9,330.4 L46.5,332.5 L49.6,333.7 L48.7,334.3 L44.2,334.1 L42.6,332.5 L41.7,331 Z M62.4,350.8 L64.2,353.1 L65,354.1 L66.5,354.7 L67.1,353.2 L66.1,351.4 L63.4,349.4 L62.3,349.6 L62.3,350.8 L62.4,350.8 Z M61,359.5 L62.8,362.7 L64,364.6 L62.5,364.8 L61.2,363.6 C61.2,363.6 60.5,362.1 60.5,361.7 C60.5,361.3 60.5,359.5 60.5,359.5 L61,359.5 Z" id="CA" fill-rule="nonzero"></path>
                    <polygon id="CO" points="371.2 229.5 335.2 226 256.1 217.4 253.9 239.5 246.9 289.9 245 303.6 279 307.5 316.5 311.9 351.2 314.9 365.5 315.5"></polygon>
                    <polygon id="ID" points="166.3 21.63 161.5 39.04 157 59.9 153.6 76.12 153.2 85.79 154.4 90.23 157.9 92.89 157.7 96.8 153.8 101.2 149.3 107.8 148.4 110.7 147.2 111.8 145.4 112.6 141.1 117.9 140.7 121 140.3 122.1 140.9 123.1 143.5 123 144.6 125.3 142.2 131.1 141 135.3 132.2 170.6 152.9 175.1 192.4 183 227.2 189.1 232.1 159.9 235.9 135.8 233.2 133.4 232.8 130.8 232 129.7 229.9 130.7 229.2 133.3 226 133.8 222.1 132.2 218.3 132.3 215.8 133 212.4 131.5 210 131.7 207.6 133.7 205.6 132.6 204.9 128.6 205.6 125.7 203.1 122.8 199.8 120.2 197.1 107.1 197 102.4 196.7 102.3 196.5 102.7 191.4 106.2 189.7 106 186.8 102.6 186.6 99.5 193.6 82.37 193.2 80.43 189.8 79.28 189.2 78.1 186.6 74.64 182 64.41 178.8 62.88 176.8 57.93 178.1 53.3 174.9 45.72 179.3 24.2"></polygon>
                    <polygon id="MT" points="352.1 64.77 346.8 121.9 345.5 137.1 286.4 130.5 237.4 123.4 236 134.6 234.1 132.9 233.7 130.4 232.4 128.5 229.1 130 228.4 132.5 226.1 132.8 222.3 131.2 218.2 131.3 215.8 132 212.6 130.5 209.6 130.7 207.5 132.6 206.6 132 205.9 128.6 206.6 125.4 203.9 122.2 200.6 119.7 198.1 107.1 198 101.8 196.4 101 195.8 102 191.3 105.2 190.1 105.1 187.8 102.3 187.6 99.5 194.6 82.35 194 79.68 190.5 78.56 190.1 77.65 187.4 74.15 182.8 63.74 179.6 62.16 177.8 57.9 179.1 53.27 175.9 45.7 180.3 24.41 213 31.3 231.4 34.7 263.7 40 293 44 322.2 47.5 353 50.57"></polygon>
                    <polygon id="NM" points="261.2 423.4 244.5 420.8 243.3 430.4 227.5 428.4 233.5 388.7 240.5 335.5 244.9 304.6 278.9 308.5 316.3 312.9 348.3 315.7 348 326.5 346.6 326.4 339.2 424.1 310.8 422.3 272.7 418.6 273.4 424.9"></polygon>
                    <polygon id="NV" points="114.1 167.6 152.8 176.1 178.8 181.3 168.2 234.4 162.8 264.2 159.5 279.7 157.4 290.8 154.8 307.2 153.1 310.3 151.5 310.2 150.3 307.6 147.5 307.1 146.2 306 144.4 306.1 143.5 306.9 141.7 308.2 141.4 315.5 141.1 317 140.6 329.4 139.5 331.2 122.8 305.7 80.7 243.6 68.27 224.6 76.82 192 84.83 160.7"></polygon>
                    <polygon id="OR" points="58.44 152.9 86.68 160.1 114.2 166.6 131.2 170.3 140 135.2 141.2 130.8 143.6 125.3 142.9 124 140.4 124.1 139.1 122.3 139.7 120.8 140.1 117.5 144.8 111.8 146.7 110.9 147.6 110.1 148.3 107.4 149.1 106.3 153 100.6 156.7 96.6 156.9 93.34 153.5 90.85 152.3 86.3 139.2 82.47 123.9 79 109.1 79.37 108 78.06 102.9 79.9 98.4 79.42 96 77.84 94.7 78.38 90.02 78.09 88.06 76.66 83.22 74.89 82.12 74.82 77.67 73.55 75.91 75.07 69.65 74.83 64.34 70.98 64.55 61.7 62.5 58.2 58.4 57.6 57.7 55.1 55.3 54.6 49.5 56.7 47.2 63.2 44 73.2 40.8 79.7 35.8 93.8 29.3 107.4 21.2 120 19.3 122.9 18.5 131.5 17.2 137.5 19.91 141"></polygon>
                    <polygon id="UT" points="219.4 299.9 244 303.5 245.9 289.8 252.9 239.3 255.2 217.3 223 213.8 225.2 200.7 227 190.1 192.3 184 179.8 181.5 169.2 234.4 163.8 264.4 160.5 279.8 158.8 289"></polygon>
                    <path d="M65.5,61.7 L63.2,57.4 L59.1,56.7 L58.7,54.3 L56.2,53.7 L53.3,53.2 L51.5,54.2 L49.2,51.3 L49.5,48.4 L52.2,48.1 L53.8,44.1 L51.2,43 L51.4,39.3 L55.8,38.7 L53.1,36 L51.6,28.9 L52.2,26 L52.2,18.1 L50.4,14.9 L52.7,5.5 L54.8,6 L57.2,8.9 L59.9,11.5 L63.1,13.4 L67.6,15.5 L70.7,16.1 L73.6,17.6 L77,18.6 L79.3,18.4 L79.3,16 L80.6,14.9 L82.7,13.6 L83,14.7 L83.3,16.5 L81,17 L80.7,19.1 L82.5,20.6 L83.6,23 L84.2,24.9 L85.7,24.7 L85.9,23.4 L84.9,22.1 L84.4,18.9 L85.2,17.1 L84.6,15.6 L84.6,13 L86.4,9.4 L85.3,6.8 L82.9,2 L83.2,1.2 L84.6,0.4 L89,1.9 L98.7,4.6 L107.3,6.5 L127.3,12.2 L150.3,17.9 L165.3,21.39 L160.5,38.95 L156,59.78 L152.6,76.03 L152.2,85.21 L152.2,85.21 L139.3,81.49 L124,78.02 L109.5,78.34 L108.4,76.81 L102.7,78.9 L98.8,78.48 L96.2,76.69 L94.5,77.34 L90.35,77.09 L88.63,75.77 L83.47,73.95 L82.29,73.79 L77.49,72.4 L75.57,74.05 L69.92,73.8 L65.31,70.45 L65.5,61.7 Z M75.1,6.3 L77.1,6.1 L77.6,7.5 L79.1,5.9 L81.4,5.9 L82.2,7.4 L80.7,9.1 L81.3,9.9 L80.6,11.9 L79.2,12.3 C79.2,12.3 78.3,12.4 78.3,12.1 C78.3,11.8 79.8,9.5 79.8,9.5 L78.1,8.9 L77.8,10.4 L77.1,11 L75.6,8.7 L75.1,6.3 Z" id="WA" fill-rule="nonzero"></path>
                    <polygon id="WY" points="344 155.9 342.5 181.3 338.1 225.3 335.4 225 252.1 215.9 224.2 212.9 226.2 200.9 233.1 159.9 236.9 135.7 238.2 124.5 286.4 131.5 345.5 138"></polygon>
                    <path d="M575.9,554.6 C575.9,554.6 576,554.6 576,554.6 C576.4,554.6 576.8,554.7 577.3,554.8 C577.9,554.9 578.1,555.6 578.6,555.7 C579.1,555.9 579.2,556.3 579.6,556.6 C579.7,556.7 579.8,556.9 579.9,556.9 C580.6,557.5 579.1,558.1 580.8,557.7 C580.8,557.7 582.1,558.2 582.3,558.2 C582.9,558.3 583.6,558.3 584.1,558.4 C584.7,558.5 583.5,559.3 583.2,559.8 C582.9,560.2 583.1,560.9 583.1,561.4 C583.1,562 583,562.4 582.8,562.8 C582.7,563.3 582.3,563.6 582,563.8 C581.7,564.1 581.1,564.3 580.6,564.4 C580,564.5 580,564.9 579.1,564.9 C578.7,564.9 578.6,565.9 578.5,566.2 C578.1,566.8 577.4,566.2 577.1,567 C576.9,567.5 576.6,567.5 576.2,567.8 C575.8,568.1 575.3,568.3 574.9,568.4 C574.3,568.7 573.9,568.9 573.1,568.9 C572.8,568.9 572.2,569.8 572.1,569.9 C571.7,570.3 571.6,570.6 571.2,570.8 C571,570.9 570,570.7 569.6,570.8 C569.5,570.8 569.6,572.2 569.6,572.4 C569.6,572.6 568.8,573 568.7,573.1 C568.6,573.3 569,574.3 569,574.7 C569,575.2 569,575.8 568.9,576.2 C568.8,576.7 568.8,577.2 568.1,577.2 C567.4,577.2 568.5,578 568.6,578.1 C568.8,578.3 568.8,579.2 568.9,579.5 C569.1,580.2 568.5,580.4 568.5,581 C568.5,581 567.5,581.6 567.4,581.6 C567,581.8 566.7,582.2 566.4,582.4 C565.9,582.8 565.8,583 565.4,583.3 C565,583.6 564.4,583.6 563.8,583.7 C563.2,583.8 562.7,583.9 562,583.9 C561.6,583.9 561.1,583.3 560.9,583.1 C560.4,582.6 560.2,583.3 559.9,582.4 C559.9,582.3 559.5,581.6 559.4,581.2 C559.2,580.6 559.3,580.3 559.1,579.8 C559,579.4 558.6,579.2 558.5,578.8 C558.3,578.3 558.4,577.7 558.1,577.2 C557.8,576.7 557.2,576.9 557.2,576 C557.2,575.3 557.5,575.2 557.8,574.7 C558,574.4 558.2,573.8 558.3,573.4 C558.4,573 558.9,572.5 559.1,572.1 C559.1,572 559,571.7 559,571.5 L555.9,569.1 C556.5,568.2 556.6,568.5 557.5,569.1 C558,569.4 558.4,569.4 559,569.3 C559.5,569.2 559.4,568 559.4,569 C559.4,569.7 559.2,568.9 559.9,568.7 C561.1,568.3 561,568.4 560,569 C559.8,569.1 561.1,569.5 560.8,568.5 C560.6,568 559.8,568.5 560,567.7 C560.1,567.4 561.9,567.8 562,567.8 C562.5,567.9 562.9,567.2 563.5,567.2 C564,567.2 564.7,567 565.4,567 C565.9,567 566.8,566.8 567.2,566.7 C568,566.5 568.3,566.5 568.8,566.2 C569.2,566 568.6,564.8 568.5,564.7 C568.3,564.2 570.2,564.7 570.3,564.7 C571.1,564.8 571.2,564 571.3,563.7 C571.5,563 571.6,562.8 572.3,562.5 C573.1,562.2 573.3,561.7 573.3,561 C573.3,560 573.7,559.7 573.9,558.9 C574,558.3 573.8,558.1 574.3,557.5 C574.9,556.9 575.2,556.7 575.6,556.1 C575.9,555.6 575.9,555.2 575.9,554.6 C575.9,554 576.1,554 575.5,553.6" id="GU"></path>
                    <path d="M636.5,552.7 L637.6,552 L638.5,551.4 L636.5,552.7 Z M636.6,558.3 L638.6,560.3 L638.4,558.4 L636.6,558.3 Z M641.2,564.2 L642.5,567.5 L642.5,567.5 L643.8,564.2 L641.2,564.2 Z M646.4,570.8 L646.4,574.1 L648.4,574.8 L649.1,571.5 L646.4,570.8 Z M655.1,579.2 L653.4,582.3 L654,584.2 L656.9,585.4 L658.1,583.5 L658.1,580.4 L655.1,579.2 Z" id="MP" fill-rule="nonzero"></path>
                    <path d="M600.5,576.5 C600.7,576.4 601,575.9 601.2,575.6 C601.5,575.1 600.9,575 601.6,574.9 C601.9,574.8 602.3,575.3 602.4,575.4 C602.6,575.6 602.8,575.8 602.9,575.3 C603,575.1 603.6,574.4 603.8,574.2 C604.1,574 604.4,574 604.7,573.7 C604.9,573.5 605.2,573.3 605.4,573.1 C605.7,572.8 605.8,572.7 606,572.4 C606.2,572.1 606.4,571.9 606.6,571.7 C607,571.3 605.6,571.5 605,571.5 C604.8,571.5 605.3,570.9 605.3,570.7 C605.4,570.3 605.5,570.3 605.9,570.2 C606.5,570.1 606.5,570.3 606.5,570.8 C606.5,571.1 607,570.4 607,570.1 C607.1,569.7 607.4,569.5 607.7,569.4 C608,569.2 608.4,569.2 608.6,569 C609,568.8 609,568.8 608.9,568.5 C608.8,568.3 609,567.9 608.9,567.6 C608.8,567.1 609.4,567.5 609.1,567 C609,566.8 608.3,566.6 608.2,566.6 C607.8,566.4 607.5,566.5 607.1,566.3 C606.7,566.1 606.8,566 607,565.7 C607.1,565.6 608,565.7 608.1,565.8 C608.5,565.9 608.9,565.9 609.3,565.9 C609.8,565.9 610.1,565.9 610.5,566.1 C610.8,566.2 610.7,566.5 610.7,567 C610.7,567.5 610.6,567.7 611,567.8 C611.5,567.9 611.7,567.8 612,567.6 C612.1,567.5 613.1,567.4 613.2,567.4 C613.6,567.3 613.9,567.2 614.1,567 C614.4,566.7 614.8,566.5 615,566.4 C615.3,566.1 615.6,566.1 615.9,566 C616.4,565.9 616.6,566.2 616.8,566.4 C617,566.6 616.9,567.1 616.9,567.4 C616.9,567.6 618.3,567.1 618.4,567 C618.8,566.8 619.1,566.9 619.3,566.6 C619.7,566.3 619.4,566 620,566.2 C620.4,566.3 620.7,566.1 621.1,566 C621.5,565.9 621.4,565.7 621.4,565.2 C621.4,564.8 621.4,564.5 621.4,564.1 C621.4,563.6 621.1,563.7 620.7,563.6 C620.4,563.5 619.9,563.7 619.8,563.9 C619.5,564.2 619.4,564.1 619.3,564.5 C619.2,564.9 619.1,565 618.8,565.1 C618.6,565.2 618.3,564.7 617.9,564.7 C617.5,564.7 617.3,564.5 617,564.3 C616.7,564.1 616.4,564.1 615.9,564.1 C615.7,564.1 615.5,564.5 615.1,564.6 C614.8,564.7 614.2,564.6 614.1,564.6 C613.8,564.6 614.5,563.8 614.5,563.8 C614.9,563.6 615.5,563.8 614.6,563.5 C614.3,563.4 613.8,563.6 613.4,563.6 C612.8,563.6 612.8,563.7 612.8,564.2 C612.8,564.7 612.5,564.6 612,564.6 C611.7,564.6 611.8,564 611.5,563.9 C611,563.8 611.1,564.2 610.9,563.5 C610.8,563.2 610.3,563.5 610,563.7 C609.8,563.9 609.3,563.6 609.8,563.5 C610.3,563.4 609.6,562.9 609.3,562.9 C608.8,562.9 608.9,563.2 608.6,563.5 C608.3,563.8 608,563.6 607.8,564.1 C607.7,564.3 607.2,564.4 606.9,564.5 C606.5,564.7 606.2,564.8 605.9,565 C605.4,565.2 604.8,565.1 604.3,565.1 C604,565.1 604.5,565.6 604.5,565.9 C604.5,566.3 604.5,566.6 604.5,567 C604.5,567.6 604.4,567.4 603.9,567.6 C603.6,567.7 603.4,567.3 603,567.3 C602.5,567.3 602.4,567.5 602.4,567.9 C602.4,568.4 602,568.1 601.6,568.3 C601.2,568.5 600.8,568.6 600.8,568.1 C600.8,567.7 600.4,567.7 600,567.6 C599.5,567.5 599.5,567.9 599.1,568.1 C598.7,568.3 598.3,568.2 597.9,568.4 C597.8,568.4 597.6,567.9 597.4,567.8 C597,567.7 596.4,567.9 596.1,567.9 C595.6,568 595.9,568.3 595.3,568.3 C594.9,568.3 594.5,568.4 594.3,568.5 C594.1,568.6 594.7,568.9 593.8,568.9 C593.2,568.9 593.1,569 592.9,569.3 C592.7,569.7 592.9,569.9 592.2,570 C592,570 591.6,570.5 591.6,570.6 C591.5,570.9 590.6,570.9 591.3,571 C591.7,571.1 592,571.1 592.5,571.2 C592.9,571.3 593.3,571.4 593.6,571.6 C593.9,571.7 594.5,571.6 594.7,571.5 C595.1,571.4 595.1,571.3 595.6,571.5 C595.9,571.6 595.9,572 596.1,572.1 C596.4,572.2 597.2,572.2 597.5,572.2 C597.6,572.2 597.6,573.1 597.7,573.2 C597.8,573.4 597.9,573.8 597.9,574.1 C597.9,574.2 598.6,574.5 598.8,574.6 C599,574.8 599.3,574.9 599.6,575 C600,575.1 600.2,575.1 600.5,575.3 C600.7,575.8 600.4,576.2 600.5,576.5 Z" id="AS"></path>
                </g>
                <g id="South" transform="translate(273.000000, 172.000000)">
                    <polygon id="AL" fill="#CCEBC5" points="346.5 288.4 347.1 288.6 348.4 285.9 349.9 281.5 352.2 282.1 355.3 288.1 355.3 289.1 352.6 291 355.3 291.3 360.5 288.8 360.2 281.2 357.7 279.4 355.7 277.4 356.1 273.4 366.6 271.9 392.3 269 399 268.4 404.6 268.5 404.1 266.3 402.6 265.5 401.7 264.4 402.7 261.8 402.3 256.6 400.7 252.1 401.5 247 403.2 242.2 403 240.5 401.2 239.8 400.7 236.2 398 232.8 396 226.3 394.6 219.6 392.8 214.6 389 198.6 385.5 190.7 384.7 185.1 384.8 182.9 375.8 183.7 352.4 185.9 340.2 186.7 340 193.1 340.2 209.8 339.5 240.8 339.2 254.9 342 273.7 343.6 288.4"></polygon>
                    <polygon id="AR" fill="#CCEBC5" points="305.3 168.1 298.9 167.4 299.8 164.3 302.9 161.7 303.5 159.4 301.7 156.5 269.8 157.7 246.5 158.4 222.9 158.7 224.4 165.6 224.5 174.1 225.9 185 226.2 223.2 228.3 224.8 231.3 223.6 234.2 224.8 234.6 234.9 259.8 234.7 286.6 233.9 287.5 232 287.2 228.2 285.5 225.1 287 223.7 285.6 221.5 286.3 219.1 287.4 213.2 290.1 210.9 289.3 208.7 293.3 203.1 295.8 202 295.7 200.3 295.2 198.6 298.1 192.8 300.6 191.7 300.8 188.4 302.9 187 303.8 182.9 302.4 178.9 306.6 176.5 306.9 174.4 308.1 170.2 309 167.1"></polygon>
                    <path d="M468.2,267.2 L463,266.5 L462.3,267.3 L463.8,271.7 L463.4,276.9 L459.3,275.9 L459.1,273.1 L455,273.1 L449.7,273.8 L417.3,275.7 L409.1,275.4 L407.4,273.7 L404.9,269.5 L399,269.5 L392.4,270 L357,274.2 L356.7,277 L358.3,278.6 L361.2,280.6 L361.5,289 L364.8,288.4 L370.8,286.3 L376.8,285.8 L381.2,285.2 L388.8,287 L396.9,290.9 L398.5,292.4 L401.4,293.5 L403,295.4 L403.3,298.1 L406.5,296.8 L410.4,296.8 L414,294.9 L417.7,291.3 L420.8,291.5 L421.3,290.4 L420.5,289.4 L420.7,287.5 L424.7,286.7 L427.3,286.7 L430.2,288.2 L434.4,289.7 L436.8,293.4 L439.5,294.4 L440.6,297.8 L444,299.4 L445.6,302 L447.5,302.6 L452.7,303.9 L454,307 L457,310.7 L457,320.2 L455.5,324.9 L455.8,327.6 L457.1,332.4 L458.9,336.4 L459.7,335.9 L461.2,331.4 L458.6,330.4 L458.3,329.8 L459.9,329.2 L464.4,330.2 L464.6,331.8 L461.4,337.3 L459.3,339.7 L462.9,343.4 L465.5,346.5 L468.4,351.8 L471.3,355.7 L473.4,360.7 L475.2,361 L476.8,358.9 L478.6,360 L481.2,364 L481.8,367.6 L484.9,372 L485.7,370.7 L489.6,371 L493.2,373.3 L496.6,378.5 L497.4,381.9 L497.7,384.8 L498.8,385.8 L500.1,386.3 L502.5,385.3 L504,383.7 L507.9,383.5 L511,382 L513.7,378.8 L513.2,376.9 L512.9,374.5 L513.5,372.6 L513.2,370.7 L515.6,369.4 L515.9,366 L515.3,364.2 L514.8,352.2 L513.5,344.6 L509,336.4 L505.4,330.6 L502.8,325.3 L499.9,322.4 L497,315 L497.7,313.6 L498.8,312.3 L497.2,309.4 L493.2,305.7 L488.4,300.2 L484.7,293.9 L479.4,284.5 L475.7,274.8 L473.4,267.5 L468.2,267.2 Z M485.9,399.9 L488.3,399.3 L489.6,399.1 L491.1,396.8 L493.4,395.2 L494.7,395.7 L496.4,396 L496.8,397.1 L493.3,398.3 L489.1,399.8 L486.8,401 L485.9,399.9 Z M499.4,394.9 L500.6,396 L503.3,393.9 L508.6,389.7 L512.3,385.8 L514.8,379.2 L515.8,377.5 L516,374.1 L515.3,374.6 L514.3,377.4 L512.8,382 L509.6,387.3 L505.2,391.5 L501.8,393.4 L499.4,394.9 Z" id="FL" fill="#CCEBC5" fill-rule="nonzero"></path>
                    <polygon id="GA" fill="#CCEBC5" points="468.2 266.2 462.6 265.5 461.2 267.1 462.8 271.8 462.5 275.7 460.3 275.1 460.1 272.1 454.9 272.1 449.6 272.8 417.3 274.7 409.6 274.4 408.2 273.2 405.7 268.9 404.9 265.6 403.3 264.7 402.8 264.2 403.7 262 403.3 256.5 401.7 252 402.5 247.1 404.2 242.3 404 239.8 402.1 239.1 401.7 235.9 398.9 232.4 397 226.2 395.5 219.2 393.8 214.4 390 198.4 386.5 190.4 385.7 185.1 385.8 182.8 389.1 182.5 402.7 180.9 421.3 178.9 427.6 177.8 428.1 179.2 425.9 180.1 425 182.3 425.4 184.3 426.8 185.9 431.1 188.6 434.3 188.5 437.5 193.2 438.1 194.8 440.4 197.6 440.9 199.3 445.6 201.1 448.6 203.3 450.9 206.3 453.2 207.6 455.2 209.4 456.6 212.1 458.7 214 462.8 215.8 465.5 221.8 467.2 226.9 470 227.6 472.1 229.5 474.1 235.2 477 236.8 478.7 236 479.1 237.2 475.8 243.4 476.3 246 474.8 250.2 472.5 260.2 473.3 266.5"></polygon>
                    <polygon id="LA" fill="#CCEBC5" points="244.9 307.9 253 307.6 263.3 311.2 269.8 312.3 273.5 310.8 276.7 311.9 279.9 312.9 280.7 310.8 277.5 309.7 274.9 310.2 272.2 308.6 273 307.1 276.1 306.1 277.9 307.6 279.7 306.6 282.9 307.2 284.4 309.6 284.7 311.9 289.2 312.2 291 314 290.2 315.6 288.9 316.4 290.5 318 298.9 321.6 302.5 320.3 303.5 317.9 306.1 317.3 307.9 315.8 309.2 316.8 310 319.7 307.7 320.5 308.3 321.1 311.7 319.8 314 316.4 314.8 315.9 312.7 315.6 313.5 314 313.3 312.5 315.4 312 316.5 310.7 317.1 311.5 317.7 314.6 321.9 315.2 325.9 317.1 326.9 318.6 329.8 318.6 330.9 319.6 333.2 316.5 333.2 315 331.9 315 328.5 312.3 322.7 311.5 319.5 309.2 320.6 306.5 322.9 306.8 323.1 306.2 321.3 305.2 321.3 304.7 324.5 304.7 326.3 301.6 325 299.7 324.7 297 323.2 297.2 321.3 299.3 320.7 301.9 317.6 301.3 316.6 299.5 318.4 297.6 320.3 295.9 318.1 289.4 314.7 286 315.7 278.7 315.5 278.2 314.2 278.4 281.1 279.8 280.3 277.4 281.1 268.9 289.7 254.1 288.8 251.5 290.2 251.1 290.6 249.1 288.4 247.1 288.5 245.2 286.5 240.7 286.1 235.6 286.2 234.9 259.8 235.7 234.6 235.8 235 245.5 235.7 255 236.2 258.7 238.8 263.2 239.7 267.6 244 273.6 244.3 276.7 244.9 277.5 244.2 285.8 241.4 290.4 242.6 292.8 242.1 295.4 241.3 302.7 240 305.7 240.2 309.4"></polygon>
                    <polygon id="MS" fill="#CCEBC5" points="322.3 294.5 324.9 290.3 326.7 291.1 333.5 289.2 335.6 289.5 337.1 290.3 342.3 290.3 342.7 288.7 341 273.9 338.2 254.9 339.2 209.8 339 193.1 339.2 186.8 334.4 187.1 314.8 188.7 301.8 189.1 301.6 192.3 298.8 193.6 296.2 198.7 296.7 200.3 296.8 202.7 293.9 203.8 290.4 208.9 291.2 211.2 288.2 213.7 287.2 219.4 286.6 221.3 288.2 223.8 286.7 225.2 288.2 228 288.5 232.2 287.3 234.7 287.1 235.6 287.5 240.6 289.5 245.1 289.4 246.8 291.7 248.8 291 251.9 290.1 252.2 290.7 254.1 282.1 269.1 281.3 277.3 281.8 278.8 306 278.1 314.2 277.4 316.1 277.1 316.7 278.5 315.7 285.6 319 288.9 321.2 295.3"></polygon>
                    <path d="M504.7,179.7 L492,172 L488.9,171.2 L472.3,173.3 L470.7,170.3 L467.9,168.1 L451.2,168.6 L443.8,169.5 L434.6,174 L427.8,176.7 L421.3,177.9 L407.9,179.3 L408,175.2 L409.7,173.9 L412.4,173.2 L413.1,169.4 L417,166.9 L420.9,165.4 L425.4,161.7 L429.8,159.4 L430.5,156.2 L434.6,152.4 L435.3,153.4 L437.8,153.6 L440.2,150 L441.9,149.6 L444.5,149.9 L446.3,145.9 L448.8,143.5 L449.3,141.7 L449.4,138.2 L453.8,138.3 L492.3,132.7 L549.8,120.4 L551.8,125.2 L555.4,131.7 L557.8,134.1 L558.4,136.4 L556,136.6 L556.8,137.2 L556.5,141.4 L553.9,142.7 L553.3,144.8 L552,147.7 L548.3,149.3 L545.9,149 L544.4,148.8 L542.8,147.5 L543.1,148.8 L543.1,149.8 L545,149.8 L545.8,151.1 L543.9,157.4 L548.1,157.4 L548.7,159 L551,156.7 L552.3,156.2 L550.4,159.8 L547.3,164.6 L546,164.6 L544.9,164.1 L542.2,164.7 L537,167.1 L530.5,172.4 L527.1,177.1 L525.2,183.6 L524.7,186 L520,186.5 L514.9,188 L504.7,179.7 Z M554,153.5 L556.6,151 L559.8,148.4 L561.3,147.8 L561.5,145.8 L560.9,139.7 L559.4,137.4 L558.8,135.5 L559.5,135.3 L562.2,140.8 L562.6,145.2 L562.4,148.6 L559,150.1 L556.2,152.5 L555.1,153.7 L554,153.5 Z" id="NC" fill="#CCEBC5" fill-rule="nonzero"></path>
                    <polygon id="OK" fill="#FBB4AE" points="129.9 156.9 128.1 181.2 127.2 199.2 127.4 200.8 131.4 204.4 133.1 205.3 134 205.3 134.9 203.2 136.4 205.1 138 205.2 138.3 205 138.5 203.9 141.3 205.3 140.9 208.8 144.7 209.3 147.2 210.3 151.4 210.9 153.7 212.5 156.2 210.8 159.7 211.5 161.9 214.6 163.1 214.7 163.1 217 165.2 217.7 167.7 215.6 169.5 216.2 172.2 216.3 172.9 218.6 177.3 220.4 179 220.1 180.9 215.9 182.2 215.9 183.3 218 187.5 218.8 190.9 220.1 193.9 220.9 195.5 220.2 196.2 217.5 200.7 217.5 202.6 218.4 205.3 216.5 206.7 216.5 207.3 217.9 210.9 217.9 212.9 216.1 215.2 216.7 216.9 218.9 219.9 220.6 223.3 221.5 225.2 222.7 224.9 185.1 223.5 174.2 223.4 165.6 221.9 159 221.3 152.2 221.4 147.9 208.8 148.2 162.5 147.7 117.8 145.6 76.3 143.8 75.9 154.5"></polygon>
                    <polygon id="SC" fill="#CCEBC5" points="477 235.6 474.9 234.6 473 229 470.5 226.7 468 226.2 466.5 221.6 463.5 215.1 459.3 213.3 457.4 211.5 456.2 208.9 453.8 206.9 451.5 205.6 449.3 202.7 446.1 200.3 441.7 198.6 441.3 197.2 439 194.4 438.5 192.9 434.7 187.5 431.3 187.6 427.4 185.1 426.2 183.9 426 182.5 426.6 180.9 429.3 179.6 428.5 177.6 434.9 174.9 444.1 170.4 451.2 169.5 467.6 169 469.9 170.9 471.7 174.4 476.3 173.6 488.9 172.1 491.6 172.9 504.1 180.3 514.2 188.6 508.9 194 506.3 200.1 505.8 206.4 504.2 207.2 503.1 209.9 500.7 210.5 498.6 214.1 495.9 216.8 493.6 220.2 492 221 488.4 224.4 485.5 224.6 486.5 227.8 481.5 233.1 479.2 234.7"></polygon>
                    <polygon id="TN" fill="#CCEBC5" points="388.8 181.6 375.7 182.8 352.4 185 314.8 187.7 303 188.1 303.9 187.5 304.8 183 303.6 179.4 307.5 177.1 307.9 174.6 309.1 170.3 312.1 160.8 312.6 155.2 312.9 155 325.2 154.8 338.8 154 338.9 150.1 342.4 150 372.8 146.7 426.8 141.5 437.1 140 444.7 139.8 447.1 137.9 448.4 138.2 448.3 141.5 447.9 143.1 445.5 145.3 443.9 148.9 441.9 148.5 439.5 149.4 437.3 152.7 435.9 152.5 435.1 151.3 434 151.7 429.7 155.7 428.9 158.8 424.7 161 420.4 164.6 416.6 166.1 412.2 168.9 411.6 172.5 409.1 173 407.1 174.7 406.9 179.5"></polygon>
                    <path d="M0.8,247.6 L37.8,251.2 L67.1,253.1 L74.5,155.4 L128.9,157.8 L127.2,181.1 L126.2,199.1 L126.4,201.1 L130.8,205.2 L132.8,206.3 L134.6,206.3 L135.1,205.1 L135.8,206 L138.2,206.2 L139.3,205.6 L139.3,205.4 L140.3,205.9 L139.9,209.6 L144.4,210.3 L146.8,211.2 L151,211.9 L153.6,213.7 L156.4,211.8 L159.1,212.4 L161.3,215.5 L162.1,215.6 L162.1,217.7 L165.4,218.8 L167.9,216.7 L169.4,217.2 L171.5,217.3 L172.1,219.4 L177.3,221.4 L179.6,220.9 L181.5,216.9 L181.6,216.9 L182.7,218.8 L187.3,219.7 L190.7,221 L193.9,222 L196.3,220.8 L197,218.5 L200.6,218.5 L202.7,219.5 L205.7,217.5 L206.1,217.5 L206.6,218.9 L211.3,218.9 L213.2,217.1 L214.5,217.5 L216.2,219.6 L219.5,221.5 L222.9,222.5 L225.4,223.9 L228.1,225.9 L231.2,224.7 L233.3,225.5 L234,245.5 L234.7,255 L235.3,259.1 L237.9,263.5 L238.8,268 L243,273.9 L243.3,277 L243.9,277.8 L243.2,285.5 L240.3,290.3 L241.6,292.9 L241.1,295.3 L240.3,302.5 L239,305.5 L239.3,309.7 L233.7,311.3 L223.8,315.8 L222.8,317.7 L220.2,319.6 L218.1,321.1 L216.8,321.9 L211.1,327.2 L208.4,329.3 L203.1,332.5 L197.4,334.9 L191.1,338.3 L189.3,339.8 L183.5,343.4 L180.1,344 L176.2,349.5 L172.2,349.8 L171.2,351.7 L173.5,353.6 L172,359.1 L170.7,363.6 L169.6,367.5 L168.8,372 L169.6,374.4 L171.4,381.4 L172.4,387.5 L174.2,390.2 L173.2,391.7 L170.1,393.6 L164.4,389.7 L158.9,388.6 L157.6,389.1 L154.4,388.5 L150.2,385.4 L145,384.3 L137.4,380.9 L135.3,377 L134,370.5 L130.8,368.6 L130.2,366.3 L130.8,365.7 L131.1,362.3 L129.8,361.7 L129.2,360.7 L130.5,356.3 L128.9,354 L125.7,352.7 L122.3,348.3 L118.7,341.7 L114.5,339.1 L114.7,337.2 L109.4,324.9 L108.6,320.7 L106.8,318.8 L106.6,317.3 L100.6,312 L98,308.9 L98,307.8 L95.4,305.7 L88.6,304.6 L81.2,304 L78.1,301.7 L73.6,303.5 L70,305 L67.7,308.2 L66.7,311.9 L62.3,318 L59.9,320.4 L57.3,319.4 L55.5,318.3 L53.6,317.7 L49.7,315.4 L49.7,314.8 L47.9,312.9 L42.7,310.8 L35.3,303 L33,298.3 L33,290.2 L29.8,283.7 L29.3,281 L27.7,280 L26.6,277.9 L21.6,275.8 L20.3,274.2 L13.2,266.3 L11.9,263.1 L7.2,260.8 L5.7,256.4 L3.1,253.5 L1.4,253 L0.8,247.6 Z M175.2,389.3 L174.6,382.2 L171.9,375 L171.3,368 L172.8,359.8 L176.1,352.9 L179.6,347.5 L182.8,343.9 L183.4,344.1 L178.6,350.7 L174.2,357.2 L172.2,363.8 L171.9,369 L172.8,375.1 L175.4,382.3 L175.9,387.5 L176.1,389 L175.2,389.3 Z" id="TX" fill="#FBB4AE" fill-rule="nonzero"></path>
                    <text id="Central" font-family="SourceSansPro-Regular, Source Sans Pro" font-size="59" font-weight="normal" letter-spacing="3" fill="#FFFFFF">
                        <tspan x="170.997" y="58">Central</tspan>
                    </text>
                    <path d="M552.7,87.2 L552.5,90 L549.6,93.8 L549.2,98.4 L549.7,101.8 L547.9,106.8 L545.7,108.7 L544.2,104.1 L544.6,98.7 L546.2,94.5 L546.9,91.2 L546.8,89.5 L552.7,87.2 Z M492.4,131.8 L453.8,137.4 L449,137.3 L446.8,137 L444.3,138.9 L437,139 L426.7,140.6 L420,141.2 L424.1,138.6 L428.2,136.3 L428.2,134.2 L433.9,126.9 L438,123.2 L440.2,120.7 L443.8,125 L447.6,125.9 L450.3,124.9 L452.3,123.4 L454.7,124.6 L459.3,123.3 L461,118.9 L463.4,119.6 L466.6,117.3 L468.2,117.7 L471,114.5 L471.2,111.8 L470.4,110.6 L475.2,100.1 L477,94.9 L477.5,90.2 L478.2,90 L479.3,91.7 L480.8,92.9 L484.7,92.7 L486.4,84.6 L489.4,84 L490.2,81.4 L493,79.2 L494.1,77.1 L495.9,72.8 L496,68.2 L499.6,69.6 L506.2,72.7 L506.5,67.5 L509.9,68.7 L509.3,71.6 L517.9,74.7 L519.3,76.5 L518.5,79.8 L517.2,81.1 L516.7,82.8 L517.2,85.2 L519.2,86.5 L523.1,87.9 L526,88.9 L530.9,89.8 L533.1,91.9 L536.3,92.3 L537.2,93.5 L536.8,98.2 L538.2,99.3 L537.7,101.2 L538.9,102 L538.7,103.4 L536,103.3 L536.1,104.9 L538.4,106.4 L538.5,107.8 L540.3,109.6 L540.8,112.1 L538.2,113.5 L539.8,115 L545.6,113.3 L549.3,119.5 L492.4,131.8 Z" id="VA" fill="#CCEBC5" fill-rule="nonzero"></path>
                    <polygon id="WV" fill="#CCEBC5" points="476.9 76.3 482.7 70.3 485.3 69.5 486.9 68 488.4 65.8 489.5 66.1 492.6 65.9 497.2 62.3 498.7 61.8 500 62.8 502.6 64 505.6 67 505.2 71.3 499.8 68.7 495 66.9 494.9 72.8 492.3 78.5 489.4 80.9 488.6 83.2 485.6 83.7 483.9 91.8 481.1 92 480 91 478.8 89 476.6 89.5 476.1 94.6 474.3 99.7 469.3 110.7 470.2 112.1 470.1 114.1 467.9 116.6 466.3 116.2 463.2 118.5 460.4 117.7 458.6 122.6 454.8 123.6 452.3 122.3 449.8 124.2 447.5 124.9 444.3 124.1 440.5 119.6 437 117.4 434.5 114.9 431.6 111.2 431.1 108.9 428.3 107.2 427.7 105.9 427.5 100.3 427.8 100.4 430.2 100.2 432 99.2 432 97 433.7 95.5 433.8 90.3 434.7 86.7 435.8 86 436.2 86.3 437.2 87.4 438.9 87.9 440 86.6 439 83.5 439 81.9 442.1 77.3 443.3 76 445.3 76.5 447.9 74.7 451 71.3 453.4 67.2 453.6 61.6 454.1 56.8 454.1 51.9 453 48.9 453.9 47.6 454.7 46.9 459 66.2 463.3 65.4 474.5 64.1"></polygon>
                    <path d="M287.2,352.2 L288.1,350.1 L289.8,350.5 L291.5,351.8 L298.8,352.7 L306.1,352.3 L309.1,352.3 L311.7,353.2 L313.4,351.9 L315.5,351.9 L320.6,352.3 L325.7,353.6 L327.4,355.3 L330.4,355.3 L330.8,357.9 L330.4,359.6 L327,360 L324.9,360.9 L324,363 L322.7,365.1 L320.1,366.4 L315,366.4 L310.7,366.4 L308.6,365.5 L304.3,365.5 L302.2,364.6 L298.8,365.5 L294.5,365.5 L292.4,363.8 L289.8,364.7 L286.4,365.1 L286,363 L286.9,361.7 L287.8,359.6 L286.9,357 L283.5,354.4 L284.8,353.5 L287.2,352.2 Z M333.9,363.8 L332,364.4 L335.7,365.6 L340.7,364.4 L341.9,362.5 L338.8,363.1 L333.9,363.8 Z M342.6,359.5 L341.1,358.6 L343.3,357.1 L343.9,358.6 L342.6,359.5 Z" id="PR" fill="#CCEBC5" fill-rule="nonzero"></path>
                    <path d="M364.4,346.1 L362.9,347.2 L361.1,348.3 L361.5,349.8 L363.3,350.5 L365.9,350.1 L367,351.9 L368.8,351.9 L369.9,350.8 L373.9,350.1 L375.7,349.7 L377.2,348.6 L376.5,347.1 L374.3,347.1 L369.2,346 L364.4,346 L364.4,346.1 Z M378.8,347.5 L378.5,348.5 L379.4,349 L381.4,348.8 L382.8,349.5 L383.9,349.3 L384.2,348.1 L384.2,348.1 L385.6,347.1 L385.9,346.1 L384.8,345.6 L383.1,346.1 L381.1,345.4 L380.2,346.1 L379.9,347.1 L378.8,347.5 Z M373.5,367.9 L376.1,367.2 L377.7,367.5 L380,366.2 L381,366.5 L381.6,367.5 L382.6,369.1 L384.6,368.1 L385.6,368.8 L389.9,368.2 L390.4,370.6 L388.6,371.4 L385.3,371.4 L379.8,373 L377.5,372.7 L373.6,373.3 L372.3,372.7 L371.3,373.3 L368.7,373.6 C368.7,373.6 367.2,373.1 368.4,372.3 C370.4,371 369.4,368.7 369.4,368.7 L373.5,367.9 Z" id="VI" fill="#CCEBC5" fill-rule="nonzero"></path>
                </g>
                <g id="Northeast" transform="translate(723.000000, 30.000000)" fill="#B3CDE3">
                    <polygon id="CT" points="120 154.9 123.6 151.7 125.5 149.6 126.3 150.2 129 148.7 134.2 147.6 141.2 144.1 140.6 139.9 139.8 135.5 138.2 129.5 133.9 130.6 112.1 135.3 112.7 138.4 114.2 145.7 114.2 154 113.3 156.1 115 158.3"></polygon>
                    <path d="M155.5,136.5 L155,134.2 L155.8,132.7 L158.7,131.2 L159.5,134.3 L159,136.1 L156.6,137.6 L156.6,138.6 L158.5,137.1 L162.4,132.6 L166.3,130.7 L170.5,129.2 L170.2,126.8 L169.2,123.9 L167.3,121.5 L165.5,120.7 L163.4,120.9 L162.9,121.4 L163.9,122.7 L165.4,121.9 L167.5,123.5 L168.3,126.2 L166.5,128 L164.2,129 L160.6,128.5 L156.7,122.5 L154.4,119.9 L152.6,119.9 L151.5,120.7 L149.6,118.1 L149.9,116.6 L152.3,111.4 L149.4,107 L145.7,108.8 L143.9,111.7 L125.6,116.4 L111.8,118.9 L111.2,129.5 L111.9,134.4 L133.9,129.6 L145.1,126.8 L147.1,128.4 L150.5,132.7 L153.4,137.4 L155.5,136.5 Z M168,137.9 L170.2,137.2 L170.7,135.5 L171.7,135.6 L172.7,137.9 L171.4,138.4 L167.5,138.5 L168,137.9 Z M158.6,138.7 L160.9,136.1 L162.5,136.1 L164.3,137.6 L161.9,138.6 L159.7,139.6 L158.6,138.7 Z" id="MA" fill-rule="nonzero"></path>
                    <path d="M102.8,228.1 L104.5,224.3 L105,219.5 L98.7,220.6 L92.9,220.9 L89.1,204.1 L86.8,198.6 L85.3,194 L63.1,198.3 L25.5,205.9 L27.5,216.3 L32.3,211.4 L34.8,210.7 L36.2,209.2 L38,206.5 L39.6,207.2 L42.2,207 L44.8,204.9 L46.8,203.4 L48.9,202.8 L50.4,203.9 L53.1,205.3 L55,207.1 L56.3,208.5 L61.1,210.1 L60.5,213 L66.3,215.1 L68.4,212.5 L72.1,215 L70,218.3 L69.3,221.6 L67.5,224.2 L67.5,226.3 L67.8,227.1 L69.8,228.4 L73.2,229.5 L77.5,229.4 L80.6,230.4 L82.7,230.7 L83.7,228.6 L82.2,226.5 L82.2,224.7 L79.8,222.6 L77.7,217.1 L79,211.8 L78.8,209.7 L77.5,208.4 C77.5,208.4 79,206.8 79,206.1 C79,205.5 79.5,204 79.5,204 L81.4,202.7 L83.3,201.1 L83.8,202.1 L82.3,203.7 L81,207.4 L81.3,208.5 L83.1,208.8 L83.6,214.3 L81.5,215.3 L81.8,218.9 L82.3,218.7 L83.4,216.8 L85,218.6 L83.4,219.9 L83.1,223.3 L85.7,226.7 L89.6,227.2 L91.2,226.4 L94.4,230.6 L95.4,231 L102.8,228.1 Z M88.3,228.3 L89.4,230.8 L89.6,232.6 L90.7,234.5 C90.7,234.5 91.6,233.6 91.6,233.3 C91.6,233 90.9,230.2 90.9,230.2 L90.2,227.9 L88.3,228.3 Z" id="MD" fill-rule="nonzero"></path>
                    <path d="M133.8,55.9 L135.3,56.3 L135.3,53.7 L136.1,48.2 L138.7,43.5 L140.2,39.5 L138.3,37.1 L138.3,31.1 L139.1,30.1 L139.9,27.4 L139.7,25.9 L139.5,21.1 L141.3,16.3 L144.2,7.4 L146.3,3.2 L147.6,3.2 L148.9,3.4 L148.9,4.5 L150.2,6.8 L152.9,7.4 L153.7,6.6 L153.7,5.6 L157.7,2.7 L159.5,0.9 L161,1.1 L167,3.5 L168.9,4.5 L178,34.4 L184,34.4 L184.8,36.3 L185,41.1 L187.9,43.4 L188.7,43.4 L188.9,42.9 L188.4,41.8 L191.2,41.3 L193.1,43.4 L195.4,47.1 L195.4,49 L193.3,53.7 L191.4,54.3 L188,57.4 L183.2,62.9 C183.2,62.9 182.6,62.9 181.9,62.9 C181.3,62.9 180.9,60.8 180.9,60.8 L179.1,61 L178.1,62.5 L175.7,64 L174.7,65.5 L176.3,67 L175.8,67.6 L175.3,70.3 L173.4,70.1 L173.4,68.5 L173.1,67.2 L171.6,67.5 L169.8,64.3 L167.7,65.6 L169,67.1 L169.3,68.2 L168.5,69.5 L168.8,72.6 L169,74.2 L167.4,76.8 L164.5,77.3 L164.2,80.2 L158.9,83.3 L157.6,83.8 L156,82.3 L152.9,85.9 L153.9,89.1 L152.4,90.4 L152.2,94.8 L151.1,101.1 L148.9,100.2 L148.4,97.1 L144.4,96 L144.2,93.5 L132.5,56.07 L133.8,55.9 Z M170.3,71.5 L171.8,70 L173.2,71.1 L173.8,73.5 L172.1,74.4 L170.3,71.5 Z M177,65.6 L178.8,67.5 C178.8,67.5 180.1,67.6 180.1,67.3 C180.1,67 180.3,65.3 180.3,65.3 L181.2,64.5 L180.4,62.7 L178.4,63.4 L177,65.6 Z" id="ME" fill-rule="nonzero"></path>
                    <polygon id="NH" points="149.7 105.3 150.8 102.1 148.1 100.9 147.6 97.8 143.5 96.7 143.2 93.7 131.5 56.22 130.8 56.3 130.2 57.9 129.6 57.4 128.6 56.4 127.1 58.3 126.9 60.59 127.4 69 129.3 71.8 129.3 76.1 125.4 80.9 123 81.8 123 82.5 124.1 84.4 124.1 93 123.3 102.2 123.1 106.9 124.1 108.3 123.9 113 123.4 114.5 124.4 115.6 129.5 114.4 143.3 110.9 145 108 149 106.1"></polygon>
                    <polygon id="NJ" points="91.7 192.3 91.8 190.8 94.5 189.5 96.2 186.7 97.9 184.3 101.2 181.1 101.2 179.9 95.1 175.8 94.1 173.1 91.4 172.8 91.3 171.9 90.6 169.7 92.8 168.6 93 165.7 91.7 164.4 91.9 163.2 93.8 160.1 93.8 157 96.3 153.9 101.9 156.4 108.3 158.3 110.8 159.5 110.9 161.3 110.4 164 110.8 168.5 108.7 170.4 107.6 171.4 108.1 171.9 110.8 171.6 111.9 170.8 113.5 174.2 113.7 183.6 114.3 184.7 113.2 190.2 110.1 196.7 107.4 200.7 106.6 205.5 104.5 207.9 103.7 207.9 103.4 205.2 104.2 204.2 104 202.7 100 202.1 95.2 199.8 92 196.9 91 194.9"></polygon>
                    <polygon id="NY" points="111.4 164 111.9 161.3 111.7 158.9 108.7 157.4 102.2 155.4 96.2 152.8 95.6 152.4 92.9 152.1 90.9 150.6 88.8 144.7 85.5 144.2 83.1 141.8 44.7 149.9 13.1 155.9 12.6 149.4 14.2 148.2 15.5 147.1 16.5 145.5 18.3 144.4 20.2 142.6 20.7 141 22.8 138.3 23.9 137.3 23.7 136.3 22.4 133.2 20.6 133 18.7 126.9 21.6 125.1 26 123.6 30 122.3 33.2 121.8 39.5 121.6 41.4 122.9 43 123.1 45.1 121.8 47.7 120.7 52.9 120.2 55 118.4 56.8 115.2 58.4 113.3 60.5 113.3 62.4 112.2 62.6 109.9 61.1 107.8 60.8 106.3 61.9 104.2 61.9 102.7 60.1 102.7 58.3 101.9 57.5 100.8 57.3 98.2 63.1 92.7 63.7 91.9 65.2 89 68.1 84.5 70.8 80.8 72.9 78.4 75.3 76.6 78.4 75.4 83.9 74.1 87.1 74.3 91.6 72.8 99 70.6 99.7 75.5 102.1 82 102.9 87 101.9 91.2 104.5 95.7 105.3 97.7 104.4 100.9 108.1 102.6 110.8 112.8 110.8 118.6 110.2 129.5 111 134.9 111.7 138.5 113.2 145.8 113.2 153.9 112.1 156.2 114.2 158.9 114.7 159.8 112.8 161.6 113.1 162.9 114.4 162.6 115.9 161.3 118.2 158.7 119.3 158.1 120.9 158.7 123.2 158.9 131.1 155 134 152.3 135.3 150.8 139.5 152.4 136.1 156 132.2 158.9 125.1 164.2 122.5 165.2 116.7 167.1 112.7 168.2 111.7 167.8"></polygon>
                    <polygon id="PA" points="4.6 156.2 5.9 155.7 11.6 150.2 12.3 157.1 45.8 150.6 82.7 142.8 85 145.1 88.1 145.5 90.1 151.1 92.5 153 95.3 153.4 95.4 153.5 92.8 156.7 92.8 159.8 90.9 162.9 90.7 164.8 92 166.1 91.8 168 89.4 169.1 90.4 172.5 90.6 173.6 93.4 173.9 94.3 176.4 100.2 180.3 100.2 180.7 97.1 183.7 95.6 185.9 93.9 188.7 91.2 189.9 89.8 190.2 87.7 191.5 86.1 192.9 63.7 197.2 25 205 13.7 206.4 9.8 207.1 4.7 184.7 0.4 158.8"></polygon>
                    <polygon id="RI" points="141.6 139.7 140.8 135.3 139.2 129.3 144.9 127.8 146.4 129.1 149.8 133.4 152.6 137.8 149.8 139.2 148.5 139 147.4 140.8 145 142.7 142.2 143.8"></polygon>
                    <polygon id="VT" points="100.7 75.3 103.1 81.8 103.9 87.1 102.9 91 105.4 95.4 106.3 97.7 105.6 100.3 108.9 101.8 111.8 112.6 111.8 117.9 123.3 115.8 122.3 114.7 122.9 112.8 123.1 108.5 122.1 107.1 122.3 102.4 123.1 93.1 123.1 84.6 122 82.8 122 81.2 124.8 80.1 128.3 75.7 128.3 72.1 126.4 69.4 126.1 63.61 100 70.4"></polygon>
                    <g id="DC" transform="translate(64.000000, 210.000000)">
                        <polygon id="DC1" points="5.8 7.8 4.7 6.2 3.7 5.4 4.8 3.8 7 5.3"></polygon>
                        <circle id="DC2" stroke="#FFFFFF" stroke-width="1.5" cx="5.3" cy="5.8" r="5"></circle>
                    </g>
                    <polygon id="DE" points="102.4 211.2 101.4 211.7 97.8 209.3 96 204.6 94.1 201 91.8 200 89.7 196.4 90.2 194.4 90.7 192.1 90.8 191 90.2 191.1 88.5 192.1 86.5 193.8 86.3 194.1 87.7 198.2 90 203.8 93.7 219.9 98.7 219.6 104.7 218.5"></polygon>
                </g>
                <g id="Midwest" transform="translate(339.000000, 46.000000)" fill="#FBB4AE">
                    <polygon id="IA" points="208.8 131.6 210.9 133.7 211.2 134.4 209.2 137.4 209.5 141.4 212.1 145.5 215.2 147.1 217.6 147.4 218.5 149.2 218.7 151.6 221.2 152.6 222.1 153.7 222.6 155.3 226.4 158.6 227 160.5 226.3 163.5 224.6 167.2 224 169.6 221.9 171.2 220.3 171.7 214.6 173.2 213 178 213.8 179.8 215.5 181.3 215.3 184.8 213.4 186.2 212.7 188 212.7 190.4 211.3 190.8 209.6 192.2 209.1 193.9 209.5 195.6 208.2 196.6 205.9 193.9 204.5 191.1 196.2 191.9 186.2 192.5 137 193.7 135.4 189.4 135 182.7 133.6 178.5 132.9 173.3 130.7 169.6 129.7 165 127 157.2 125.9 151.6 124.5 149.7 123.2 146.8 124.9 143 126.1 136.9 123.4 134.7 123.1 132.3 123.8 129.9 125.6 129.6 186.7 129 207.9 128.3"></polygon>
                    <polygon id="IL" points="270.7 162.3 269.9 159.7 268.6 156 267 154.2 265.5 151.6 265.1 146.1 249.2 147.9 231.8 148.9 219.5 148.9 219.7 151 221.9 151.9 223 153.3 223.4 154.7 227.3 158.1 228 160.5 227.3 163.8 225.6 167.5 224.8 170.2 222.4 172.1 220.5 172.7 215.3 174 214 178.1 214.6 179.2 216.5 181 216.3 185.3 214.2 186.9 213.7 188.2 213.7 191 211.9 191.6 210.5 192.8 210.1 194 210.5 196 208.9 197.3 208 200.1 208.3 204 210.6 211 217.6 218.6 223.3 222.3 223.3 226.7 224 227.9 230.6 228.5 233.3 229.9 232.6 233.4 230.4 239.6 229.6 242.6 231.6 246.3 238 251.6 242.8 252.4 245 257.5 247 260.9 246.1 263.7 247.6 267.5 249.3 269.6 250.9 269.3 251.9 267.1 254.3 265.4 257.1 264.4 263.2 266.9 263.7 266.7 263.7 265.6 262.5 262.9 262.9 260.1 265.3 258.5 268.7 257.3 268.2 256 267.4 254 268.6 252.7 269.6 250 269.6 246 270 241.1 272.5 238.1 274.3 234.3 276.8 230.3 276.3 225 274.5 221.8 274.2 218.5 275 213.2 274.3 206 273.2 190.2 271.8 174.9 270.9 163.2"></polygon>
                    <polygon id="IN" points="274.9 164.1 276.4 165.1 277.5 164.8 279.6 162.9 282.1 161.1 296.4 160 314.8 158.2 316.4 173.7 321.3 216.3 320.7 219.2 322 220.8 322.2 222.1 319.9 223.7 316.3 225.4 313.1 225.8 312.6 230.6 307.9 234.2 305 238.2 305.2 240.6 304.7 242 301.2 242 299.8 240.3 294.6 243.3 294.8 246.4 293.9 246.6 293.4 245.7 291 244 287.4 245.5 286 248.4 284.8 247.8 283.2 246 278.8 246.5 273.1 247.5 270.6 248.8 270.6 246.2 271 241.5 273.3 238.6 275.1 234.7 277.8 230.5 277.3 224.7 275.5 221.6 275.2 218.4 276 213.1 275.3 206 274.4 193.4 271.9 163.3"></polygon>
                    <polygon id="KS" points="137.9 207.5 94.1 206.9 53.5 205.7 31.8 204.8 27.5 269.6 51.8 270.6 96.5 272.7 142.8 273.3 155.4 273 156.1 238 154.9 226.9 152.4 224.9 150 221.9 147.7 218.3 148.3 215.3 150 213.9 150 211.8 149.2 211.1 146.6 210.9 143.1 207.5"></polygon>
                    <polygon id="KY" points="259.2 279.8 271.8 279.1 271.9 275 276.2 275 306.6 271.8 351.7 267.5 357.3 263.9 361.2 261.8 361.3 259.9 367.3 252.1 371.4 248.5 373.5 246.1 370.2 244.1 367.7 241.4 364.7 237.6 364.2 235.4 361.6 234 360.7 232.1 360.5 226 357.9 224 356 222.9 355.5 220.6 354.2 220.8 352.2 222 349.7 224.7 347.8 223 345.3 222.5 342.9 223.9 340.6 223.9 338.8 221.9 333.2 221.8 331.4 217.3 328.5 215.8 326.4 216.6 322.2 216.8 321.7 218.9 322.9 220.4 323.2 222.5 320.4 224.5 316.6 226.3 314 226.7 313.5 231.2 308.6 234.8 306 238.5 306.2 240.7 305.3 243 300.8 242.9 299.5 241.6 295.6 243.8 295.8 247.1 293.4 247.7 292.6 246.3 290.9 245.1 288.2 246.2 286.4 249.7 284.2 248.7 282.8 247.1 279.1 247.5 273.5 248.5 270.7 249.8 269.5 253.2 268.5 254.2 270 257.9 265.8 259.3 263.9 260.7 263.5 262.9 264.7 265.3 264.7 267.5 263.1 267.9 257 265.4 254.7 266.3 252.7 267.7 251.9 269.5 253.6 271.9 252.7 273.7 252.6 277 250.2 278.3 248.1 280"></polygon>
                    <path d="M296.5,159 L315.6,157.1 L315.8,158.2 L325.7,156.7 L337.7,155 L337.8,154.4 L338,152.9 L340.1,149.2 L342.1,147.5 L341.9,142.4 L343.5,140.8 L344.6,140.5 L344.8,136.9 L346.3,133.9 L347.4,134.5 L347.6,135.1 L348.4,135.3 L350.3,134.3 L349.9,125.2 L346.7,117 L344.4,107.9 L342,104.7 L339.4,102.9 L337.8,104 L333.9,105.8 L332,110.8 L329.3,114.5 L328.2,115.1 L326.7,114.5 C326.7,114.5 324.1,113 324.3,112.4 C324.5,111.8 324.8,107.4 324.8,107.4 L328.2,106.1 L329,102.7 L329.6,100.1 L332,98.5 L331.7,88.5 L330.1,86.2 L328.8,85.4 L328,83.3 L328.8,82.5 L330.4,82.8 L330.6,81.2 L328,79 L326.7,76.4 L324.1,76.4 L319.6,74.9 L314.1,71.5 L311.4,71.5 L310.8,72.1 L309.8,71.6 L306.7,69.3 L303.8,71.1 L300.9,73.4 L301.2,77 L302.2,77.3 L304.3,77.8 L304.8,78.6 L302.2,79.4 L299.6,79.7 L298.1,81.5 L297.8,83.6 L298.1,85.2 L298.4,90.7 L294.8,92.8 L294.2,92.6 L294.2,88.4 L295.5,86 L296.1,83.6 L295.3,82.8 L293.4,83.6 L292.4,87.8 L289.7,88.9 L287.9,90.8 L287.7,91.8 L288.3,92.6 L287.7,95.2 L285.4,95.7 L285.4,96.8 L286.2,99.2 L285.1,105.3 L283.5,109.3 L284.1,114 L284.6,115.1 L283.8,117.5 L283.5,118.3 L283.2,121 L286.8,127 L289.7,133.5 L291.2,138.3 L290.4,143 L289.4,149 L287,154.2 L286.7,156.9 L283.5,160 L296.5,159 Z M263.2,86.6 L261.9,85.5 L260.1,75.1 L256.4,73.8 L254.7,71.5 L242.1,68.7 L239.3,67.6 L231.2,65.4 L223.4,64.4 L219.5,59.1 L220.2,58.6 L222.9,57.8 L226.5,55.5 L226.5,54.5 L227.1,53.9 L233.1,52.9 L235.5,51 L239.9,48.9 L240.1,47.6 L242,44.7 L243.8,43.9 L245.1,42.1 L247.4,39.8 L251.8,37.4 L256.5,36.9 L257.6,38 L257.3,39 L253.6,40 L252.1,43.1 L249.8,43.9 L249.3,46.3 L246.9,49.5 L246.6,52.1 L247.4,52.6 L248.4,51.5 L252,48.6 L253.3,49.9 L255.6,49.9 L258.8,50.9 L260.3,52 L261.8,55.1 L264.5,57.8 L268.4,57.6 L269.9,56.6 L271.5,57.9 L273.1,58.4 L274.4,57.6 L275.5,57.6 L277.1,56.6 L281.1,53 L284.5,51.9 L291.1,51.6 L295.6,49.7 L298.2,48.4 L299.7,48.6 L299.7,54.3 L300.2,54.6 L303.1,55.4 L305,54.9 L311.1,53.3 L312.2,52.2 L313.7,52.7 L313.7,59.7 L316.9,62.8 L318.2,63.4 L319.5,64.4 L318.2,64.7 L317.4,64.4 L313.7,63.9 L311.6,64.5 L309.3,64.3 L306.1,65.8 L304.3,65.8 L298.5,64.5 L293.3,64.7 L291.4,67.3 L284.4,67.9 L282,68.7 L280.9,71.8 L279.6,72.9 L279.1,72.7 L277.6,71.1 L273.1,73.5 L272.5,73.5 L271.4,71.9 L270.6,72.1 L268.7,76.5 L267.7,80.5 L264.5,87.4 L263.2,86.6 Z M233.6,30.1 L235.4,28 L237.6,27.2 L243,23.3 L245.3,22.7 L245.8,23.2 L240.7,28.3 L237.4,30.2 L235.3,31.1 L233.6,30.1 Z M319.8,62.2 L320.4,64.7 L323.6,64.9 L324.9,63.7 C324.9,63.7 324.8,62.2 324.5,62.1 C324.2,61.9 322.9,60.2 322.9,60.2 L320.7,60.4 L319.1,60.6 L318.8,61.7 L319.8,62.2 Z" id="MI" fill-rule="nonzero"></path>
                    <polygon id="MN" points="116.6 14.79 116 18.7 116 28.97 117.6 34 119.5 37.32 120 47.25 121.8 60.7 123.6 68 124 74.4 124 79.7 122.4 81.5 120.6 82.8 120.6 84.3 121.5 86 125.6 89.5 126.3 92.7 126.3 128.6 186.6 128 207.8 127.3 207.3 121.3 205.5 119.2 198.3 114.6 194.7 109.3 191.3 108.4 189.3 105.6 186.1 105.6 182.6 101.8 182.1 94.8 182.2 90.9 183.7 87.9 183 85.2 180.2 82.1 182.4 76 187.8 72 189 70.6 188.8 62.6 189 59.6 191.6 56.6 195.4 53.7 196.7 53.5 201.2 48.5 203 47.7 205.3 43.8 207.7 40.2 210.8 37.6 215.6 35.6 224.8 31.5 228.7 29.7 229.3 27.4 224.9 27.8 224.2 28.9 223.6 28.9 221.8 25.8 212.9 26.1 211.9 26.9 210.9 26.9 210.4 25.6 209.6 23.8 207 24.3 203.8 27.5 202.2 28.3 199.1 28.3 196.5 27.3 196.5 25.2 195.2 25 194.7 25.5 192.1 24.2 191.6 21.3 190.1 21.8 189.6 22.8 187.2 22.3 181.9 19.9 178 17.3 175.1 17.3 173.8 16.3 171.5 16.9 170.4 18 170.1 19.3 165.3 19.3 165.3 17.2 159 16.9 158.7 15.4 153.9 15.4 152.3 13.8 150.8 7.7 150 2.2 148.1 1.4 145.8 0.9 145.2 1.1 144.9 9.3 114.8 9.27"></polygon>
                    <polygon id="MO" points="245.1 286.7 245.6 280.8 249.8 277.4 251.7 276.4 251.7 273.5 252.4 271.9 251.3 270.3 248.9 270.6 246.8 268.1 245.1 263.6 246 261 244 257.8 242.2 253.2 237.6 252.5 230.8 246.9 228.6 242.7 229.4 239.4 231.6 233.4 232.2 230.4 230.3 229.4 223.4 228.8 222.3 226.9 222.3 222.8 217 219.3 209.8 211.5 207.5 204.2 207 200 207.7 197.6 205.1 194.5 203.9 192.1 196.2 192.9 186.2 193.5 137.4 194.7 138.7 197.3 138.6 199.5 140.9 203.1 143.9 207 147 210 149.6 210.2 151 211.3 151 214.2 149.2 215.8 148.7 218.1 150.8 221.3 153.2 224.3 155.8 226.4 157.1 238 156.3 278 156.8 283.7 180.5 283.5 203.8 282.8 236.3 281.5 238.5 285.2 237.7 288.3 234.6 290.8 234.1 292.6 239.3 293.1 243.4 292"></polygon>
                    <polygon id="ND" points="123 74.4 122.6 68.2 120.8 60.9 119 47.29 118.5 37.59 116.6 34.41 115 29.09 115 18.68 115.6 14.83 113.8 9.29 85.2 8.7 66.6 8.1 40.1 6.8 14.9 4.64 14 19.06 9.3 70 66.1 73.9 123 75.6"></polygon>
                    <polygon id="NE" points="122.3 152.3 121.3 150 120.8 148.4 117.9 146.8 113.1 145.3 110.9 144.1 108.3 144.2 104.6 144.6 100.4 145.8 94.4 141.7 92.2 139.7 81.5 140.3 40 137.9 4.4 135.7 0.1 179.4 33.2 182.7 31.8 203.8 53.5 204.8 94.1 206 137.9 206.6 142.4 206.6 140.2 203.6 137.6 199.7 137.7 197.4 136.3 194.7 134.4 189.5 134 182.8 132.6 178.7 132.1 173.7 129.8 170 128.8 165.3 126 157.4 125 152.1"></polygon>
                    <polygon id="OH" points="315.8 159.2 317.5 174.7 322.3 215.8 326.2 215.6 328.5 214.8 332.1 216.6 333.8 220.8 339.2 220.9 341 222.9 342.7 222.9 345.1 221.5 348.2 222 349.7 223.3 351.5 221.3 353.8 219.9 356.2 219.5 356.8 222.2 358.4 223.2 361 225.2 361.8 225.4 363.8 225.3 365 224.7 365 222.6 366.7 221.1 366.8 216.3 367.9 212.1 369.8 210.8 370.8 211.5 371.8 212.6 372.5 212.8 372.9 212.4 372 209.7 372 207.5 373.1 206.1 375.6 202.5 376.9 201 379.1 201.5 381.2 200 384.2 196.7 386.4 193 386.6 187.6 387.1 182.6 387.1 178 385.9 174.8 387.1 173 388.4 171.8 387.8 169 383.5 143.4 377.3 147.1 373.4 149.4 370 153.1 366 157 362.8 157.8 359.9 158.3 354.4 160.9 352.3 161.1 348.9 158 343.7 158.6 341.1 157.1 338.9 155.8"></polygon>
                    <polygon id="SD" points="123 129.1 122.1 132.3 122.5 135.3 125.1 137.3 123.9 142.7 122.1 146.8 123.6 150.1 124.3 151.2 123 151.3 122.3 149.7 121.7 147.7 118.4 145.9 113.6 144.4 111.1 143.1 108.2 143.2 104.3 143.6 100.5 144.8 95.2 141 92.5 138.6 81.6 139.4 40.1 137 4.5 134.8 6 110 8.8 76 9.2 71 66.1 74.9 123 76.6 123 79.3 121.7 80.8 119.7 82.3 119.6 84.5 120.7 86.7 124.8 90.1 125.3 92.8 125.3 128.7"></polygon>
                    <polygon id="WI" points="193.4 57.9 196.3 58.4 199.2 57.8 206.6 54.6 209.5 52.7 211.6 51.9 213.5 53.4 212.4 54.5 210.5 57.6 209.9 59.5 210.9 60.1 212.7 59.1 213.8 58.9 216.5 59.7 217.1 60.8 218.2 61 218.8 59.9 222.8 65.2 231 66.4 239.2 68.6 241.8 69.7 254.1 72.3 255.7 74.6 259.3 75.8 261 86 262.6 87.4 264.1 88.3 263 90.6 261.2 92.2 259.1 96.9 257.8 99.3 258 101.1 259.5 101.4 260.6 99.5 262.1 98.7 262.9 96.4 264.8 94.6 267.5 90.6 271.7 84.3 272.5 83.8 272.8 84.8 272.6 87.1 269.7 93.9 267 99.6 266.5 102.8 265.9 105.4 266.7 106.7 266.5 109.4 264.6 111.8 264.1 113.6 264.7 117.2 265.3 120.6 263.8 123.2 263 126.1 262 129.2 263.1 131.6 263.7 137.7 265.3 142.2 265.1 145.2 249.2 147 231.7 148 219 148 218.3 146.5 215.4 146.1 212.8 144.8 210.5 141.1 210.2 137.5 212.2 134.6 211.7 133.2 209.6 131 208.8 127.7 208.2 120.9 206.1 118.4 199.1 113.9 195.3 108.5 191.9 107.5 189.7 104.7 186.5 104.7 183.6 101.4 183.1 94.9 183.2 91.1 184.7 88 183.9 84.8 181.4 82 183.2 76.6 188.4 72.8 190 70.9 189.8 62.8 190 60 192.4 57.2"></polygon>
                </g>
            </g>
            <path d="M551,587 L551,509 L673,509 L673,587 M626,509 L626,587 M551,550 L673,550 M551,588 L673,588 M589,550 L589,587" id="frames" stroke="#A9A9A9" stroke-width="2"></path>
        </g>
        <text id="Central" font-family="SourceSansPro-Bold, Source Sans Pro" font-size="59" font-weight="bold" letter-spacing="-0.3" fill="#854742">
            <tspan x="481.029" y="290">Central</tspan>
        </text>
        <text id="Northeast" font-family="SourceSansPro-Bold, Source Sans Pro" font-size="59" font-weight="bold" letter-spacing="-0.3" fill="#406787">
            <tspan x="722.696" y="208">Northeast </tspan>
        </text>
        <text id="South" font-family="SourceSansPro-Bold, Source Sans Pro" font-size="59" font-weight="bold" letter-spacing="-0.3" fill="#497F3D">
            <tspan x="638.0765" y="445">South</tspan>
        </text>
        <text id="West" font-family="SourceSansPro-Bold, Source Sans Pro" font-size="59" font-weight="bold" letter-spacing="-0.3" fill="#6F3A80">
            <tspan x="185.0585" y="274">West </tspan>
        </text>
    </g>
</svg>