<svg xmlns="http://www.w3.org/2000/svg" xmlns:xlink="http://www.w3.org/1999/xlink" width="156" height="47" viewBox="0 0 156 47">
  <defs>
    <path id="a" d="M.001.2H46.8V47H.001z"/>
  </defs>
  <g fill="none" fill-rule="evenodd">
    <path fill="#241F47" d="M73.085 21.98c-4.85-1.04-5.737-2.165-5.737-4.008v-.062c0-1.934 1.812-3.285 4.408-3.285 2.045 0 3.743.573 5.507 1.858.254.182.519.263.857.263.786 0 1.426-.64 1.426-1.426 0-.65-.438-1.048-.631-1.193-2.114-1.52-4.303-2.198-7.097-2.198-4.297 0-7.415 2.607-7.415 6.199v.062c0 2.943 1.278 5.18 7.522 6.538 4.612.972 5.487 2.126 5.487 3.914v.062c0 2.044-1.903 3.472-4.627 3.472-2.63 0-4.642-.756-6.732-2.526-.217-.212-.565-.344-.911-.344-.8 0-1.426.64-1.426 1.457 0 .467.212.889.566 1.13 2.525 2.004 5.276 2.979 8.41 2.979 4.53 0 7.696-2.64 7.696-6.417v-.063c0-3.38-2.184-5.296-7.303-6.412m31.02-9.74H89.03c-.645 0-1.236.424-1.394 1.05-.227.9.468 1.709 1.352 1.709h5.708c.213 0 .385.172.385.385v17.79c0 .793.596 1.485 1.386 1.538a1.49 1.49 0 0 0 1.59-1.485V15.384c0-.213.172-.385.385-.385h5.707c.885 0 1.579-.808 1.352-1.708-.159-.627-.748-1.05-1.394-1.05m11.921 13.265l4.042-8.988a.394.394 0 0 1 .72 0l4.04 8.988a.394.394 0 0 1-.359.555h-8.084a.394.394 0 0 1-.359-.555zm6.277-12.274c-.332-.811-.937-1.24-1.75-1.24h-.126c-.819 0-1.4.402-1.778 1.231l-8.858 19.37a1.665 1.665 0 0 0-.179.72c-.016.747.615 1.402 1.363 1.402.645 0 1.145-.352 1.405-.985l2.111-4.714a.386.386 0 0 1 .351-.228h11.172c.151 0 .288.088.351.226l2.11 4.652c.291.668.814 1.05 1.436 1.05.786 0 1.426-.64 1.426-1.427 0-.205-.059-.447-.178-.724l-8.856-19.332zm32.285 18.6h-11.806a.385.385 0 0 1-.385-.384v-6.393c0-.213.172-.385.385-.385h10.233c.63 0 1.212-.402 1.377-1.011.239-.881-.462-1.716-1.316-1.716h-10.294a.384.384 0 0 1-.385-.384v-6.206c0-.213.172-.385.385-.385h11.65c.693 0 1.31-.496 1.399-1.184a1.365 1.365 0 0 0-1.351-1.543H140.91c-.79 0-1.457.682-1.457 1.488V33.07c0 .807.667 1.489 1.457 1.489h13.727c.81 0 1.458-.712 1.35-1.543-.087-.687-.705-1.184-1.398-1.184"/>
    <g transform="translate(0 -.2)">
      <mask id="b" fill="#fff">
        <use xlink:href="#a"/>
      </mask>
      <path fill="#241F47" d="M41.97 17.506h-2.575a1.302 1.302 0 0 1-1.303-1.302v-5.62a1.73 1.73 0 0 0-1.73-1.731H19.026a1.73 1.73 0 0 0-1.73 1.73V24.87a1.29 1.29 0 0 1-1.29 1.29h-2.575a1.29 1.29 0 0 1-1.29-1.29v-19.9c0-.718.584-1.301 1.302-1.301h28.54c.712 0 1.29.577 1.29 1.29v11.246c0 .719-.584 1.302-1.303 1.302m-8.658 0h-5.598c-.979 0-1.747.734-1.747 1.806v14.21a1.29 1.29 0 0 1-1.29 1.29H13.4a1.29 1.29 0 0 1-1.29-1.29l.013-2.613c0-.712.577-1.29 1.289-1.29h5.62c.956 0 1.732-.774 1.732-1.73V13.616c0-.72.582-1.302 1.302-1.302h11.252c.718 0 1.302.583 1.302 1.302l-.006 2.588c0 .719-.583 1.302-1.302 1.302m.002 25.958H4.767a1.301 1.301 0 0 1-1.3-1.301V30.922c0-.72.582-1.302 1.3-1.302h2.546c.835 0 1.36.638 1.36 1.384l-.013 5.554c0 .873.745 1.723 1.747 1.723l17.252-.007c1.07 0 1.767-.87 1.767-1.94V22.256a1.29 1.29 0 0 1 1.29-1.29l2.617-.008c.718 0 1.301.583 1.301 1.302l-.008 19.873c0 .739-.595 1.33-1.314 1.33M45.07.2H10.405c-.955 0-1.73.775-1.73 1.73v22.927c0 .719-.584 1.302-1.303 1.302H1.731A1.73 1.73 0 0 0 0 27.889v17.358C0 46.203.774 47 1.73 47h34.618c.957 0 1.732-.798 1.732-1.754V22.253c0-.72.582-1.302 1.301-1.302h5.688c.956 0 1.73-.775 1.73-1.731V1.93C46.8.976 46.026.2 45.07.2" mask="url(#b)"/>
    </g>
  </g>
</svg>
